<svg width="317" height="53" viewBox="0 0 317 53" fill="none" xmlns="http://www.w3.org/2000/svg">
<path d="M28.385 8.87124C28.385 3.97179 32.3568 0 37.2563 0H214.933C219.832 0 223.804 3.97179 223.804 8.87124V8.87124C223.804 13.7707 227.776 17.7425 232.675 17.7425H254.854C259.691 17.7425 263.612 21.6634 263.612 26.5V26.5C263.612 31.3366 267.533 35.2575 272.369 35.2575H289.942C294.842 35.2575 298.814 39.2293 298.814 44.1288V44.1288C298.814 49.0282 294.842 53 289.942 53H112.266C107.366 53 103.394 49.0282 103.394 44.1288V44.1288C103.394 39.2293 99.4226 35.2575 94.5232 35.2575H76.9502C72.1135 35.2575 68.1926 31.3366 68.1926 26.5V26.5C68.1926 21.6634 64.2718 17.7425 59.4351 17.7425H37.2563C32.3568 17.7425 28.385 13.7707 28.385 8.87124V8.87124Z" fill="#A8D6FF"/>
<path d="M281.048 8.87124C281.048 3.97179 285.02 0 289.919 0H307.379C312.278 0 316.25 3.97179 316.25 8.87124V8.87124C316.25 13.7707 312.278 17.7425 307.379 17.7425H289.919C285.02 17.7425 281.048 13.7707 281.048 8.87124V8.87124Z" fill="#A8D6FF"/>
<path d="M62.5998 44.1288C62.5998 39.2293 58.6281 35.2575 53.7286 35.2575H9.62125C4.72179 35.2575 0.75 39.2293 0.75 44.1288V44.1288C0.75 49.0282 4.72179 53 9.62124 53H53.7286C58.6281 53 62.5998 49.0282 62.5998 44.1288V44.1288Z" fill="#A8D6FF"/>
</svg>
