<svg width="178" height="174" viewBox="0 0 178 174" fill="none" xmlns="http://www.w3.org/2000/svg">
<path d="M89.1909 14.441C91.7441 14.441 93.8162 16.4623 93.8162 18.9527V27.9761C93.8162 29.1726 93.3289 30.3202 92.4615 31.1663C91.5941 32.0124 90.4176 32.4877 89.1909 32.4877C87.9642 32.4877 86.7878 32.0124 85.9204 31.1663C85.053 30.3202 84.5657 29.1726 84.5657 27.9761V18.9527C84.5657 16.4623 86.6378 14.441 89.1909 14.441ZM126.278 86.7939C126.278 106.678 109.753 122.797 89.3686 122.797C68.9803 122.797 52.4551 106.678 52.4551 86.7939C52.4551 66.9064 68.9803 50.7871 89.3686 50.7871C109.753 50.7871 126.278 66.9064 126.278 86.7939ZM158.574 91.1359C159.801 91.1359 160.977 90.6606 161.844 89.8145C162.712 88.9684 163.199 87.8208 163.199 86.6242C163.199 85.4277 162.712 84.2801 161.844 83.434C160.977 82.5879 159.801 82.1126 158.574 82.1126H149.323C148.097 82.1126 146.92 82.5879 146.053 83.434C145.185 84.2801 144.698 85.4277 144.698 86.6242C144.698 87.8208 145.185 88.9684 146.053 89.8145C146.92 90.6606 148.097 91.1359 149.323 91.1359H158.574ZM89.1909 140.764C91.7441 140.764 93.8162 142.786 93.8162 145.276V154.299C93.8162 155.496 93.3289 156.644 92.4615 157.49C91.5941 158.336 90.4176 158.811 89.1909 158.811C87.9642 158.811 86.7878 158.336 85.9204 157.49C85.053 156.644 84.5657 155.496 84.5657 154.299V145.276C84.5657 142.786 86.6378 140.764 89.1909 140.764ZM29.066 91.1359C30.2927 91.1359 31.4692 90.6606 32.3366 89.8145C33.204 88.9684 33.6913 87.8208 33.6913 86.6242C33.6913 85.4277 33.204 84.2801 32.3366 83.434C31.4692 82.5879 30.2927 82.1126 29.066 82.1126H19.8155C18.5888 82.1126 17.4123 82.5879 16.5449 83.434C15.6775 84.2801 15.1902 85.4277 15.1902 86.6242C15.1902 87.8208 15.6775 88.9684 16.5449 89.8145C17.4123 90.6606 18.5888 91.1359 19.8155 91.1359H29.066ZM35.0456 33.8052C35.4751 33.3861 35.985 33.0536 36.5463 32.8268C37.1075 32.6 37.7091 32.4833 38.3166 32.4833C38.9241 32.4833 39.5256 32.6 40.0869 32.8268C40.6481 33.0536 41.1581 33.3861 41.5876 33.8052L50.8381 42.8285C51.2677 43.2475 51.6084 43.7449 51.8409 44.2924C52.0734 44.8398 52.193 45.4266 52.193 46.0192C52.193 46.6117 52.0734 47.1985 51.8409 47.7459C51.6084 48.2934 51.2677 48.7908 50.8381 49.2098C50.4086 49.6288 49.8986 49.9612 49.3374 50.188C48.7761 50.4147 48.1746 50.5314 47.5671 50.5314C46.9597 50.5314 46.3581 50.4147 45.7969 50.188C45.2356 49.9612 44.7257 49.6288 44.2961 49.2098L35.0456 40.1865C34.616 39.7675 34.2751 39.2701 34.0426 38.7226C33.8101 38.1752 33.6904 37.5884 33.6904 36.9958C33.6904 36.4032 33.8101 35.8164 34.0426 35.269C34.2751 34.7215 34.616 34.2241 35.0456 33.8052ZM41.5876 139.447C40.7201 140.293 39.5434 140.769 38.3166 140.769C37.0897 140.769 35.9131 140.293 35.0456 139.447C34.1781 138.601 33.6907 137.453 33.6907 136.256C33.6907 135.06 34.1781 133.912 35.0456 133.066L44.2961 124.042C44.7257 123.623 45.2356 123.291 45.7969 123.064C46.3581 122.837 46.9597 122.721 47.5671 122.721C48.1746 122.721 48.7761 122.837 49.3374 123.064C49.8986 123.291 50.4086 123.623 50.8381 124.042C51.2677 124.461 51.6084 124.959 51.8409 125.506C52.0734 126.054 52.193 126.64 52.193 127.233C52.193 127.825 52.0734 128.412 51.8409 128.96C51.6084 129.507 51.2677 130.005 50.8381 130.424L41.5876 139.447ZM143.344 33.8052C142.476 32.9599 141.301 32.4851 140.075 32.4851C138.849 32.4851 137.673 32.9599 136.805 33.8052L127.555 42.8285C126.687 43.6747 126.2 44.8224 126.2 46.0192C126.2 47.2159 126.687 48.3636 127.555 49.2098C128.422 50.056 129.599 50.5314 130.826 50.5314C132.053 50.5314 133.229 50.056 134.097 49.2098L143.347 40.1865C143.777 39.7675 144.118 39.2701 144.35 38.7226C144.583 38.1752 144.703 37.5884 144.703 36.9958C144.703 36.4032 144.583 35.8164 144.35 35.269C144.118 34.7215 143.773 34.2241 143.344 33.8052ZM136.805 139.447C137.673 140.293 138.85 140.769 140.076 140.769C141.303 140.769 142.48 140.293 143.347 139.447C144.215 138.601 144.702 137.453 144.702 136.256C144.702 135.06 144.215 133.912 143.347 133.066L134.097 124.042C133.667 123.623 133.157 123.291 132.596 123.064C132.035 122.837 131.433 122.721 130.826 122.721C130.218 122.721 129.617 122.837 129.056 123.064C128.494 123.291 127.984 123.623 127.555 124.042C127.125 124.461 126.785 124.959 126.552 125.506C126.32 126.054 126.2 126.64 126.2 127.233C126.2 127.825 126.32 128.412 126.552 128.96C126.785 129.507 127.125 130.005 127.555 130.424L136.805 139.447Z" fill="#FFC700"/>
</svg>
