<svg width="229" height="176" viewBox="0 0 229 176" fill="none" xmlns="http://www.w3.org/2000/svg">
<path d="M90.9127 14.6703C93.5145 14.6703 95.6262 16.7236 95.6262 19.2536V28.4203C95.6262 29.6359 95.1296 30.8017 94.2456 31.6612C93.3617 32.5207 92.1628 33.0036 90.9127 33.0036C89.6625 33.0036 88.4636 32.5207 87.5797 31.6612C86.6957 30.8017 86.1991 29.6359 86.1991 28.4203V19.2536C86.1991 16.7236 88.3108 14.6703 90.9127 14.6703ZM128.708 88.1723C128.708 108.372 111.867 124.747 91.0937 124.747C70.3164 124.747 53.4758 108.372 53.4758 88.1723C53.4758 67.969 70.3164 51.5936 91.0937 51.5936C111.867 51.5936 128.708 67.969 128.708 88.1723ZM161.62 92.5833C162.87 92.5833 164.069 92.1004 164.953 91.2409C165.836 90.3813 166.333 89.2155 166.333 88C166.333 86.7844 165.836 85.6186 164.953 84.759C164.069 83.8995 162.87 83.4166 161.62 83.4166H152.192C150.942 83.4166 149.743 83.8995 148.859 84.759C147.976 85.6186 147.479 86.7844 147.479 88C147.479 89.2155 147.976 90.3813 148.859 91.2409C149.743 92.1004 150.942 92.5833 152.192 92.5833H161.62ZM90.9127 143C93.5145 143 95.6262 145.053 95.6262 147.583V156.75C95.6262 157.966 95.1296 159.131 94.2456 159.991C93.3617 160.85 92.1628 161.333 90.9127 161.333C89.6625 161.333 88.4636 160.85 87.5797 159.991C86.6957 159.131 86.1991 157.966 86.1991 156.75V147.583C86.1991 145.053 88.3108 143 90.9127 143ZM29.6404 92.5833C30.8905 92.5833 32.0894 92.1004 32.9734 91.2409C33.8573 90.3813 34.3539 89.2155 34.3539 88C34.3539 86.7844 33.8573 85.6186 32.9734 84.759C32.0894 83.8995 30.8905 83.4166 29.6404 83.4166H20.2133C18.9632 83.4166 17.7643 83.8995 16.8803 84.759C15.9964 85.6186 15.4998 86.7844 15.4998 88C15.4998 89.2155 15.9964 90.3813 16.8803 91.2409C17.7643 92.1004 18.9632 92.5833 20.2133 92.5833H29.6404ZM35.734 34.342C36.1718 33.9162 36.6914 33.5785 37.2634 33.3481C37.8353 33.1177 38.4484 32.9991 39.0675 32.9991C39.6866 32.9991 40.2996 33.1177 40.8715 33.3481C41.4435 33.5785 41.9632 33.9162 42.4009 34.342L51.828 43.5086C52.2657 43.9343 52.613 44.4396 52.8499 44.9958C53.0868 45.5519 53.2087 46.148 53.2087 46.75C53.2087 47.3519 53.0868 47.948 52.8499 48.5042C52.613 49.0603 52.2657 49.5656 51.828 49.9913C51.3902 50.4169 50.8705 50.7546 50.2986 50.985C49.7266 51.2153 49.1136 51.3339 48.4945 51.3339C47.8755 51.3339 47.2625 51.2153 46.6905 50.985C46.1186 50.7546 45.5989 50.4169 45.1611 49.9913L35.734 40.8246C35.2962 40.399 34.9489 39.8937 34.712 39.3375C34.475 38.7814 34.353 38.1853 34.353 37.5833C34.353 36.9813 34.475 36.3852 34.712 35.829C34.9489 35.2729 35.2962 34.7676 35.734 34.342ZM42.4009 141.662C41.5168 142.521 40.3177 143.004 39.0675 143.004C37.8172 143.004 36.6181 142.521 35.734 141.662C34.85 140.802 34.3533 139.636 34.3533 138.42C34.3533 137.205 34.85 136.039 35.734 135.179L45.1611 126.012C45.5989 125.587 46.1186 125.249 46.6905 125.019C47.2625 124.788 47.8755 124.67 48.4945 124.67C49.1136 124.67 49.7266 124.788 50.2986 125.019C50.8705 125.249 51.3902 125.587 51.828 126.012C52.2657 126.438 52.613 126.943 52.8499 127.499C53.0868 128.056 53.2087 128.652 53.2087 129.254C53.2087 129.856 53.0868 130.452 52.8499 131.008C52.613 131.564 52.2657 132.069 51.828 132.495L42.4009 141.662ZM146.099 34.342C145.215 33.4833 144.017 33.0009 142.767 33.0009C141.518 33.0009 140.32 33.4833 139.436 34.342L130.009 43.5086C129.125 44.3683 128.628 45.5342 128.628 46.75C128.628 47.9657 129.125 49.1316 130.009 49.9913C130.893 50.8509 132.092 51.3339 133.342 51.3339C134.592 51.3339 135.791 50.8509 136.675 49.9913L146.103 40.8246C146.54 40.399 146.888 39.8937 147.125 39.3375C147.362 38.7814 147.484 38.1853 147.484 37.5833C147.484 36.9813 147.362 36.3852 147.125 35.829C146.888 35.2729 146.537 34.7676 146.099 34.342ZM139.436 141.662C140.32 142.521 141.519 143.004 142.769 143.004C144.019 143.004 145.218 142.521 146.103 141.662C146.987 140.802 147.483 139.636 147.483 138.42C147.483 137.205 146.987 136.039 146.103 135.179L136.675 126.012C136.238 125.587 135.718 125.249 135.146 125.019C134.574 124.788 133.961 124.67 133.342 124.67C132.723 124.67 132.11 124.788 131.538 125.019C130.966 125.249 130.446 125.587 130.009 126.012C129.571 126.438 129.224 126.943 128.987 127.499C128.75 128.056 128.628 128.652 128.628 129.254C128.628 129.856 128.75 130.452 128.987 131.008C129.224 131.564 129.571 132.069 130.009 132.495L139.436 141.662Z" fill="#FFC700"/>
<path fill-rule="evenodd" clip-rule="evenodd" d="M120.324 73.9775C135.106 73.9775 148.194 81.2309 156.222 92.3726C157.345 92.2759 158.481 92.2265 159.629 92.2265C173.796 92.2265 186.206 99.7486 193.083 111.017C194.932 110.661 196.84 110.475 198.793 110.475C215.384 110.475 228.833 123.924 228.833 140.515C228.833 157.105 215.384 170.555 198.793 170.555V170.555L159.629 170.555L69.0871 170.555C48.1549 170.555 31.186 153.587 31.186 132.654C31.186 111.722 48.1549 94.7533 69.0871 94.7533C73.4657 94.7533 77.6709 95.4958 81.5836 96.8617C89.1127 83.2186 103.639 73.9775 120.324 73.9775Z" fill="#A0D8FC"/>
</svg>
