<svg width="62" height="58" viewBox="0 0 62 58" fill="none" xmlns="http://www.w3.org/2000/svg">
<path d="M20.4378 5.87382C20.9965 5.63603 21.5468 5.37525 22.1158 5.16376C24.5082 4.27602 26.9901 3.79921 29.5316 3.66204C32.4405 3.50508 35.2977 3.85558 38.0886 4.70144C41.1666 5.63435 43.9699 7.10074 46.4965 9.09443C48.686 10.8223 50.538 12.8618 52.0621 15.1993C52.1649 15.3571 52.3267 15.4989 52.1904 15.7398C52.1348 15.8385 52.1893 16.0001 52.1942 16.1604C52.339 16.1307 52.4586 16.1062 52.6199 16.0729C52.9746 16.7373 53.3331 17.4072 53.7103 18.1139C53.3576 18.1635 53.0612 18.2204 52.7632 18.2364C52.6861 18.2407 52.5735 18.1344 52.5258 18.0509C52.0514 17.2175 51.6261 16.3529 51.1081 15.5487C50.6638 14.859 50.1339 14.2216 49.6124 13.5853C47.1496 10.5793 44.1357 8.29312 40.5874 6.71967C37.8007 5.48452 34.8818 4.80824 31.8357 4.67657C30.1638 4.60425 28.5089 4.73772 26.8536 4.96859C25.7532 5.12207 24.688 5.4092 23.6392 5.74123C22.5887 6.07408 21.5487 6.46503 20.5504 6.93092C19.5445 7.40084 18.5761 7.96221 17.626 8.54048C16.348 9.31938 15.1987 10.2731 14.1023 11.293C13.374 11.9705 12.7064 12.7031 12.083 13.4738C11.8734 13.7333 11.6847 13.8654 11.3646 13.7234C11.3143 13.701 11.2528 13.7031 11.1818 13.6919C11.0246 13.9434 11.18 14.1817 11.1934 14.4199C11.1971 14.4878 11.2061 14.5726 11.1718 14.6223C10.8623 15.0799 10.5437 15.531 10.2102 16.0103C9.99475 15.8347 9.80439 15.9546 9.71119 16.1376C9.66683 16.2241 9.80012 16.4018 9.87296 16.5891C9.06027 17.9733 8.31643 19.4787 7.80817 21.0855C7.48419 22.1102 7.23303 23.1588 6.95642 24.1981C6.9114 24.3678 6.80366 24.4431 6.68578 24.5594C6.42375 24.8186 6.11109 24.7091 5.7858 24.8575C5.88317 24.3607 5.96083 23.908 6.06214 23.4602C6.82951 20.074 8.2248 16.9712 10.2525 14.1546C11.7143 12.1236 13.4408 10.3514 15.4225 8.82835C15.5282 8.74684 15.6447 8.66734 15.7694 8.62446C16.0143 8.5405 16.2964 8.5209 16.3305 8.17282C16.3335 8.13995 16.4014 8.11154 16.4411 8.08414C17.6585 7.25065 18.9377 6.52644 20.2787 5.91092C20.3307 5.8871 20.39 5.87758 20.4455 5.86153C20.4348 5.88662 20.4212 5.91095 20.4143 5.93728C20.3898 6.02684 20.3677 6.11666 20.3444 6.20664C20.4336 6.21711 20.5414 6.26331 20.6079 6.22977C20.704 6.18087 20.7701 6.07308 20.8492 5.9906C20.7869 5.93741 20.7315 5.86086 20.66 5.83846C20.5948 5.81871 20.5117 5.85931 20.4364 5.87225L20.4378 5.87382ZM17.6045 8.27808C17.8021 8.05919 18.0031 7.84279 18.1881 7.61388C18.1992 7.60053 18.0913 7.43637 18.0229 7.42298C17.8304 7.38515 17.3597 7.72146 17.2954 7.91335C17.2208 8.13676 17.3165 8.25604 17.6045 8.27808ZM22.2814 5.61767C22.6126 5.79173 22.922 5.76947 23.103 5.52815C23.1689 5.44043 23.1936 5.26827 23.1527 5.1702C23.1247 5.10454 22.9435 5.06336 22.8395 5.07738C22.5432 5.11785 22.38 5.32658 22.2814 5.61767ZM6.46748 23.1903C6.78168 23.2689 6.99713 23.1767 7.00403 22.9368C7.00711 22.8414 6.89669 22.6882 6.80442 22.6558C6.65332 22.6027 6.48194 22.8828 6.46748 23.1903ZM28.2657 4.51945C28.3431 4.39533 28.4143 4.31985 28.4315 4.23308C28.4377 4.20154 28.296 4.09404 28.2534 4.10946C28.1694 4.13956 28.1075 4.23142 28.0367 4.29741C28.0988 4.3577 28.1608 4.41799 28.2657 4.51945Z" fill="#C7C9D9"/>
<path d="M26.3591 54.012C26.4844 53.8858 26.5832 53.8053 26.6574 53.7052C26.7099 53.6347 26.7276 53.539 26.7611 53.4547C26.6579 53.4155 26.5396 53.3236 26.4547 53.3479C26.2941 53.3947 26.1282 53.4835 26.008 53.5995C25.7606 53.8377 25.5128 53.8708 25.1768 53.7924C21.9364 53.0362 18.9538 51.7054 16.2324 49.7915C14.6385 48.6707 13.1891 47.3839 11.8959 45.9229C11.8707 45.8946 11.8496 45.8621 11.8395 45.8488C12.1019 45.6421 12.359 45.4402 12.5995 45.2501C13.3087 45.9314 14.029 46.6795 14.8076 47.3605C18.3043 50.4182 22.351 52.3209 26.9297 53.0836C27.2257 53.1328 27.5261 53.159 27.8213 53.2113C27.9981 53.2425 28.208 53.1776 28.2824 53.4768C28.3206 53.6313 28.535 53.5652 28.6756 53.4558C28.7595 53.3903 28.8806 53.3267 28.9804 53.3333C30.8753 53.4628 32.7594 53.3856 34.6367 53.0964C34.7496 53.0787 34.8819 53.1362 34.9955 53.1822C35.1883 53.2601 35.3444 53.2736 35.4424 53.0451C35.4633 52.9967 35.5245 52.9463 35.5762 52.9331C36.1214 52.7957 36.6688 52.6651 37.2157 52.5357C37.2698 52.5228 37.3412 52.511 37.384 52.5351C37.5587 52.6344 37.6429 52.5512 37.7735 52.429C37.8979 52.313 38.0995 52.2729 38.2724 52.2174C41.0533 51.3299 43.5854 49.9742 45.8724 48.1605C49.0577 45.6342 51.4572 42.4976 53.1015 38.7793C53.2936 38.3447 53.4625 37.9004 53.6512 37.438C53.8761 37.5261 54.0601 37.4448 54.096 37.2098C54.1115 37.1067 53.9797 36.9813 53.9076 36.854C54.1704 35.7707 54.4441 34.631 54.7288 33.4944C54.7462 33.4259 54.8455 33.3447 54.9187 33.3297C55.1935 33.2746 55.4732 33.2453 55.8155 33.1972C55.7097 33.7388 55.6111 34.2434 55.5087 34.7674C55.3455 34.7414 55.2071 34.7196 55.0414 34.6927C54.9827 34.9994 54.9952 35.2643 55.1857 35.5141C55.2363 35.5808 55.2579 35.7051 55.2354 35.7879C54.5951 38.1353 53.6284 40.3415 52.3475 42.4072C50.6563 45.1347 48.527 47.463 45.9592 49.3852C43.8398 50.9713 41.5397 52.2271 39.0175 53.0328C37.7549 53.4361 36.4522 53.7124 35.1671 54.0435C35.0648 54.0696 34.9572 54.0747 34.8551 54.0891C34.6697 53.6875 34.6087 53.689 34.2685 53.9828C34.1252 54.1067 33.9314 54.223 33.7494 54.2433C31.328 54.5181 28.9122 54.4731 26.5082 54.0506C26.4731 54.0443 26.4391 54.0326 26.3578 54.011L26.3591 54.012ZM50.3607 44.1994C50.6991 44.2704 50.8931 44.1848 50.8973 43.9341C50.899 43.8371 50.7859 43.6855 50.6916 43.6515C50.5478 43.6004 50.3676 43.9053 50.3607 44.1994ZM52.1688 41.0268C52.0659 41.2412 51.9879 41.3648 51.9533 41.5C51.9439 41.5379 52.1097 41.6621 52.1161 41.657C52.238 41.5485 52.3539 41.4307 52.4516 41.3008C52.4591 41.2909 52.3186 41.1709 52.1689 41.0273L52.1688 41.0268ZM24.8327 52.9271C24.6068 52.9576 24.4119 53.008 24.3885 53.2602C24.3863 53.2824 24.5779 53.3634 24.6642 53.3454C24.8734 53.3006 24.9909 53.1774 24.8327 52.9271V52.9271ZM41.2138 51.4035L41.258 51.5459C41.3956 51.5413 41.5339 51.5366 41.6716 51.532L41.6509 51.1043C41.6192 51.0923 41.587 51.0809 41.5553 51.0688C41.4415 51.1804 41.3275 51.2913 41.2137 51.4029L41.2138 51.4035Z" fill="#C7C9D9"/>
<path d="M16.4584 39.7676L16.3175 38.7651C16.4271 38.7444 16.5273 38.7203 16.6289 38.7061C26.7836 37.2783 36.9391 35.8522 47.0928 34.4175C47.3832 34.3767 47.4562 34.4608 47.4858 34.7298C47.5584 35.3932 47.571 35.395 46.91 35.4879C38.4484 36.6771 29.9872 37.865 21.5255 39.0537C19.9599 39.2737 18.3945 39.4949 16.829 39.7155C16.7159 39.7314 16.6027 39.7473 16.4584 39.7676V39.7676ZM27.138 38.2295C27.4922 37.8594 27.5068 37.7205 27.2381 37.4002C26.8488 37.629 26.8061 37.937 27.138 38.2295ZM21.4654 38.8315C21.645 38.7024 21.9025 38.6533 21.817 38.3721C21.8016 38.3212 21.5593 38.2727 21.4849 38.3209C21.3009 38.4399 21.2808 38.6238 21.4654 38.8315ZM24.17 38.1671C24.2025 38.1725 24.235 38.1774 24.2676 38.1828C24.2937 38.0966 24.3671 37.9777 24.3347 37.9316C24.286 37.8617 24.1649 37.8422 24.0745 37.8018C24.0572 37.8255 24.0399 37.8491 24.0233 37.8733C24.0724 37.9714 24.1209 38.069 24.17 38.1671Z" fill="#C7C9D9"/>
<path d="M45.3095 19.283L14.2102 23.6537L14.0733 22.6796C14.1743 22.6607 14.2831 22.6354 14.3934 22.6199C21.7815 21.5827 29.1703 20.5467 36.5583 19.5089C39.3153 19.1215 42.0731 18.7351 44.8285 18.3354C45.1112 18.2945 45.2139 18.368 45.224 18.645C45.2311 18.8463 45.2763 19.0464 45.3095 19.283ZM36.5487 20.027C36.6613 19.8861 36.7348 19.7932 36.809 19.7008C36.7353 19.6545 36.64 19.5541 36.5915 19.5733C36.4816 19.6165 36.3941 19.7184 36.2979 19.7962C36.3648 19.8582 36.4318 19.9201 36.5482 20.0277L36.5487 20.027Z" fill="#C7C9D9"/>
<path d="M49.8782 39.6178L49.9379 40.0423C50.0117 40.0479 50.0849 40.0535 50.1724 40.0607C50.1617 40.0976 50.1577 40.1365 50.1402 40.1667C49.3772 41.5025 48.4813 42.7427 47.46 43.8907C46.4239 45.055 45.2845 46.1082 44.0266 47.0299C43.8232 47.1788 43.6191 47.3267 43.4083 47.4642C43.2346 47.5771 43.0937 47.7521 42.8208 47.6365C42.7245 47.5957 42.491 47.7271 42.4024 47.8427C41.6996 48.7685 40.6174 49.0686 39.6424 49.5413C39.3702 49.6733 39.0583 49.7201 38.7727 49.8281C38.3613 49.9838 37.9661 50.1874 37.5482 50.3222C35.9642 50.8339 34.3413 51.1652 32.6799 51.2854C31.9998 51.3344 31.3168 51.3714 30.6349 51.3658C29.9282 51.3595 29.2194 51.3217 28.5169 51.2488C27.824 51.1775 27.1324 51.0688 26.4492 50.9324C25.7661 50.7966 25.0847 50.6358 24.4177 50.434C21.658 49.6003 19.1463 48.2864 16.8922 46.4809C15.5304 45.39 14.3044 44.1643 13.2392 42.7804C13.1406 42.6522 13.0751 42.4755 13.0566 42.3148C13.0357 42.1319 12.9606 42.0457 12.8017 41.9713C12.6631 41.9064 12.5115 41.8121 12.4311 41.6884C11.9735 40.9829 11.5353 40.2647 11.0861 39.544C11.554 39.3467 11.6018 39.3641 11.8114 39.7293C14.4281 44.2867 18.1773 47.5325 23.0716 49.4258C26.7656 50.8549 30.5842 51.2142 34.4797 50.5417C38.9839 49.7642 42.8732 47.7536 46.1387 44.5418C46.3145 44.3685 46.5364 44.2388 46.6964 44.0535C47.0669 43.6233 47.4349 43.1882 47.7619 42.7252C48.4337 41.7755 49.0781 40.8067 49.733 39.8452C49.77 39.7905 49.8038 39.7332 49.8769 39.6168L49.8782 39.6178Z" fill="#C7C9D9"/>
<path d="M35.1988 46.2583C34.6015 46.0379 34.0704 45.8566 33.5525 45.6439C33.2851 45.534 33.0781 45.5353 32.8406 45.7262C32.3962 46.083 31.9248 46.4058 31.4049 46.7868C31.4094 46.5337 31.4086 46.3398 31.4179 46.1462C31.4388 45.7003 31.4746 45.2552 31.482 44.8094C31.4837 44.7172 31.4091 44.5926 31.3316 44.535C30.8549 44.1844 30.3675 43.8495 29.8839 43.5081C29.8473 43.482 29.815 43.4493 29.74 43.3844C30.3511 43.2171 30.9139 43.046 31.4858 42.9137C31.7475 42.8533 31.8716 42.7273 31.9454 42.4734C32.1067 41.9157 32.301 41.3676 32.5004 40.7591C32.7804 41.1722 33.0367 41.5426 33.2849 41.9177C33.7124 42.5636 33.7103 42.5615 34.4775 42.5416C34.9286 42.5301 35.3804 42.5321 35.9 42.5269C35.4908 43.0292 35.1315 43.4837 34.7561 43.9252C34.5935 44.1167 34.5211 44.2803 34.6316 44.5431C34.815 44.9804 34.9432 45.4407 35.0926 45.8922C35.1254 45.9914 35.1514 46.0927 35.1993 46.2577L35.1988 46.2583ZM34.2808 43.9318C34.3945 43.7937 34.4718 43.6991 34.5497 43.6044C34.4643 43.5574 34.3629 43.4561 34.2981 43.4764C34.1964 43.5072 34.1199 43.62 34.0326 43.6983C34.101 43.7624 34.1689 43.8266 34.2815 43.9323L34.2808 43.9318Z" fill="#C7C9D9"/>
<path d="M28.3229 11.1192C28.6927 11.6559 29.0404 12.1491 29.3753 12.6511C29.4811 12.8091 29.5847 12.8889 29.7943 12.8807C30.4103 12.8572 31.0276 12.8684 31.7195 12.8655C31.3474 13.3301 31.0425 13.7658 30.6797 14.1459C30.4057 14.4328 30.3663 14.6843 30.5157 15.0437C30.7157 15.5247 30.8552 16.0312 31.0432 16.594C30.596 16.4321 30.1873 16.3345 29.8294 16.1423C29.2431 15.8283 28.7634 15.8745 28.2799 16.3465C27.9921 16.6276 27.6273 16.8299 27.2962 17.067C27.2898 17.0714 27.2776 17.0684 27.2275 17.0719C27.2483 16.5711 27.2281 16.0673 27.3006 15.5776C27.3681 15.1198 27.2283 14.8451 26.8336 14.621C26.4472 14.4016 26.0971 14.1181 25.7325 13.8609C25.6893 13.8304 25.6545 13.7881 25.5805 13.7177C26.103 13.5735 26.5785 13.4093 27.0681 13.3157C27.5044 13.2326 27.7524 13.0456 27.8504 12.5865C27.9552 12.0969 28.1535 11.6272 28.3216 11.1188L28.3229 11.1192ZM29.3687 14.2087C29.542 14.1265 29.7104 14.0468 29.8207 13.9942C29.9153 14.1059 29.9875 14.2515 30.0444 14.2458C30.1565 14.2348 30.285 14.1607 30.361 14.0733C30.4228 14.0021 30.4353 13.873 30.4355 13.7697C30.4358 13.6883 30.3989 13.5513 30.3511 13.538C30.2783 13.5181 30.1346 13.5596 30.1051 13.6174C30.0133 13.7984 29.8853 13.7792 29.7223 13.7673C29.4254 13.7448 29.3235 13.8788 29.3681 14.2088L29.3687 14.2087Z" fill="#C7C9D9"/>
<path d="M50.4798 18.5461C49.9892 18.6657 49.9919 18.6642 49.7661 18.2683C49.627 18.0242 49.484 17.7812 49.3335 17.544C49.1927 17.3213 49.008 17.1126 49.3057 16.7681C48.7809 16.879 48.68 16.5175 48.4874 16.2697C48.0469 15.7028 47.6037 15.1381 47.1946 14.6146C47.2126 14.4534 47.2274 14.3204 47.2422 14.1867C47.1097 14.1777 46.9772 14.1691 46.7941 14.1565C46.2562 13.6505 45.6786 13.0758 45.0681 12.5393C43.1464 10.8499 40.9879 9.54004 38.5929 8.64977C37.5606 8.26634 36.4836 8.00422 35.4246 7.69416C35.2429 7.64124 35.0542 7.62647 35.1113 7.3542C35.1198 7.31407 35.0451 7.25614 35.0087 7.20641C34.9626 7.24709 34.9019 7.27982 34.8749 7.33079C34.844 7.38763 34.8437 7.46081 34.8217 7.56773C34.4878 7.4495 34.0909 7.579 33.8759 7.29306C33.6552 7.30993 33.4775 7.34433 33.3029 7.33348C32.417 7.27926 31.5319 7.21373 30.6502 7.15185C30.6808 7.01365 30.7155 6.85894 30.7509 6.70002C38.7563 6.52871 46.762 11.2973 50.4798 18.5461V18.5461Z" fill="#C7C9D9"/>
<path d="M35.8878 10.8108C36.226 11.3113 36.5249 11.7376 36.805 12.176C36.9061 12.334 37.0178 12.3962 37.2037 12.3913C37.741 12.3771 38.2789 12.3806 38.8753 12.377C38.5869 12.7378 38.3466 13.0883 38.055 13.3883C37.7516 13.701 37.6527 13.9904 37.8554 14.4102C38.0346 14.7808 38.124 15.1947 38.2753 15.6553C37.8097 15.4884 37.3831 15.3684 36.9869 15.1834C36.6183 15.0117 36.3367 15.0395 36.0271 15.3118C35.7024 15.5981 35.3294 15.8299 34.9218 16.126C34.9319 15.7996 34.8976 15.5184 34.9564 15.2582C35.1274 14.5016 34.8955 13.9786 34.1775 13.653C33.9285 13.54 33.7207 13.335 33.4384 13.1317C33.9856 12.9828 34.4726 12.8418 34.9643 12.7214C35.1999 12.6635 35.3446 12.5665 35.4119 12.3081C35.5361 11.8306 35.7087 11.3663 35.8884 10.8107L35.8878 10.8108ZM36.3706 14.3629C36.1124 14.4859 35.9595 14.7303 36.0735 14.8541C36.1242 14.9095 36.2941 14.9369 36.3449 14.8962C36.5385 14.741 36.488 14.5493 36.3706 14.3629V14.3629Z" fill="#C7C9D9"/>
<path d="M28.0781 44.1524C27.7071 44.6163 27.3927 45.0344 27.0486 45.4261C26.9009 45.5937 26.9021 45.7363 26.9684 45.9234C27.1382 46.4068 27.2973 46.8941 27.4805 47.4393C27.0451 47.2816 26.6425 47.1778 26.2806 46.9939C25.8431 46.7716 25.5058 46.8179 25.1452 47.1505C24.8435 47.4288 24.4807 47.6414 24.1098 47.9089C24.1368 47.3642 24.1552 46.862 24.1919 46.3614C24.1981 46.2797 24.3071 46.2089 24.3269 46.1236C24.3572 45.9913 24.3515 45.8505 24.3611 45.7135C24.2531 45.7199 24.145 45.7298 24.0369 45.7314C23.9529 45.7326 23.8486 45.7531 23.7877 45.7133C23.4167 45.4694 23.0558 45.2098 22.6343 44.9163C23.0636 44.7958 23.4324 44.6514 23.8148 44.5953C24.3391 44.5186 24.6246 44.2668 24.724 43.7385C24.7914 43.3804 24.9453 43.0385 25.0605 42.6896C25.0629 42.6816 25.0733 42.676 25.1196 42.6288C25.3428 43.0734 25.7594 43.3735 25.8399 43.909C25.8563 44.017 26.1626 44.1444 26.3411 44.1535C26.9001 44.1811 27.4619 44.157 28.0787 44.1523L28.0781 44.1524Z" fill="#C7C9D9"/>
<path d="M37.6049 42.8003C38.2028 42.6355 38.7268 42.5023 39.2421 42.3408C39.3566 42.3052 39.4791 42.1883 39.5295 42.0774C39.6334 41.8493 39.67 41.5905 39.7734 41.3625C39.8763 41.1357 40.0277 40.9309 40.1859 40.6704C40.4825 41.1053 40.7327 41.4949 41.01 41.8641C41.0811 41.9591 41.235 42.0406 41.3532 42.0441C41.8939 42.0589 42.4358 42.0441 43.0508 42.0391C42.6545 42.5319 42.3015 42.9731 41.9425 43.4099C41.9174 43.4406 41.8455 43.4483 41.7987 43.4419C41.4453 43.3949 41.3244 43.5481 41.4498 43.9086C41.5971 43.8425 41.7432 43.7759 41.9087 43.7013C42.088 44.2395 42.2596 44.7527 42.45 45.324C42.0227 45.17 41.6198 45.0679 41.259 44.8839C40.8209 44.6606 40.4794 44.7103 40.1179 45.0366C39.8185 45.3069 39.4669 45.5191 39.139 45.7575C39.1093 45.7475 39.0791 45.7376 39.0494 45.7276C39.1081 45.3873 39.1693 45.0478 39.2232 44.7064C39.2334 44.6406 39.2211 44.5698 39.2087 44.5031C39.1957 44.4312 39.1421 44.3556 39.1556 44.2924C39.2211 43.9882 39.0902 43.8149 38.8362 43.6577C38.434 43.4093 38.0581 43.1183 37.6054 42.7997L37.6049 42.8003Z" fill="#C7C9D9"/>
<path d="M11.6199 18.6017C11.5736 18.4607 11.5332 18.3366 11.4922 18.212C11.4263 18.3216 11.3689 18.437 11.2919 18.5381C11.2302 18.6187 11.1448 18.6808 11.0124 18.7107C11.146 18.463 11.2751 18.2131 11.4138 17.9688C12.5062 16.0487 13.8532 14.3282 15.4496 12.8032C15.5752 12.6829 15.6856 12.6102 15.8752 12.6525C16.0989 12.7025 16.3248 12.6849 16.4659 12.4026C16.3741 12.34 16.2764 12.2735 16.1352 12.1772C20.2199 8.66271 24.9485 6.86446 30.323 6.70841C30.1061 6.95773 29.9418 7.2256 29.5269 7.24734C26.1172 7.42219 22.9327 8.38349 19.9704 10.0745C17.8123 11.3062 15.927 12.8741 14.3 14.7555C14.2084 14.8616 14.0628 14.9234 13.9364 14.996C13.773 15.0897 13.61 15.1698 13.685 15.4141C13.7011 15.4661 13.6493 15.5495 13.6106 15.6057C13.1346 16.3025 12.6905 17.025 12.1613 17.6792C11.9261 17.97 11.8982 18.3538 11.6212 18.6027L11.6199 18.6017Z" fill="#C7C9D9"/>
<path d="M20.9218 12.9266C21.252 13.4164 21.5491 13.8253 21.8087 14.2571C21.9354 14.4676 22.088 14.5104 22.3083 14.5031C22.8182 14.4869 23.3284 14.4895 23.9098 14.4839C23.5214 14.9667 23.1725 15.3997 22.8248 15.832C22.4109 15.5551 22.2731 15.5674 21.924 15.9403C21.7469 16.1292 21.5928 16.3396 21.4255 16.5442C21.9324 16.7667 22.3002 16.6695 22.7642 16.1761C22.8424 16.3969 22.9135 16.5975 22.9739 16.7672C22.9032 16.8762 22.851 16.9567 22.7987 17.0372C22.8712 17.0671 22.9464 17.0913 23.0147 17.1289C23.0587 17.1534 23.1104 17.1898 23.127 17.2328C23.1856 17.3856 23.2307 17.5433 23.3036 17.769C22.8597 17.6096 22.4484 17.5058 22.08 17.3186C21.6559 17.1028 21.3336 17.1717 20.9893 17.4737C20.6785 17.7463 20.3229 17.9679 19.9431 18.2436C19.9683 17.6485 20.0004 17.1019 20.006 16.5555C20.0071 16.4456 19.9356 16.297 19.8486 16.2308C19.4629 15.937 19.0589 15.6676 18.6622 15.3877C18.6106 15.3513 18.5639 15.3077 18.4826 15.2407C19.0161 15.0949 19.5053 14.9483 20.0015 14.8308C20.2351 14.7756 20.3617 14.6717 20.4299 14.432C20.5692 13.9406 20.7454 13.4599 20.9214 12.9279L20.9218 12.9266Z" fill="#C7C9D9"/>
<path d="M12.1532 44.6762C11.8989 44.9025 11.6561 45.1183 11.3959 45.3489C10.0264 43.7176 8.86611 41.9288 7.91432 39.9315C8.25779 39.8832 8.56681 39.8327 8.87752 39.8026C8.93038 39.7975 9.01722 39.8667 9.04514 39.923C9.88983 41.6357 10.9534 43.2051 12.1544 44.6843C12.16 44.6912 12.1604 44.7023 12.152 44.6758L12.1532 44.6762Z" fill="#C7C9D9"/>
<path d="M52.677 33.6473C52.4097 34.5607 52.169 35.4074 51.9123 36.2486C51.8046 36.6006 51.6711 36.9449 51.5293 37.2851C51.477 37.411 51.365 37.5105 51.2871 37.6265C51.2408 37.6949 51.1697 37.7757 51.1754 37.8451C51.2085 38.2486 51.0444 38.5218 50.7186 38.7587C50.4484 38.9553 50.2343 39.229 49.9366 39.5274C50.194 38.9922 50.4229 38.5312 50.6393 38.0643C51.2446 36.7583 51.7127 35.4025 52.0172 33.996C52.0983 33.6224 52.3484 33.7011 52.6775 33.6472L52.677 33.6473Z" fill="#C7C9D9"/>
<path d="M10.8287 19.066C11.0272 19.4816 11.1716 19.1352 11.3953 19.0636C11.2786 19.3059 11.1792 19.5116 11.0812 19.7147C10.9713 19.7119 10.8703 19.7095 10.6877 19.7045C11.022 20.0769 10.7806 20.3657 10.6632 20.6694C10.5302 21.0131 10.4508 21.3912 10.2543 21.6931C10.0354 22.0294 10.0492 22.4079 9.92641 22.7572C9.79872 23.122 9.71576 23.5035 9.62267 23.8799C9.50681 24.3498 9.51159 24.3503 8.98142 24.377C9.36665 22.5315 9.98138 20.7818 10.828 19.0655L10.8287 19.066Z" fill="#C7C9D9"/>
<path d="M10.7799 31.3751L9.05751 31.6171C9.0097 31.4435 8.94019 31.2905 8.84898 31.1582C8.75778 31.0258 8.64651 30.9173 8.51519 30.8327C8.38387 30.7481 8.23411 30.6907 8.06593 30.6605C7.89973 30.6276 7.72017 30.6248 7.52726 30.6519C7.18507 30.7 6.90175 30.8253 6.67729 31.0278C6.45512 31.23 6.29971 31.4989 6.21105 31.8345C6.12469 32.1698 6.11313 32.5626 6.17639 33.0127C6.24224 33.4812 6.36403 33.8645 6.54177 34.1627C6.72148 34.4583 6.94435 34.6694 7.21038 34.7959C7.47837 34.9198 7.78002 34.9582 8.11531 34.9111C8.30363 34.8846 8.47133 34.8365 8.61842 34.7666C8.76781 34.6965 8.89461 34.6072 8.99882 34.4989C9.10501 34.3879 9.18664 34.2606 9.2437 34.1167C9.30274 33.9702 9.33525 33.8099 9.34122 33.6358L11.0651 33.4041C11.0791 33.7206 11.0316 34.0411 10.9227 34.3655C10.816 34.6896 10.6494 34.9953 10.4227 35.2824C10.1958 35.5672 9.90433 35.8096 9.54835 36.0095C9.19467 36.2091 8.77555 36.3429 8.29098 36.411C7.65255 36.5007 7.06102 36.441 6.51641 36.2318C5.97377 36.02 5.51869 35.6648 5.15119 35.1661C4.78368 34.6674 4.54554 34.0311 4.43677 33.2572C4.32768 32.4809 4.38334 31.8022 4.60374 31.2208C4.82415 30.6395 5.16728 30.1733 5.63314 29.8221C6.099 29.4709 6.64541 29.2513 7.27236 29.1631C7.69952 29.1031 8.10291 29.1073 8.48255 29.1757C8.86186 29.2419 9.20529 29.3692 9.51282 29.5579C9.82004 29.7442 10.0828 29.9894 10.3012 30.2936C10.5196 30.5978 10.6792 30.9583 10.7799 31.3751ZM18.551 31.2735C18.6601 32.0498 18.6033 32.7287 18.3806 33.3103C18.1579 33.892 17.8113 34.3587 17.3408 34.7106C16.8727 35.0621 16.3228 35.2822 15.6913 35.371C15.0574 35.46 14.4669 35.399 13.9197 35.1879C13.3724 34.9767 12.9118 34.6234 12.5377 34.128C12.1656 33.6299 11.9252 32.994 11.8164 32.22C11.7073 31.4438 11.763 30.765 11.9834 30.1837C12.2061 29.6021 12.5515 29.1355 13.0197 28.784C13.4878 28.4325 14.0388 28.2122 14.6727 28.1231C15.3042 28.0343 15.8934 28.0944 16.4403 28.3032C16.9895 28.5118 17.4513 28.8649 17.8257 29.3626C18.2001 29.8603 18.4419 30.4973 18.551 31.2735ZM16.8079 31.5185C16.7434 31.0592 16.6234 30.6803 16.4479 30.3818C16.2748 30.0829 16.055 29.8691 15.7887 29.7402C15.5246 29.6111 15.2227 29.5704 14.8828 29.6181C14.5452 29.6656 14.2661 29.7879 14.0456 29.9852C13.8251 30.1825 13.6717 30.4488 13.5853 30.7841C13.5012 31.1191 13.4915 31.5162 13.556 31.9755C13.6206 32.4348 13.7394 32.8139 13.9126 33.1128C14.088 33.4113 14.3089 33.625 14.5753 33.7538C14.8416 33.8827 15.1436 33.9234 15.4812 33.8759C15.821 33.8281 16.1001 33.7058 16.3183 33.5088C16.5388 33.3116 16.6911 33.0454 16.7752 32.7105C16.8616 32.3751 16.8725 31.9778 16.8079 31.5185ZM19.0508 27.6061L21.1624 27.3094L23.5676 31.4256L23.6503 31.414L24.8277 26.7943L26.9394 26.4975L27.9309 33.5524L26.2705 33.7858L25.6614 29.4522L25.6029 29.4605L24.5108 33.9874L23.4498 34.1365L21.1488 30.0618L21.0902 30.0701L21.7027 34.4277L20.0423 34.6611L19.0508 27.6061ZM28.9945 33.403L28.0029 26.348L30.9172 25.9384C31.4454 25.8642 31.9158 25.9035 32.3284 26.0563C32.7429 26.2064 33.0805 26.4505 33.3412 26.7886C33.6015 27.1244 33.7657 27.5346 33.8338 28.0191C33.9022 28.506 33.8553 28.947 33.693 29.3422C33.5327 29.7347 33.2703 30.0585 32.9056 30.3135C32.541 30.5685 32.0889 30.7339 31.5492 30.8097L29.751 31.0625L29.5622 29.719L31.0434 29.5108C31.3006 29.4747 31.5091 29.3997 31.6687 29.2859C31.8307 29.1718 31.9451 29.0281 32.0121 28.8548C32.0788 28.6791 32.0969 28.4834 32.0666 28.2675C32.0359 28.0493 31.9647 27.8673 31.8528 27.7214C31.7407 27.5733 31.5912 27.4678 31.4044 27.4051C31.2176 27.3423 30.9967 27.3289 30.7418 27.3647L29.9013 27.4828L30.6996 33.1633L28.9945 33.403ZM35.3225 32.5136L34.331 25.4586L36.0362 25.219L36.8331 30.8891L39.7681 30.4767L39.9627 31.8615L35.3225 32.5136ZM40.8454 31.7374L39.8539 24.6825L44.7731 23.9911L44.9677 25.3759L41.7537 25.8276L41.957 27.2744L44.9196 26.8581L45.1147 28.2463L42.1522 28.6627L42.356 30.113L45.57 29.6613L45.7646 31.0461L40.8454 31.7374ZM45.8048 25.2583L45.6102 23.8735L51.5731 23.0354L51.7677 24.4202L49.6285 24.7209L50.4254 30.391L48.7444 30.6273L47.9475 24.9571L45.8048 25.2583ZM53.3974 29.9733L52.4059 22.9184L57.3251 22.227L57.5197 23.6119L54.3057 24.0636L54.509 25.5104L57.4716 25.094L57.6667 26.4823L54.7041 26.8986L54.908 28.3489L58.122 27.8972L58.3166 29.282L53.3974 29.9733Z" fill="#C7C9D9"/>
</svg>
