<svg width="226" height="166" viewBox="0 0 226 166" fill="none" xmlns="http://www.w3.org/2000/svg">
<path d="M53.0148 163.772C52.6722 163.493 52.0501 163.556 51.7233 163.266C51.3964 162.976 51.1592 162.57 50.8482 162.27C50.5372 161.969 50.4634 161.421 50.1681 161.105C49.8729 160.789 49.2192 160.778 48.9398 160.446C48.6604 160.114 48.0911 159.982 47.8275 159.629C47.5639 159.276 47.7695 158.575 47.5218 158.211C47.274 157.847 46.6361 157.726 46.4094 157.351C46.1828 156.977 46.3515 156.366 46.1511 155.976C45.9508 155.585 45.3815 155.364 45.2022 154.963C45.023 154.563 45.2918 153.972 45.1337 153.561C44.9755 153.15 45.0968 152.665 44.965 152.243C44.8332 151.821 44.285 151.537 44.1795 151.11C44.0741 150.683 44.1057 150.235 44.0214 149.797C43.937 149.36 43.5417 148.985 43.4784 148.548C43.4151 148.11 43.7314 147.641 43.6945 147.198C43.6576 146.755 43.8632 146.328 43.8527 145.88C43.8421 145.432 43.7367 145.021 43.742 144.578C43.7472 144.135 43.0936 143.677 43.1199 143.234C43.1463 142.791 44.0794 142.438 44.1268 141.995C44.1742 141.552 43.8685 141.099 43.9265 140.656C43.9845 140.213 43.8579 139.765 43.937 139.328C44.0161 138.89 44.2006 138.489 44.2955 138.052C44.3904 137.614 44.5749 137.224 44.6856 136.792C44.7963 136.36 44.7647 135.912 44.8859 135.479C45.0072 135.047 45.5765 134.778 45.7136 134.351C45.8506 133.924 45.8032 133.46 45.9403 133.049C46.0773 132.638 45.6714 132.037 45.8085 131.62C45.9455 131.204 46.7363 131.009 46.8786 130.598C47.021 130.187 46.5307 129.543 46.6783 129.132C46.8259 128.721 47.7274 128.584 47.8802 128.178C48.0331 127.772 47.4743 127.087 47.6325 126.681C47.7906 126.275 48.0226 125.89 48.186 125.484C48.3494 125.078 48.4074 124.625 48.5761 124.219C48.7448 123.813 49.04 123.46 49.214 123.059C49.3879 122.659 50.0363 122.464 50.2156 122.068C50.3948 121.673 50.2894 121.14 50.4739 120.745C50.6584 120.35 50.7428 119.902 50.9325 119.506C51.1223 119.111 51.66 118.889 51.8551 118.499C52.0501 118.109 51.8867 117.535 52.087 117.144C52.2874 116.754 52.8198 116.543 53.0254 116.159C53.231 115.774 52.8356 115.057 53.0465 114.672C53.2573 114.287 53.7634 114.066 53.9796 113.686C54.1957 113.307 54.2853 112.848 54.512 112.474C54.7387 112.099 54.8757 111.662 55.1024 111.293C55.3291 110.924 55.6401 110.586 55.8721 110.223C56.104 109.859 56.4045 109.516 56.647 109.158C56.8895 108.799 57.7119 108.826 57.9597 108.467C58.2074 108.109 58.3287 107.661 58.5817 107.308C58.8348 106.954 58.7979 106.38 59.0614 106.032C59.325 105.684 59.7099 105.426 59.9787 105.083C60.2476 104.74 60.3477 104.255 60.6271 103.918C60.9065 103.58 61.3968 103.417 61.6762 103.085C61.9556 102.753 61.924 102.141 62.2139 101.814C62.5038 101.488 63.263 101.582 63.5582 101.261C63.8534 100.939 64.1222 100.597 64.4227 100.28C64.7232 99.9641 64.7549 99.3842 65.0659 99.0784C65.3769 98.7727 65.7617 98.5354 66.078 98.235C66.3943 97.9345 66.4049 97.2966 66.7265 97.0014C67.048 96.7062 67.6016 96.6535 67.9284 96.3688C68.2552 96.0841 68.8562 96.1105 69.1936 95.8258C69.531 95.5411 69.9949 95.4304 70.3323 95.1563C70.6697 94.8822 70.4219 93.8542 70.7698 93.5906C71.1178 93.327 71.9138 93.6539 72.267 93.3956C72.6202 93.1373 72.7203 92.5363 73.0788 92.2833C73.4373 92.0302 73.6534 91.5663 74.0172 91.3238C74.3809 91.0813 75.1242 91.4134 75.4932 91.1815C75.8623 90.9495 76.2629 90.7808 76.6372 90.5541C77.0115 90.3275 77.1222 89.6632 77.5017 89.4418C77.8813 89.2204 78.361 89.1782 78.7406 88.9674C79.1202 88.7565 79.5999 88.7196 79.9847 88.514C80.3695 88.3084 80.6858 87.971 81.0759 87.776C81.466 87.5809 81.7191 87.0959 82.1145 86.9061C82.5098 86.7164 82.9896 86.7111 83.3902 86.5319C83.7908 86.3526 84.2126 86.2314 84.6132 86.0574C85.0139 85.8834 85.3144 85.4617 85.7203 85.2983C86.1262 85.1349 86.5585 85.0347 86.9697 84.8766C87.3809 84.7184 87.9555 85.0294 88.3719 84.8766C88.7884 84.7237 89.1152 84.3652 89.5264 84.2229C89.9376 84.0805 90.275 83.7062 90.6915 83.5745C91.1079 83.4427 91.4769 83.1527 91.8987 83.0209C92.3204 82.8891 92.953 83.5217 93.3747 83.4005C93.7965 83.2792 94.1971 83.1264 94.6241 83.0157C95.0511 82.905 95.4412 82.7099 95.8683 82.6045C96.2953 82.499 96.6537 82.1458 97.0807 82.0457C97.5077 81.9455 97.9347 81.8664 98.3617 81.7715C98.7888 81.6767 99.2579 81.8032 99.6902 81.7188C100.122 81.6345 100.423 80.907 100.855 80.8226C101.288 80.7383 101.757 80.8964 102.189 80.8226C102.616 80.7488 103.101 80.9913 103.533 80.9228C103.966 80.8543 104.324 80.306 104.762 80.2428C105.199 80.1795 105.7 80.6698 106.137 80.6118C106.575 80.5538 107.023 80.6908 107.461 80.6381C107.898 80.5854 108.315 80.4747 108.752 80.4325C109.19 80.3904 109.611 80.306 110.049 80.2691C110.487 80.2322 110.898 79.9897 111.341 79.9581C111.783 79.9265 112.216 79.9897 112.653 79.9581C113.091 79.9265 113.497 79.4467 113.94 79.4204C114.382 79.394 114.809 79.257 115.252 79.2411C115.695 79.2201 116.159 79.9106 116.596 79.8948C117.034 79.879 117.472 79.7261 117.904 79.7209C118.336 79.7156 118.779 79.6787 119.216 79.6787C119.654 79.6787 120.097 79.568 120.534 79.5733C120.972 79.5785 121.431 79.0883 121.868 79.0988C122.306 79.1093 122.748 79.2886 123.186 79.3097C123.624 79.3308 124.082 79.1621 124.52 79.1884C124.957 79.2148 125.358 79.8158 125.79 79.8527C126.223 79.8896 126.655 80.0055 127.092 80.0477C127.53 80.0899 127.983 80.0003 128.416 80.053C128.848 80.1057 129.364 79.6365 129.797 79.6945C130.229 79.7525 130.524 80.7594 130.951 80.8279C131.378 80.8964 131.821 80.9228 132.248 81.0072C132.675 81.0915 133.25 80.48 133.677 80.5696C134.104 80.6592 134.51 80.9123 134.931 81.0124C135.353 81.1126 135.706 81.5449 136.128 81.6556C136.55 81.7663 136.998 81.8032 137.42 81.9191C137.841 82.0351 138.316 81.993 138.732 82.1247C139.149 82.2565 139.56 82.4305 139.976 82.5676C140.393 82.7046 140.757 82.9893 141.168 83.1422C141.579 83.295 142.122 83.1105 142.533 83.2687C142.944 83.4268 143.297 83.7379 143.698 83.9066C144.099 84.0753 144.378 84.5444 144.774 84.7237C145.169 84.9029 145.617 84.9925 146.007 85.1876C146.397 85.3826 146.645 85.8571 147.03 86.0627C147.415 86.2683 148 86.1048 148.385 86.321C148.769 86.5371 148.97 87.0538 149.344 87.2804C149.718 87.5071 150.235 87.5071 150.599 87.7443C150.962 87.9816 151.374 88.1661 151.732 88.4138C152.091 88.6616 152.143 89.3417 152.502 89.6C152.86 89.8583 153.298 89.9795 153.646 90.2484C153.994 90.5172 154.563 90.5014 154.9 90.7756C155.238 91.0497 155.554 91.3607 155.886 91.6454C156.218 91.93 156.366 92.4203 156.693 92.7155C157.02 93.0107 157.505 93.1267 157.821 93.4325C158.137 93.7382 158.448 94.044 158.754 94.3603C159.06 94.6766 159.355 94.9982 159.655 95.3197C159.956 95.6413 160.198 96.0103 160.488 96.3372C160.778 96.664 161.047 97.0067 161.332 97.3441C161.617 97.6814 161.711 98.1559 161.986 98.5038C162.26 98.8517 162.418 99.2629 162.687 99.6109C162.956 99.9588 163.451 100.127 163.709 100.481C163.968 100.834 164.685 100.871 164.932 101.235C165.18 101.598 165.359 102.015 165.597 102.384C165.834 102.753 165.507 103.48 165.739 103.855C165.971 104.229 166.155 104.619 166.377 104.999C166.598 105.378 166.862 105.721 167.078 106.106C167.294 106.49 168.111 106.538 168.322 106.923C168.533 107.308 168.164 107.993 168.364 108.388C168.565 108.784 168.934 109.079 169.123 109.474C169.313 109.87 169.73 110.154 169.914 110.555C170.099 110.956 170.078 111.441 170.257 111.846C170.436 112.252 170.378 112.743 170.552 113.149C170.726 113.554 171.343 113.771 171.506 114.176C171.67 114.582 171.395 115.157 171.554 115.568C171.712 115.979 172.445 116.169 172.592 116.586C172.74 117.002 172.919 117.403 173.061 117.819C173.204 118.236 173.467 118.615 173.604 119.032C173.741 119.448 173.641 119.944 173.773 120.365C173.905 120.787 173.625 121.325 173.752 121.747C173.878 122.168 174.448 122.458 174.564 122.88C174.68 123.302 174.432 123.829 174.548 124.251C174.664 124.672 174.548 125.152 174.659 125.579C174.769 126.006 175.518 126.264 175.623 126.697C175.729 127.129 175.808 127.556 175.903 127.988C175.998 128.421 176.293 128.805 176.388 129.232C176.483 129.659 176.346 130.139 176.435 130.571C176.525 131.004 175.94 131.568 176.024 132C176.108 132.432 176.367 132.822 176.451 133.26C176.53 133.687 177.242 134.009 177.31 134.43C177.379 134.852 176.688 135.4 176.746 135.822C176.804 136.244 177.711 136.586 177.758 137.013C177.806 137.44 177.537 137.915 177.569 138.342C177.6 138.769 176.952 139.243 176.968 139.67C176.983 140.097 177.194 140.524 177.2 140.951C177.205 141.378 177.6 141.821 177.584 142.248C177.569 142.675 177.184 143.097 177.157 143.524C177.131 143.951 177.779 144.452 177.737 144.873C177.695 145.295 177.279 145.701 177.221 146.128C177.163 146.555 177.326 147.035 177.252 147.451C177.178 147.868 177.184 148.337 177.089 148.753C176.994 149.17 176.235 149.439 176.119 149.85C176.003 150.261 176.488 150.867 176.356 151.273C176.224 151.679 176.198 152.159 176.05 152.56C175.903 152.96 175.059 153.103 174.891 153.498C174.722 153.893 174.374 154.199 174.189 154.584C174.005 154.969 174.537 155.733 174.337 156.113C174.137 156.492 173.457 156.613 173.23 156.982C173.003 157.351 172.766 157.705 172.529 158.063C172.292 158.422 172.149 158.849 171.896 159.197C171.643 159.544 171.649 160.103 171.38 160.441C171.111 160.778 170.383 160.731 170.099 161.057C169.814 161.384 170.072 162.212 169.772 162.523C169.471 162.834 168.528 162.507 168.217 162.808" fill="#D8AE7E"/>
<path d="M85.3429 106.084L84.4836 107.455L83.2764 108.531L81.832 109.237L80.2188 109.311L78.6373 108.61L78.0996 106.991L78.5213 105.299L79.407 103.533L80.7934 102.183L82.6807 101.762L84.5732 102.357L85.559 104.108L85.3429 106.084Z" fill="#222222"/>
<path d="M112.501 105.568L111.568 106.907L110.382 108.003L108.927 108.694L107.303 108.847L105.78 108.024L105.242 106.448L105.564 104.729L106.444 102.953L107.873 101.603L109.781 101.208L111.647 101.856L112.617 103.57L112.501 105.568Z" fill="#222222"/>
<path d="M113.455 82.3938C113.471 81.5082 113.871 80.7701 113.819 79.7421C113.771 78.8354 113.661 77.8654 113.56 76.8638C113.471 75.9465 112.812 75.0556 112.675 74.0698C112.548 73.1473 112.912 72.1246 112.754 71.1493C112.601 70.2268 112.1 69.3359 111.916 68.3764C111.731 67.417 111.62 66.4997 111.415 65.5403C111.209 64.5808 110.93 63.6952 110.708 62.7516C110.487 61.8079 110.134 60.9328 109.891 59.9892C109.649 59.0456 109.327 58.1705 109.064 57.2374C108.8 56.3043 108.995 55.2658 108.721 54.3432C108.447 53.4207 108.32 52.456 108.025 51.5387C107.73 50.6214 107.139 49.8096 106.828 48.8976C106.517 47.9856 105.985 47.1632 105.658 46.2618C105.331 45.3603 105.294 44.3482 104.946 43.452C104.599 42.5558 104.382 41.6016 104.019 40.716C103.655 39.8303 102.685 39.1925 102.3 38.3174C101.915 37.4423 101.968 36.3563 101.557 35.497C101.146 34.6377 100.882 33.673 100.45 32.8243C100.017 31.9755 99.5008 31.1321 99.0422 30.2992C98.5836 29.4662 97.835 28.7598 97.35 27.948C96.865 27.1362 96.4169 26.2505 95.895 25.465C95.3731 24.6796 94.6878 23.9415 94.129 23.1877C93.5702 22.4338 93.0589 21.5587 92.4526 20.847C91.8147 20.0932 90.9871 19.5608 90.3281 18.9018C89.627 18.2007 89.0788 17.3888 88.3565 16.8037C87.5816 16.1816 86.659 15.8495 85.863 15.3751C85.009 14.869 84.3079 14.1362 83.4328 13.8199C82.5155 13.4825 81.5297 13.4931 80.5861 13.3824C79.6372 13.2717 78.6777 12.9923 77.713 13.1293C76.7958 13.2558 75.9523 13.8094 75.0245 14.1784C74.1757 14.5105 73.211 14.7108 72.357 15.2538C71.5926 15.7388 70.8862 16.403 70.1165 17.0673C69.426 17.6577 68.8672 18.4432 68.1713 19.1812C67.4754 19.9192 66.8165 20.6362 66.2208 21.3795C65.5829 22.1702 64.6287 22.6974 64.1016 23.4934C63.5375 24.3369 63.121 25.2594 62.6782 26.1082C62.209 26.9991 62.2828 28.0956 61.9402 28.997C61.5975 29.8985 60.9491 30.7367 60.7224 31.6909C60.4958 32.645 60.5959 33.6467 60.4905 34.6325C60.385 35.6183 60.2533 36.5514 60.2585 37.553C60.2638 38.5546 60.0635 39.5088 60.1584 40.5104C60.2533 41.512 60.5379 42.4187 60.7119 43.4151C60.8859 44.4114 60.7593 45.3919 60.9913 46.3777C61.2127 47.3108 61.8506 48.1648 62.1247 49.1348C62.3988 50.1048 62.2618 51.1275 62.5728 52.087C62.8838 53.0464 63.1158 53.9637 63.4479 54.9179C63.78 55.872 64.5549 56.589 64.9029 57.5326C65.2508 58.4762 65.4617 59.404 65.8254 60.3424C66.1786 61.2491 66.5582 62.1295 66.9483 62.9888C67.3384 63.8481 68.1449 64.5387 68.5878 65.3663C69.0306 66.194 69.2256 67.2061 69.7212 68.0074C70.2167 68.8087 70.7966 69.5995 71.3554 70.3638C71.9142 71.1282 72.183 72.1773 72.7998 72.8942C73.4272 73.627 74.2337 74.2122 74.9085 74.8817C75.5833 75.5512 76.6587 75.7884 77.3967 76.3946C78.1348 77.0009 78.8412 77.6071 79.6266 78.1501C80.4121 78.6931 81.0131 79.5155 81.8513 79.9846C82.6789 80.4538 83.7016 80.5276 84.5767 80.9283C85.4518 81.3289 86.0581 82.3358 86.9648 82.6679C87.8557 82.9895 88.8415 83.1213 89.7693 83.3796C90.6972 83.6379 91.7304 83.3111 92.6846 83.5008C93.6124 83.6854 94.4453 84.4656 95.41 84.5921C96.3747 84.7186 97.3395 84.4076 98.3094 84.4761C99.2794 84.5446 100.191 85.0296 101.161 85.0454C102.105 85.0613 103.064 84.7239 104.034 84.6922C105.004 84.6606 105.932 84.6026 106.902 84.5288C107.872 84.455 108.774 84.3496 109.738 84.2283C110.06 83.2004 110.598 82.3516 110.708 81.5398C110.867 80.3958 110.556 79.4206 110.408 78.672C110.16 77.4015 109.68 76.3894 109.064 76.0783C108.078 75.5828 106.913 76.4368 107.103 77.5808C107.208 78.1975 107.603 79.0199 108.631 79.895C109.217 80.3958 109.976 80.9652 110.961 81.5082C111.689 81.9088 112.459 82.0037 113.439 82.4149L113.455 82.3938Z" fill="#6ABC83"/>
<path d="M103.998 71.8559C102.332 70.2691 100.698 68.4293 99.3797 66.5736C98.6785 65.6406 97.8193 65.0501 96.9811 64.1803C96.2799 63.4317 95.3995 62.1771 94.7511 61.3652C93.6494 60.0368 92.8797 58.4395 91.8306 57.1163C89.9855 54.9285 88.1721 52.5246 86.5115 50.1577C85.5837 48.7343 84.4766 47.3689 83.4487 45.9878C82.7317 44.9967 82.2309 43.8738 81.6563 42.8775C81.1028 42.0446 80.4386 40.7003 79.9852 39.783C79.1312 38.4071 78.3562 36.5831 77.5444 35.3759C76.9803 34.5957 76.1738 33.7628 75.6677 32.8771C74.4447 30.6788 73.4009 28.4015 72.4941 26.103C74.0493 28.0535 75.4515 30.0515 77.0067 31.9546C78.0663 33.1354 79.4738 34.1265 80.3068 35.5499C80.8708 36.446 81.6774 37.5847 82.2678 38.4387C82.9479 39.5511 83.3432 40.268 84.1182 41.3434C85.0513 42.8511 85.784 44.1743 86.9702 45.4711C88.7678 47.7169 90.3809 50.2842 92.1153 52.6037C93.0695 54.064 94.3399 55.4346 95.136 57.0108C95.8266 58.4289 96.8598 60.1106 97.6875 61.4548C97.9036 61.8081 98.299 62.5039 98.552 62.8466C99.1214 63.6215 99.9332 64.4544 100.445 65.3401C101.098 66.4998 101.625 67.7334 102.242 68.8457C102.79 69.8368 103.476 70.8121 103.992 71.8664L103.998 71.8559Z" fill="#9BCB7C"/>
<path d="M114.193 86.2735C114.926 85.604 115.827 85.4247 116.539 84.7605C117.251 84.0963 117.957 83.3846 118.664 82.7204C119.37 82.0562 119.718 80.9649 120.419 80.2954C121.12 79.6259 122.201 79.2991 122.891 78.6243C123.582 77.9495 124.072 77.0059 124.758 76.3258C125.443 75.6458 126.213 74.9921 126.893 74.3068C127.573 73.6215 128.226 72.8518 128.901 72.1612C129.576 71.4706 130.182 70.6588 130.852 69.9629C131.521 69.2671 132.154 68.4763 132.813 67.7752C133.472 67.0741 134.505 66.6523 135.159 65.9459C135.812 65.2395 136.619 64.5964 137.262 63.8794C137.905 63.1625 138.348 62.1978 138.986 61.4756C139.624 60.7533 140.109 59.8361 140.736 59.1033C141.363 58.3705 142.26 57.8012 142.876 57.0632C143.493 56.3251 144.257 55.6293 144.858 54.886C145.459 54.1427 145.591 52.9407 146.182 52.1869C146.772 51.433 147.784 50.9217 148.359 50.1573C148.933 49.3929 149.687 48.6707 150.246 47.8905C150.831 47.0733 151.348 46.2352 151.891 45.4444C152.46 44.6168 152.761 43.6362 153.283 42.8349C153.836 41.9915 154.437 41.2113 154.933 40.4047C155.46 39.5401 155.845 38.6281 156.314 37.8058C156.82 36.9254 157.41 36.1346 157.853 35.2964C158.328 34.395 158.544 33.4144 158.95 32.5657C159.392 31.6432 160.004 30.8524 160.373 29.9879C160.774 29.0442 160.884 28.0426 161.195 27.1622C161.543 26.1923 162.181 25.3699 162.434 24.479C162.724 23.4774 162.714 22.4705 162.903 21.569C163.114 20.541 163.547 19.6132 163.641 18.7118C163.752 17.6522 163.473 16.6664 163.457 15.7649C163.441 14.6789 163.605 13.6879 163.457 12.8233C163.262 11.7004 162.872 10.7832 162.571 10.0188C162.034 8.64287 161.306 7.94701 161.032 7.58854C160.03 6.48676 160.283 6.78197 158.781 5.70655C158.09 5.21101 157.489 4.2832 156.509 3.72967C155.713 3.28158 154.748 2.92311 153.773 2.50665C152.908 2.13763 151.812 2.26942 150.815 1.96367C149.909 1.68427 149.055 1.07802 148.037 0.882973C147.099 0.703736 146.092 0.830256 145.064 0.74591C144.11 0.666835 143.14 0.550858 142.117 0.577216C141.158 0.598303 140.156 0.419066 139.133 0.545586C138.185 0.666835 137.23 0.983135 136.229 1.20454C135.296 1.41541 134.241 1.35742 133.261 1.66845C132.349 1.95839 131.547 2.67534 130.599 3.06017C129.713 3.42392 128.622 3.43973 127.704 3.89837C126.845 4.32537 125.912 4.73656 125.026 5.25319C124.193 5.73291 123.593 6.67127 122.739 7.23006C121.932 7.7625 121.046 8.21587 120.224 8.82211C119.402 9.42835 118.653 10.0557 117.925 10.7146C117.198 11.3736 116.792 12.3699 116.128 13.0974C115.464 13.8249 114.583 14.3679 113.993 15.1587C113.402 15.9494 112.875 16.7876 112.359 17.6311C111.842 18.4745 110.972 19.1335 110.524 20.0191C110.076 20.9048 109.828 21.8959 109.449 22.8131C109.069 23.7304 109.232 24.8374 108.916 25.7811C108.6 26.7247 108.268 27.6262 108.009 28.5909C107.751 29.5556 107.155 30.4096 106.945 31.3849C106.734 32.3601 106.95 33.3934 106.792 34.3739C106.634 35.3544 105.795 36.2348 105.679 37.2206C105.563 38.2064 105.632 39.2186 105.553 40.2044C105.474 41.1902 105.969 42.2129 105.922 43.2039C105.874 44.195 105.215 45.165 105.2 46.1561C105.184 47.1472 105.59 48.1435 105.6 49.1346C105.611 50.1256 105.189 51.1325 105.226 52.1183C105.263 53.1041 105.637 54.0952 105.695 55.0757C105.753 56.0563 105.822 57.0632 105.896 58.0437C105.969 59.0242 106.075 60.0311 106.17 61.0064C106.265 61.9816 106.022 63.036 106.133 64.0007C106.243 64.9654 106.644 65.9617 106.765 66.9212C106.892 67.9333 106.723 68.956 106.85 69.9102C106.987 70.9277 107.477 71.866 107.604 72.8096C107.746 73.8429 107.804 74.834 107.93 75.7671C108.073 76.8214 108.168 77.8125 108.273 78.7192C108.405 79.8262 108.674 80.8015 108.737 81.6608C108.832 82.9734 108.7 84.0699 108.552 84.7078C109.812 85.4669 110.118 84.7658 111.499 85.2771C112.88 85.7885 112.728 86.147 114.198 86.2682L114.193 86.2735Z" fill="#6ABC83"/>
<path d="M112.262 68.8719C113.027 67.6278 113.248 66.1728 114.007 64.8391L115.03 62.9202C115.373 62.2876 115.594 61.6656 115.953 60.9486C116.659 59.5885 117.413 58.4551 117.592 57.2321C117.719 56.5837 117.798 55.8562 117.982 55.0601C118.625 53.2098 118.615 51.3489 119.511 49.5354C119.954 48.6498 120.729 47.6271 120.998 46.8469C121.303 46.0034 121.414 44.7698 121.709 43.7735C122.115 42.2342 123.228 40.9268 123.966 39.6774C124.646 38.4491 124.915 36.9309 125.753 35.6446C126.38 34.6324 127.44 33.731 128.157 33.0035C129 31.9755 130.36 30.7736 131.325 29.9565C132.184 29.1657 132.991 27.8162 134.061 27.0728C135.142 26.2926 136.344 25.7022 137.477 25.096C138.436 24.5583 139.201 23.9098 140.266 23.3458C141.373 22.7554 142.39 22.5814 143.444 22.186C144.346 21.7959 145.458 21.2529 146.328 20.8575C147.688 20.2302 148.922 19.0863 150.161 18.0794C151.109 17.2728 151.51 15.9813 152.422 15.1167C151.721 16.2237 151.579 17.6049 150.714 18.6276C149.639 19.9192 148.542 21.2318 147.124 22.1966C146.086 22.8502 145.305 23.3774 144.262 23.9731C143.344 24.4528 142.195 24.8113 141.425 25.3332C140.614 25.8709 139.733 26.6933 138.832 27.2837C137.682 28.0587 136.47 28.6491 135.5 29.5769C134.778 30.3571 134.298 31.2164 133.434 32.0915C132.237 33.2249 131.42 33.9155 130.418 35.1596C129.638 35.9925 128.958 36.5039 128.425 37.3262C127.74 38.486 127.44 39.9832 126.686 41.2431C126.169 42.1551 125.352 43.104 124.93 43.9053C124.319 45.0756 124.277 46.5095 123.697 47.9012C123.175 49.1506 122.484 49.8517 121.889 50.8375C121.388 51.6968 121.23 52.5403 120.924 53.5893C120.766 54.243 120.391 55.1023 120.175 55.6822C119.859 56.6311 119.638 57.9068 119.142 58.9137C118.646 59.9417 117.882 60.8643 117.271 61.7446C116.538 62.8938 115.621 64.2328 114.735 65.3188C113.818 66.4206 113.29 67.8598 112.252 68.8825L112.262 68.8719Z" fill="#9BCB7C"/>
<path d="M18.3232 164.42C18.8926 165.306 18.8399 164.832 20.2158 164.832C20.8009 164.832 21.5073 164.721 22.3192 164.721C22.957 164.721 23.6582 164.7 24.4225 164.7C25.0762 164.7 25.7774 164.615 26.5259 164.615C27.1902 164.615 27.8966 164.236 28.6293 164.236C29.3041 164.236 30.0052 164.357 30.7327 164.357C31.4128 164.357 32.1139 164.209 32.8361 164.209C33.5162 164.209 34.2173 164.636 34.9395 164.636C35.6617 164.636 36.326 164.689 37.0429 164.689C37.7599 164.689 38.4294 164.584 39.1463 164.584C39.8633 164.584 40.538 164.183 41.2497 164.183C41.9614 164.183 42.6414 164.889 43.3531 164.889C44.0648 164.889 44.7448 164.853 45.4565 164.853C46.1682 164.853 46.8482 164.32 47.5599 164.32C48.2716 164.32 48.9516 164.436 49.6633 164.436C50.375 164.436 51.0603 164.689 51.7667 164.689C52.4731 164.689 53.1637 164.626 53.8701 164.626C54.5765 164.626 55.2671 164.494 55.9735 164.494C56.6799 164.494 57.3705 164.526 58.0769 164.526C58.7833 164.526 59.4739 164.636 60.1803 164.636C60.8867 164.636 61.5773 164.362 62.2837 164.362C62.9901 164.362 63.6807 164.473 64.3871 164.473C65.0935 164.473 65.7841 164.705 66.4905 164.705C67.1969 164.705 67.8875 164.621 68.5939 164.621C69.3003 164.621 69.9909 164.853 70.6973 164.853C71.4037 164.853 72.0943 164.536 72.8007 164.536C73.5071 164.536 74.1977 164.795 74.9041 164.795C75.6105 164.795 76.301 164.589 77.0075 164.589C77.7139 164.589 78.4097 164.536 79.1109 164.536C79.812 164.536 80.5131 164.932 81.2143 164.932C81.9154 164.932 82.6165 164.805 83.3176 164.805C84.0188 164.805 84.7199 164.531 85.421 164.531C86.1222 164.531 86.8233 164.557 87.5244 164.557C88.2256 164.557 88.9267 164.758 89.6278 164.758C90.329 164.758 91.0301 164.568 91.7312 164.568C92.4324 164.568 93.1335 164.568 93.8346 164.568C94.5358 164.568 95.2369 164.578 95.938 164.578C96.6392 164.578 97.3403 164.631 98.0414 164.631C98.7426 164.631 99.4437 164.647 100.145 164.647C100.846 164.647 101.547 164.816 102.248 164.816C102.949 164.816 103.65 164.911 104.352 164.911C105.053 164.911 105.754 164.684 106.455 164.684C107.156 164.684 107.857 164.257 108.558 164.257C109.26 164.257 109.961 164.32 110.662 164.32C111.363 164.32 112.064 164.821 112.765 164.821C113.466 164.821 114.167 164.853 114.869 164.853C115.57 164.853 116.271 164.81 116.977 164.81C117.684 164.81 118.38 164.289 119.086 164.289C119.792 164.289 120.493 164.768 121.195 164.768C121.896 164.768 122.597 164.621 123.303 164.621C124.01 164.621 124.711 164.431 125.412 164.431C126.113 164.431 126.819 164.6 127.521 164.6C128.222 164.6 128.928 164.784 129.629 164.784C130.33 164.784 131.037 164.415 131.738 164.415C132.439 164.415 133.145 164.763 133.847 164.763C134.548 164.763 135.254 164.299 135.955 164.299C136.656 164.299 137.363 164.278 138.064 164.278C138.765 164.278 139.471 164.183 140.173 164.183C140.874 164.183 141.58 164.368 142.281 164.368C142.982 164.368 143.689 164.689 144.39 164.689C145.091 164.689 145.797 164.341 146.499 164.341C147.2 164.341 147.906 164.626 148.607 164.626C149.308 164.626 150.015 164.8 150.716 164.8C151.417 164.8 152.123 164.304 152.825 164.304C153.526 164.304 154.232 164.325 154.933 164.325C155.634 164.325 156.341 164.178 157.042 164.178C157.743 164.178 158.449 164.352 159.151 164.352C159.852 164.352 160.558 164.868 161.259 164.868C161.96 164.868 162.667 164.731 163.363 164.731C164.059 164.731 164.77 164.246 165.466 164.246C166.162 164.246 166.874 164.816 167.569 164.816C168.265 164.816 168.977 164.167 169.673 164.167C170.369 164.167 171.08 164.394 171.782 164.394C172.483 164.394 173.189 164.9 173.89 164.9C174.591 164.9 175.298 164.752 175.999 164.752C176.7 164.752 177.412 164.452 178.108 164.452C178.803 164.452 179.52 164.731 180.216 164.731C180.912 164.731 181.629 164.215 182.325 164.215C183.021 164.215 183.738 164.489 184.434 164.489C185.129 164.489 185.846 164.31 186.537 164.31C187.228 164.31 187.95 164.236 188.64 164.236C189.331 164.236 190.053 164.742 190.744 164.742C191.434 164.742 192.157 164.267 192.847 164.267C193.538 164.267 194.26 164.167 194.951 164.167C195.641 164.167 196.369 164.716 197.054 164.716C197.739 164.716 198.472 164.858 199.157 164.858C199.843 164.858 200.575 164.241 201.261 164.241C201.983 164.241 202.684 164.636 203.364 164.636C204.086 164.636 204.787 164.647 205.468 164.647C206.195 164.647 206.896 164.547 207.571 164.547C208.304 164.547 209.005 164.289 209.674 164.289C210.418 164.289 211.119 164.731 211.778 164.731C212.537 164.731 213.08 164.204 213.723 164.204C214.24 163.693 215.099 163.751 215.573 163.261C216.079 162.739 216.253 161.932 216.712 161.431C217.202 160.894 217.729 160.424 218.172 159.908C218.647 159.349 218.873 158.632 219.295 158.105C219.754 157.525 220.36 157.114 220.755 156.571C221.188 155.97 221.667 155.448 222.031 154.889C222.432 154.262 222.516 153.508 222.838 152.923C223.201 152.264 223.939 151.853 224.203 151.252C224.509 150.561 224.54 149.818 224.741 149.19C224.973 148.463 225.115 147.788 225.22 147.145C225.347 146.386 225.51 145.701 225.5 145.057C225.489 144.288 225.468 143.566 225.321 142.944C225.168 142.285 225.231 141.52 225.025 140.803C224.836 140.144 223.955 139.67 223.723 138.974C223.502 138.315 223.592 137.535 223.323 136.855C223.054 136.175 222.627 135.621 222.326 134.962C222.026 134.303 221.894 133.607 221.562 132.964C221.23 132.321 220.666 131.852 220.297 131.23C219.928 130.608 219.553 130.044 219.153 129.443C218.752 128.842 218.272 128.352 217.835 127.782C217.397 127.213 217.492 126.232 217.023 125.689C216.554 125.146 215.668 125.009 215.162 124.503C214.656 123.997 214.261 123.407 213.718 122.932C213.175 122.458 212.505 122.2 211.931 121.767C211.356 121.335 210.998 120.639 210.391 120.249C209.785 119.859 209.268 119.337 208.636 118.994C208.019 118.662 207.096 118.921 206.438 118.625C205.779 118.33 205.162 118.072 204.482 117.824C203.833 117.587 203.19 117.313 202.505 117.075C201.851 116.849 201.371 116.053 200.691 115.831C200.011 115.61 199.221 115.831 198.535 115.615C197.85 115.399 197.165 115.32 196.479 115.125C195.81 114.93 195.298 114.139 194.613 113.949C193.928 113.76 193.148 113.986 192.457 113.807C191.766 113.628 191.192 113.048 190.501 112.879C189.816 112.716 189.125 112.552 188.429 112.399C187.734 112.247 186.901 112.805 186.205 112.668C185.509 112.531 184.882 112.088 184.186 111.957C183.49 111.825 182.826 111.519 182.13 111.403C181.434 111.287 180.743 111.103 180.042 111.002C179.341 110.902 178.561 111.419 177.86 111.34C177.159 111.261 176.537 110.433 175.835 110.365C175.134 110.296 174.386 110.66 173.685 110.612C172.904 110.56 172.245 110.296 171.639 110.138C170.88 109.948 170.274 109.685 169.731 109.363C169.088 108.983 168.634 108.525 168.207 108.008C167.78 107.492 167.496 106.869 167.185 106.232C166.874 105.594 166.404 105.072 166.141 104.408C165.877 103.743 165.851 103.016 165.54 102.373C165.229 101.73 164.475 101.403 164.059 100.818C163.668 100.269 163.241 99.8107 162.688 99.3205C162.198 98.8882 161.95 98.0447 161.291 97.6757C160.727 97.3594 159.984 97.2645 159.267 97.0115C158.655 96.7953 157.975 96.6477 157.237 96.4843C156.599 96.342 155.903 96.2945 155.16 96.1944C154.506 96.11 153.826 95.9202 153.083 95.8675C152.34 95.8148 151.691 95.4511 151.027 95.4247C150.31 95.3983 149.609 95.9782 148.945 95.973C148.228 95.9677 147.542 95.8781 146.878 95.8992C146.156 95.9202 145.497 96.2207 144.833 96.2682C144.116 96.3209 143.399 95.9888 142.745 96.0731C142.028 96.1627 141.385 96.4685 140.737 96.595C140.03 96.7321 139.398 96.9693 138.76 97.1433C138.069 97.3278 137.41 97.4596 136.778 97.681C136.108 97.9182 135.302 97.7495 134.685 98.0236C134.068 98.2978 133.683 99.136 133.082 99.4523C132.471 99.7738 131.891 100.106 131.29 100.454C130.689 100.802 129.977 100.913 129.376 101.271C128.775 101.629 128.137 101.851 127.531 102.215C126.925 102.578 126.345 102.874 125.728 103.227C125.148 103.559 124.706 104.181 124.073 104.513C123.488 104.824 122.797 104.993 122.154 105.304C121.553 105.594 121 106.042 120.341 106.327C119.729 106.59 119.102 106.891 118.432 107.149C117.81 107.386 117.135 107.56 116.455 107.792C115.828 108.008 115.079 107.945 114.394 108.151C113.756 108.346 113.166 108.794 112.481 108.978C111.837 109.152 111.084 108.994 110.393 109.163C109.745 109.321 109.122 109.69 108.427 109.837C107.715 109.99 107.019 110.127 106.344 110.249C105.627 110.38 104.947 110.628 104.267 110.728C103.545 110.834 102.833 110.908 102.153 110.981C101.426 111.06 100.698 110.839 100.013 110.887C99.2855 110.934 98.5897 111.234 97.9044 111.25C97.1716 111.266 96.4599 111.271 95.7746 111.25C95.0418 111.229 94.3249 111.266 93.6449 111.213C92.9174 111.161 92.232 110.844 91.552 110.765C90.8298 110.676 90.1234 110.628 89.4433 110.517C88.7317 110.402 87.9883 110.517 87.3083 110.38C86.6283 110.243 85.9218 110.032 85.2365 109.89C84.5354 109.748 83.9397 109.147 83.2491 109.01C82.5585 108.873 81.831 108.878 81.1352 108.762C80.4393 108.646 79.7382 108.567 79.0318 108.483C78.3254 108.398 77.6348 108.335 76.9126 108.303C76.1903 108.272 75.5261 108.741 74.8039 108.767C74.1186 108.788 73.4491 108.841 72.7216 108.92C72.0468 108.994 71.3351 108.873 70.6129 109.005C69.9434 109.126 69.2739 109.305 68.5622 109.484C67.9033 109.653 67.1442 109.553 66.443 109.769C65.7946 109.969 65.104 110.164 64.4134 110.417C63.765 110.655 63.0428 110.744 62.3997 111.018C61.7565 111.292 61.377 112.11 60.7496 112.421C60.1223 112.732 59.4212 112.853 58.8097 113.185C58.1981 113.517 57.6393 113.923 57.0489 114.281C56.4585 114.64 55.9577 115.13 55.3778 115.515C54.7979 115.9 54.0599 116.037 53.4958 116.443C52.937 116.849 52.5627 117.502 52.0145 117.929C51.4662 118.351 50.6807 118.472 50.143 118.915C49.6053 119.358 49.1941 119.938 48.6722 120.397C48.1503 120.855 47.5283 121.203 47.0222 121.672C46.5161 122.142 45.9362 122.547 45.4407 123.032C44.9452 123.517 44.5867 124.145 44.1017 124.64C43.6167 125.136 43.3478 125.837 42.8787 126.343C42.4095 126.849 41.7453 127.187 41.2814 127.703C40.8174 128.22 40.1269 128.547 39.6788 129.074C39.2307 129.601 39.2623 130.534 38.8195 131.072C38.3767 131.609 37.8706 132.089 37.4436 132.632C37.0166 133.175 36.637 133.76 36.2153 134.309C35.7935 134.857 35.1609 135.252 34.7497 135.811C34.3386 136.37 33.8536 136.881 33.4529 137.445C33.0523 138.009 32.9468 138.789 32.5567 139.359C32.1666 139.928 31.2704 140.171 30.8856 140.74C30.5008 141.309 30.4533 142.132 30.0791 142.706C29.6942 143.297 29.03 143.692 28.661 144.272C28.292 144.852 28.0547 145.548 27.7015 146.128C27.3483 146.708 26.9371 147.298 26.5839 147.888C26.2307 148.479 25.8143 149.064 25.4769 149.654C25.1395 150.245 25.0077 151.004 24.6756 151.594C24.3277 152.216 24.2802 152.981 23.9534 153.571C23.6107 154.199 22.6882 154.488 22.3719 155.079C22.0292 155.717 22.2137 156.597 21.908 157.188C21.5706 157.841 20.8325 158.242 20.5426 158.827C20.2052 159.497 20.2737 160.308 19.9996 160.878C19.6517 161.595 19.1403 162.122 18.8978 162.654C18.3338 163.862 17.7275 163.55 18.2916 164.42H18.3232Z" fill="#776B5D"/>
<path d="M0.704959 165.623C1.41664 166.398 1.61696 165.37 2.99286 165.37C3.57802 165.37 4.28442 165.475 5.09626 165.475C5.72886 165.475 6.42999 165.728 7.19966 165.728C7.85335 165.728 8.55975 165.375 9.30833 165.375C9.97256 165.375 10.679 165.111 11.4117 165.111C12.0865 165.111 12.7876 165.549 13.5151 165.549C14.1952 165.549 14.8963 165.196 15.6185 165.201C16.2986 165.201 16.9997 165.538 17.7219 165.538C18.4072 165.538 19.1084 165.233 19.8253 165.233C20.5106 165.233 21.2118 165.591 21.9287 165.596C22.6457 165.602 23.3204 165.802 24.0321 165.802C24.7438 165.802 25.4238 165.47 26.1408 165.47C26.8314 165.47 27.5325 165.57 28.2494 165.57C28.9664 165.57 29.6464 165.322 30.3581 165.328C31.0487 165.328 31.7551 165.602 32.4668 165.602C33.1626 165.602 33.8638 165.781 34.5754 165.781C35.2871 165.781 35.9724 165.712 36.6841 165.712C37.3958 165.712 38.0811 165.212 38.7928 165.212C39.5045 165.212 40.1898 165.892 40.9015 165.892C41.6131 165.892 42.2984 165.623 43.0101 165.628C43.706 165.628 44.4071 165.48 45.1188 165.48C45.8305 165.48 46.5158 165.56 47.2275 165.56C47.9233 165.56 48.6244 165.633 49.3361 165.633C50.0478 165.633 50.7384 165.528 51.4448 165.528C52.1407 165.528 52.8471 165.881 53.5535 165.881C54.2599 165.881 54.9557 165.749 55.6621 165.749C56.358 165.749 57.0644 165.322 57.7708 165.322C58.4719 165.322 59.1731 165.834 59.8795 165.839C60.5859 165.844 61.2817 165.333 61.9881 165.333C62.6945 165.333 63.3904 165.934 64.0968 165.934C64.8032 165.934 65.4991 165.364 66.2055 165.364C66.9119 165.364 67.6077 165.422 68.3141 165.422C69.0205 165.422 69.7164 165.333 70.4228 165.338C71.1292 165.343 71.8251 165.438 72.5315 165.444C73.2326 165.444 73.9337 165.834 74.6401 165.834C75.3465 165.834 76.0424 165.602 76.7488 165.602C77.4552 165.602 78.1511 165.517 78.8575 165.517C79.5639 165.517 80.2597 165.807 80.9661 165.807C81.6726 165.807 82.3684 165.502 83.0748 165.502C83.7812 165.502 84.4771 165.781 85.1835 165.781C85.8899 165.781 86.5857 165.264 87.2869 165.264C87.988 165.264 88.6891 165.512 89.3903 165.512C90.0914 165.512 90.7925 165.396 91.4937 165.396C92.1948 165.396 92.8959 165.312 93.5971 165.312C94.2982 165.312 94.9993 165.37 95.7005 165.37C96.4016 165.37 97.1027 165.417 97.8039 165.417C98.505 165.417 99.2061 165.939 99.9073 165.939C100.608 165.939 101.31 165.818 102.016 165.818C102.722 165.818 103.418 165.538 104.125 165.538C104.831 165.538 105.527 165.649 106.228 165.649C106.929 165.649 107.63 165.48 108.331 165.486C109.033 165.491 109.734 165.691 110.44 165.691C111.146 165.691 111.842 165.37 112.549 165.37C113.255 165.37 113.956 165.839 114.657 165.839C115.359 165.839 116.065 165.807 116.766 165.807C117.467 165.807 118.174 165.517 118.875 165.517C119.576 165.517 120.282 165.596 120.983 165.596C121.685 165.596 122.391 165.254 123.092 165.254C123.793 165.254 124.5 165.502 125.201 165.502C125.902 165.502 126.608 165.813 127.309 165.813C128.011 165.813 128.717 165.971 129.418 165.971C130.119 165.971 130.826 165.248 131.527 165.248C132.228 165.248 132.934 165.807 133.635 165.807C134.337 165.807 135.043 165.486 135.744 165.486C136.445 165.486 137.152 165.291 137.853 165.291C138.554 165.291 139.26 165.807 139.961 165.807C140.663 165.807 141.369 165.86 142.07 165.86C142.771 165.86 143.478 165.475 144.179 165.475C144.88 165.475 145.586 165.623 146.287 165.623C146.989 165.623 147.695 165.77 148.396 165.765C149.102 165.765 149.804 165.644 150.505 165.644C151.211 165.644 151.912 165.396 152.613 165.396C153.315 165.396 154.021 165.544 154.722 165.544C155.423 165.544 156.13 165.586 156.831 165.586C157.532 165.586 158.238 165.375 158.939 165.375C159.646 165.375 160.347 165.422 161.048 165.422C161.755 165.422 162.456 165.791 163.157 165.786C163.863 165.786 164.564 165.607 165.265 165.607C165.972 165.607 166.673 165.417 167.369 165.417C168.065 165.417 168.776 165.291 169.472 165.285C170.168 165.28 170.88 165.871 171.581 165.865C172.287 165.865 172.988 165.828 173.69 165.828C174.391 165.828 175.097 165.76 175.798 165.76C176.499 165.76 177.206 165.56 177.907 165.56C178.608 165.56 179.314 165.565 180.016 165.56C180.717 165.554 181.423 165.718 182.124 165.718C182.825 165.718 183.532 165.222 184.228 165.217C184.934 165.217 185.635 165.386 186.336 165.386C187.043 165.386 187.749 165.617 188.445 165.617C189.151 165.617 189.853 165.243 190.548 165.243C191.244 165.243 191.961 165.649 192.652 165.649C193.342 165.649 194.065 165.781 194.76 165.781C195.456 165.781 196.168 165.723 196.864 165.723C197.56 165.723 198.482 165.575 199.173 165.57C198.92 164.906 198.551 164.078 198.298 163.43C198.045 162.781 197.844 162.085 197.581 161.448C197.317 160.81 196.727 160.272 196.453 159.634C196.179 158.996 195.815 158.374 195.535 157.742C195.256 157.109 195.435 156.234 195.145 155.607C194.855 154.979 194.444 154.368 194.144 153.751C193.843 153.134 193.495 152.491 193.184 151.874C192.873 151.257 192.457 150.651 192.135 150.045C191.814 149.439 191.128 148.985 190.791 148.384C190.453 147.783 190.195 147.098 189.842 146.508C189.489 145.917 188.988 145.38 188.619 144.8C188.25 144.22 188.213 143.376 187.828 142.807C187.443 142.238 187.069 141.6 186.674 141.046C186.257 140.461 185.751 139.96 185.329 139.423C184.892 138.853 184.143 138.563 183.706 138.036C183.247 137.483 183.321 136.486 182.868 135.98C182.383 135.442 181.866 134.952 181.386 134.462C180.88 133.945 180.005 133.84 179.504 133.381C178.972 132.891 178.529 132.348 178.007 131.916C177.448 131.457 177.053 130.824 176.505 130.424C175.919 129.997 175.303 129.649 174.728 129.28C174.117 128.89 173.447 128.647 172.851 128.32C172.213 127.972 171.607 127.635 170.99 127.35C170.332 127.05 169.725 126.681 169.087 126.449C168.407 126.196 167.664 126.243 167.01 126.059C166.309 125.859 165.677 125.584 165.039 125.447C164.327 125.289 163.689 124.941 163.041 124.857C162.319 124.762 161.617 124.788 160.964 124.767C160.242 124.746 159.53 124.53 158.871 124.583C158.164 124.641 157.516 125.057 156.852 125.184C156.188 125.31 155.439 125.236 154.775 125.421C154.111 125.606 153.52 126.006 152.856 126.228C152.192 126.449 151.585 126.702 150.911 126.918C150.278 127.124 149.514 126.945 148.828 127.145C148.191 127.329 147.574 127.619 146.878 127.783C146.235 127.936 145.628 128.342 144.917 128.468C144.268 128.584 143.583 128.663 142.871 128.753C142.218 128.832 141.517 128.7 140.8 128.753C140.141 128.8 139.466 129.022 138.749 129.043C138.085 129.058 137.399 129.064 136.682 129.053C136.018 129.043 135.333 129.011 134.616 128.979C133.873 128.942 133.161 128.848 132.47 128.8C131.722 128.747 131.015 128.674 130.33 128.605C129.581 128.531 128.896 128.278 128.221 128.189C127.473 128.088 126.793 127.893 126.123 127.777C125.375 127.651 124.642 127.741 123.978 127.598C123.234 127.44 122.438 127.688 121.785 127.514C121.047 127.319 120.372 127.055 119.723 126.855C119.001 126.628 118.49 125.922 117.847 125.695C117.146 125.447 116.492 125.173 115.838 124.936C115.185 124.699 114.462 124.493 113.782 124.277C113.102 124.061 112.296 124.377 111.579 124.214C110.915 124.061 110.303 123.46 109.554 123.36C108.885 123.27 108.152 123.349 107.393 123.312C106.724 123.281 106.012 123.46 105.247 123.476C104.573 123.486 103.856 123.354 103.097 123.407C102.359 123.46 101.631 123.339 100.946 123.418C100.213 123.502 99.5541 123.961 98.874 124.066C98.1465 124.182 97.3821 123.971 96.7074 124.114C95.9851 124.266 95.4053 124.889 94.741 125.068C94.0294 125.263 93.3757 125.49 92.722 125.711C92.0261 125.948 91.4146 126.28 90.7715 126.539C90.0967 126.813 89.385 126.929 88.7577 127.229C88.1303 127.53 87.329 127.577 86.7123 127.909C86.0955 128.241 85.6263 128.9 85.0148 129.253C84.4033 129.607 83.6389 129.723 83.0274 130.081C82.4159 130.44 81.7147 130.65 81.0979 131.004C80.4812 131.357 80.1016 132.132 79.469 132.469C78.8364 132.807 78.1932 133.102 77.5396 133.402C76.8859 133.703 76.2954 134.119 75.6154 134.383C74.9723 134.636 74.229 134.715 73.5278 134.936C72.8689 135.142 72.0518 134.841 71.3401 135.015C70.6706 135.179 70.0222 135.458 69.2947 135.59C68.6199 135.711 67.9873 136.302 67.2545 136.391C66.5745 136.476 65.8048 135.98 65.0721 136.038C64.3393 136.096 63.654 136.776 62.9581 136.792C62.2254 136.808 61.4979 136.576 60.802 136.549C60.1061 136.523 59.3997 135.97 58.7039 135.906C57.9764 135.838 57.27 135.896 56.5741 135.79C55.8572 135.68 55.1033 135.843 54.418 135.695C53.7063 135.543 53.0843 135.1 52.4042 134.915C51.7031 134.725 50.8702 135.015 50.2007 134.794C49.5312 134.573 48.9197 134.077 48.2607 133.829C47.6017 133.582 46.8479 133.492 46.1942 133.228C45.5405 132.965 44.8341 132.759 44.1804 132.485C43.5267 132.211 43.0523 131.468 42.3933 131.193C41.7344 130.919 40.8909 131.088 40.2319 130.83C39.5677 130.566 38.8771 130.413 38.2024 130.176C37.5276 129.939 37.0268 129.196 36.3415 128.995C35.6614 128.795 34.9919 128.473 34.2908 128.315C33.6002 128.162 32.7883 128.642 32.0767 128.542C31.365 128.442 30.7219 127.978 29.9944 127.941C29.2985 127.904 28.5763 127.883 27.8488 127.909C27.1213 127.936 26.4465 128.083 25.719 128.173C25.0337 128.252 24.38 128.621 23.6578 128.763C22.9778 128.9 22.187 128.631 21.4753 128.826C20.7637 129.022 20.2839 129.77 19.6303 130.013C18.9766 130.255 18.0382 129.934 17.4109 130.245C16.7836 130.556 16.3513 131.288 15.7556 131.663C15.1599 132.037 14.5273 132.38 13.9685 132.812C13.4097 133.244 13.0618 133.914 12.5451 134.399C12.0285 134.884 11.3748 135.216 10.9004 135.743C10.4259 136.27 9.89348 136.75 9.46648 137.314C9.0342 137.878 8.88659 138.632 8.49649 139.227C8.10639 139.823 7.33145 140.176 6.98352 140.793C6.63559 141.41 6.50907 142.153 6.19277 142.791C5.87647 143.429 5.60234 144.083 5.32294 144.731C5.04354 145.38 4.66926 146.002 4.42676 146.666C4.18426 147.33 3.86796 147.989 3.65182 148.659C3.43569 149.328 2.98759 149.961 2.79781 150.635C2.60803 151.31 3.10357 152.196 2.94542 152.876C2.78727 153.556 2.28119 154.199 2.14413 154.874C1.99652 155.596 2.04396 156.324 1.93326 156.998C1.81201 157.731 1.52207 158.406 1.43245 159.075C1.33229 159.834 1.51153 160.567 1.44299 161.221C1.35865 162.027 1.31647 162.734 1.2743 163.335C1.18468 164.674 0.0143706 164.827 0.731318 165.612L0.704959 165.623Z" fill="#B0A695"/>
</svg>
