<svg width="225" height="72" viewBox="0 0 225 72" fill="none" xmlns="http://www.w3.org/2000/svg">
<path d="M0 69.0578C0.71285 69.0578 1.71297 69.0366 2.42582 69.0366C3.13867 69.0366 3.85152 68.611 4.56437 68.611C5.27722 68.611 5.99007 69.0259 6.70292 69.0259C7.41577 69.0259 8.12862 68.6376 8.84147 68.6376C9.55432 68.6376 10.2672 68.7067 10.98 68.7067C11.6929 68.7067 12.4057 69.1376 13.1186 69.1376C13.8314 69.1376 14.5443 68.9727 15.2571 68.9727C15.97 68.9727 16.6828 69.1695 17.3957 69.1695C18.1085 69.1695 18.8214 68.5312 19.5342 68.5312C20.2471 68.5312 20.9599 68.6216 21.6728 68.6216C22.3856 68.6216 23.0985 68.6429 23.8113 68.6482C24.5242 68.6535 25.237 69.2547 25.9499 69.2547C26.6627 69.2547 27.3756 68.6376 28.0884 68.6376C28.8013 68.6376 29.5141 69.2653 30.227 69.2653C30.9398 69.2653 31.6527 68.6269 32.3655 68.6269C33.0784 68.6269 33.7912 69.1323 34.5041 69.1323C35.2169 69.1323 35.9298 69.0951 36.6426 69.0951C37.3555 69.0951 38.0683 69.2547 38.7812 69.2547C39.494 69.2547 40.2069 68.9461 40.9197 68.9461C41.6326 68.9461 42.3454 68.7546 43.0583 68.7546C43.7711 68.7546 44.484 68.7493 45.1968 68.7493C45.9097 68.7493 46.6225 69.1483 47.3354 69.1483C48.0482 69.1483 48.7611 68.611 49.4739 68.611C50.1868 68.611 50.8996 69.0844 51.6125 69.0844C52.3253 69.0844 53.0382 68.9302 53.751 68.9302C54.4639 68.9302 55.1767 68.8982 55.8896 68.8982C56.6024 68.8982 57.3153 69.127 58.0281 69.127C58.741 69.127 59.4538 69.2174 60.1667 69.2174C60.8795 69.2174 61.5924 68.9887 62.3052 68.9887C63.0181 68.9887 63.7309 68.5844 64.4438 68.5844C65.1566 68.5844 65.8695 68.7972 66.5823 68.7972C67.2952 68.7972 68.008 69.0153 68.7209 69.0206C69.4337 69.0206 70.1466 69.0419 70.8594 69.0419C71.5723 69.0419 72.2851 68.7652 72.998 68.7652C73.7108 68.7652 74.4237 68.5737 75.1365 68.5737C75.8494 68.5737 76.5622 68.9248 77.2751 68.9248C77.9879 68.9248 78.7008 69.2919 79.4136 69.2919C80.1265 69.2919 80.8393 69.0525 81.5522 69.0525C82.265 69.0525 82.9779 68.9833 83.6908 68.9833C84.4036 68.9833 85.1164 68.595 85.8293 68.595C86.5421 68.595 87.255 68.5524 87.9678 68.5524C88.6807 68.5524 89.3935 68.8876 90.1064 68.8876C90.8192 68.8876 91.5321 68.6588 92.2449 68.6588C92.9578 68.6588 93.6706 68.9195 94.3835 68.9195C95.0963 68.9195 95.8092 68.8344 96.522 68.8344C97.2349 68.8344 97.9478 69.0738 98.6606 69.0738C99.3735 69.0738 100.086 68.6163 100.799 68.6163C101.512 68.6163 102.225 68.6216 102.938 68.6216C103.651 68.6216 104.363 68.744 105.076 68.744C105.789 68.744 106.502 69.2387 107.215 69.2387C107.928 69.2387 108.641 68.8823 109.353 68.8823C110.066 68.8823 110.779 68.712 111.492 68.712C112.205 68.712 112.918 69.26 113.63 69.26C114.343 69.26 115.056 68.6695 115.769 68.6695C116.482 68.6695 117.195 68.8982 117.908 68.8982C118.62 68.8982 119.333 68.9514 120.046 68.9514C120.759 68.9514 121.472 69.0578 122.185 69.0578C122.897 69.0578 123.61 68.7546 124.323 68.7546C125.036 68.7546 125.749 68.5152 126.462 68.5152C127.175 68.5152 127.887 68.6854 128.6 68.6854C129.313 68.6854 130.026 69.0046 130.739 69.0046C131.452 69.0046 132.165 68.5684 132.877 68.5684C133.59 68.5684 134.303 69.1802 135.016 69.1802C135.729 69.1802 136.442 69.0153 137.155 69.0153C137.867 69.0153 138.58 68.5099 139.293 68.5099C140.006 68.5099 140.719 68.6322 141.432 68.6322C142.144 68.6322 142.857 68.877 143.57 68.877C144.283 68.877 144.996 68.7386 145.709 68.7386C146.422 68.7386 147.134 68.6376 147.847 68.6376C148.56 68.6376 149.273 68.7812 149.986 68.7812C150.699 68.7812 151.412 68.7812 152.124 68.7812C152.837 68.7812 153.55 68.5897 154.263 68.5897C154.976 68.5897 155.689 68.611 156.401 68.611C157.114 68.611 157.827 68.7227 158.54 68.7227C159.253 68.7227 159.966 69.1855 160.679 69.1855C161.391 69.1855 162.104 68.8929 162.817 68.8929C163.53 68.8929 164.243 68.9887 164.956 68.9887C165.669 68.9887 166.381 69.2281 167.094 69.2281C167.807 69.2281 168.52 68.7759 169.233 68.7759C169.946 68.7759 170.658 68.978 171.371 68.978C172.084 68.978 172.797 69.0366 173.51 69.0366C174.223 69.0366 174.936 69.0472 175.648 69.0472C176.361 69.0472 177.074 68.6588 177.787 68.6535C178.5 68.6535 179.213 68.5471 179.926 68.5471C180.638 68.5471 181.351 69.127 182.064 69.127C182.777 69.127 183.49 68.9568 184.203 68.9568C184.915 68.9568 185.628 68.8876 186.341 68.8876C187.054 68.8876 187.767 68.8663 188.48 68.8663C189.193 68.8663 189.905 68.8078 190.618 68.8078C191.331 68.8078 192.044 69.244 192.757 69.244C193.47 69.244 194.183 68.5578 194.895 68.5578C195.608 68.5578 196.321 68.5365 197.034 68.5365C197.747 68.5365 198.46 69.1057 199.172 69.1057C199.885 69.1057 200.598 68.9461 201.311 68.9461C202.024 68.9461 202.737 69.0632 203.45 69.0632C204.162 69.0632 204.875 69.2227 205.588 69.2227C206.301 69.2227 207.014 68.8823 207.727 68.8823C208.44 68.8823 209.152 69.0366 209.865 69.0366C210.578 69.0366 211.291 68.5152 212.004 68.5152C212.717 68.5152 213.429 68.5259 214.142 68.5259C214.855 68.5259 215.568 68.4993 216.281 68.4993C216.994 68.4993 217.707 68.7174 218.419 68.7174C219.132 68.7174 219.845 68.5046 220.558 68.5046C221.271 68.5046 221.984 68.9248 222.697 68.9248C223.409 68.9248 224.287 69.0525 225 69.0525C224.995 68.3503 224.952 67.4725 224.915 66.781C224.878 66.0894 224.915 65.3659 224.846 64.6743C224.777 63.9828 224.436 63.3018 224.346 62.6156C224.255 61.9293 224.207 61.2165 224.085 60.5355C223.963 59.8546 223.808 59.1577 223.649 58.4821C223.489 57.8065 223.074 57.1894 222.877 56.5191C222.681 55.8488 222.532 55.1679 222.298 54.5136C222.063 53.8592 222.212 53.04 221.941 52.4016C221.67 51.7632 220.946 51.3111 220.638 50.6886C220.329 50.0662 220.148 49.3693 219.803 48.7682C219.457 48.1671 218.85 47.7255 218.462 47.1457C218.074 46.5658 218.185 45.6136 217.76 45.0656C217.334 44.5177 216.371 44.406 215.903 43.89C215.435 43.3739 215.217 42.6239 214.706 42.1451C214.201 41.6663 213.754 41.1077 213.206 40.6662C212.658 40.2246 212.115 39.7725 211.541 39.3735C210.972 38.9798 210.44 38.4797 209.828 38.1233C209.216 37.7669 208.461 37.6977 207.828 37.3839C207.195 37.07 206.477 37.0221 205.817 36.7561C205.179 36.4955 204.514 36.3306 203.838 36.1071C203.184 35.889 202.641 35.2879 201.955 35.107C201.268 34.9261 200.508 35.224 199.811 35.0857C199.114 34.9474 198.523 34.4314 197.816 34.3356C197.162 34.2452 196.534 34.6495 195.869 34.7506C195.204 34.8517 194.48 34.5644 193.837 34.7719C193.193 34.9793 192.523 35.0857 191.9 35.3251C191.278 35.5645 190.666 35.8358 190.049 36.038C189.389 36.2561 188.847 36.8093 188.219 36.8998C187.533 36.9955 186.799 37.0806 186.166 36.9104C185.564 36.7508 184.857 36.4263 184.32 35.9209C183.777 35.4102 183.245 34.8836 182.745 34.3569C182.245 33.8303 182.043 32.9951 181.569 32.4471C181.096 31.8992 180.548 31.3778 180.085 30.8193C179.622 30.2607 179.053 29.7553 178.596 29.1914C178.127 28.6169 177.697 28.0211 177.228 27.4678C176.76 26.9146 176.329 26.2975 175.835 25.7602C175.34 25.2229 174.914 24.5898 174.377 24.0951C173.84 23.6003 173.164 23.2439 172.574 22.8077C171.983 22.3715 171.297 22.1161 170.648 21.7544C170.02 21.4033 169.515 20.7489 168.812 20.4776C168.153 20.2223 167.318 20.4457 166.578 20.2702C165.892 20.1106 165.243 19.5839 164.482 19.4988C163.69 19.4137 162.945 19.8392 162.275 19.8339C161.466 19.8233 160.7 19.2381 160.046 19.3232C159.242 19.4349 158.705 20.2701 158.083 20.4989C157.332 20.7702 156.646 20.8766 156.082 21.2596C155.455 21.6905 154.869 22.0948 154.359 22.5843C153.821 23.0896 153.077 23.3237 152.523 23.7972C151.97 24.2706 151.646 24.9728 150.954 25.308C150.358 25.6006 149.629 25.6059 148.826 25.7442C148.188 25.8559 147.496 26.4624 146.672 26.4464C145.9 26.4305 145.182 26.1006 144.506 26.0155C143.746 25.9198 143.086 25.558 142.421 25.3931C141.687 25.2069 140.958 25.159 140.309 24.9037C139.618 24.6324 139.096 24.0685 138.463 23.7493C137.83 23.4301 136.894 23.6216 136.261 23.2705C135.628 22.9194 135.319 22.0044 134.67 21.6586C134.021 21.3128 133.133 21.5735 132.452 21.2703C131.819 20.9883 131.244 20.5361 130.531 20.2967C129.877 20.0786 129.276 19.5573 128.531 19.3924C127.861 19.2434 127.089 19.4722 126.329 19.3711C125.648 19.2807 124.967 18.7913 124.206 18.7487C123.52 18.7115 122.78 18.7381 122.02 18.7487C121.312 18.7593 120.615 18.9774 119.966 19.1424C119.317 19.3073 118.642 19.536 118.003 19.802C117.365 20.068 116.923 20.7117 116.29 21.0043C115.657 21.2969 115.03 21.5469 114.381 21.8022C113.758 22.047 112.965 21.8235 112.285 21.9884C111.641 22.1427 111.045 22.8024 110.327 22.8449C109.561 22.8928 108.859 22.5098 108.22 22.43C107.481 22.3342 106.917 21.898 106.3 21.6693C105.63 21.4192 105.055 21.1532 104.454 20.8021C103.863 20.4563 103.017 20.5042 102.422 20.1106C101.863 19.7382 101.459 19.0785 100.836 18.7115C100.262 18.3763 99.6607 18.0039 98.9851 17.706C98.384 17.4453 97.6339 17.4773 96.9157 17.2698C96.288 17.0889 95.6336 16.9134 94.8942 16.7963C94.2505 16.6953 93.5643 16.674 92.8248 16.6314C92.1705 16.5942 91.4895 16.6421 90.7448 16.658C90.0213 16.674 89.3297 16.4825 88.6807 16.541C87.9572 16.6048 87.2337 16.4612 86.5953 16.5729C85.8825 16.7006 85.3186 17.3124 84.6962 17.4932C84.0046 17.6954 83.2652 17.6475 82.664 17.9135C82.0097 18.2008 81.5947 18.8551 81.0255 19.2009C80.4297 19.5626 79.7435 19.7435 79.2115 20.1584C78.6795 20.5734 77.9028 20.7542 77.3974 21.2224C76.8921 21.6905 76.3814 22.1534 75.8866 22.6375C75.4078 23.1109 75.0302 23.7067 74.5301 24.1961C74.0513 24.6643 73.5991 25.175 73.0778 25.6484C72.583 26.0953 72.0723 26.5368 71.5191 26.9784C70.9978 27.3933 70.3966 27.7072 69.8114 28.1062C69.2635 28.4786 68.8166 29.0371 68.1995 29.3936C67.625 29.7234 66.8749 29.7394 66.2312 30.0426C65.545 30.3671 64.9811 30.8565 64.2523 30.9842C63.5235 31.1119 62.784 31.298 62.0339 31.2927C61.2838 31.2874 60.571 30.8671 59.8315 30.798C59.0815 30.7288 58.3207 30.8299 57.5919 30.7661C56.8259 30.7022 56.0758 30.7129 55.3629 30.7395C54.5916 30.7661 53.9798 31.2449 53.2989 31.4736C52.5754 31.7183 51.9742 31.9524 51.3731 32.3833C50.772 32.8142 50.0006 33.0429 49.4952 33.5962C48.9898 34.1495 48.8409 34.974 48.4153 35.5805C47.9897 36.1869 47.3513 36.6817 46.963 37.2934C46.5374 37.9637 45.9948 38.5117 45.6011 39.0756C45.1064 39.7778 44.601 40.2778 44.0903 40.6502C43.4573 41.113 42.8508 41.4748 42.2337 41.8046C41.5475 42.1664 40.8719 42.3472 40.2016 42.56C39.4781 42.7941 38.8716 43.4059 38.1588 43.5016C37.4459 43.5974 36.6533 43.7676 35.9245 43.757C35.1956 43.7463 34.419 43.7038 33.6848 43.624C32.9507 43.5442 32.2485 43.1665 31.5197 43.0548C30.7909 42.943 30.0355 43.0335 29.3013 42.9271C28.5672 42.8207 27.9076 42.0972 27.1681 42.0334C26.4393 41.9748 25.6732 42.4377 24.9285 42.4589C24.1837 42.4802 23.4709 42.4696 22.7314 42.6026C22.0292 42.7303 21.3057 42.8739 20.5822 43.1292C19.9119 43.3686 19.4385 44.007 18.8107 44.3049C18.183 44.6028 17.2148 44.3049 16.619 44.6667C16.0179 45.0337 15.6987 45.8317 15.1348 46.2519C14.5709 46.6722 13.7516 46.7839 13.225 47.2467C12.6983 47.7096 12.3685 48.3958 11.8791 48.9012C11.3896 49.4066 10.7885 49.8109 10.331 50.3482C9.87351 50.8855 9.80435 51.7207 9.37877 52.2846C8.95319 52.8485 8.21374 53.173 7.82007 53.7581C7.42641 54.3433 6.84123 54.8115 6.47417 55.4126C6.1071 56.0137 6.2135 56.8915 5.86771 57.5086C5.52193 58.1257 4.75056 58.5034 4.42605 59.1311C4.10155 59.7589 4.06431 60.5302 3.75576 61.1633C3.44722 61.7963 2.96312 62.3496 2.67053 62.988C2.37794 63.6263 2.03747 64.2541 1.75021 64.8924C1.46294 65.5308 1.23419 66.2118 0.96288 66.8501C0.691571 67.4885 0.319187 68.4301 0.047878 69.0685L0 69.0578Z" fill="#776B5D"/>
<path d="M13.848 71.5583C14.8375 71.9573 14.9226 71.5157 15.9919 71.5157C17.0611 71.5157 17.0611 71.3295 18.1251 71.3295C19.1891 71.3295 19.1944 71.3083 20.2583 71.3083C21.3223 71.3083 21.3276 71.7019 22.3916 71.7019C23.4555 71.7019 23.4608 71.4466 24.5248 71.4466C25.5888 71.4466 25.5888 71.8881 26.658 71.8881C27.7273 71.8881 27.7273 71.3029 28.7913 71.3029C29.8552 71.3029 29.8605 71.2498 30.9245 71.2498C31.9884 71.2498 31.9938 71.2019 33.0577 71.2019C34.1217 71.2019 34.127 71.8669 35.191 71.8669C36.2549 71.8669 36.2602 71.2764 37.3242 71.2764C38.3881 71.2764 38.3935 71.8509 39.4574 71.8509C40.5214 71.8509 40.5267 71.67 41.5906 71.67C42.6546 71.67 42.6599 71.6328 43.7239 71.6328C44.7878 71.6328 44.7931 71.7445 45.8571 71.7445C46.9211 71.7445 46.9264 71.6221 47.9903 71.6221C49.0543 71.6221 49.0596 71.17 50.1236 71.17C51.1875 71.17 51.1928 71.5902 52.2568 71.5902C53.3208 71.5902 53.3261 71.1912 54.39 71.1912C55.454 71.1912 55.4593 71.3455 56.5233 71.3455C57.5872 71.3455 57.5925 71.5583 58.6565 71.5583C59.7204 71.5583 59.7258 71.5583 60.7897 71.5583C61.8537 71.5583 61.859 71.4519 62.923 71.4519C63.9869 71.4519 63.9922 71.819 65.0562 71.819C66.1201 71.819 66.1255 71.7073 67.1894 71.7073C68.2534 71.7073 68.2587 71.4253 69.3226 71.4253C70.3866 71.4253 70.3919 71.936 71.4559 71.936C72.5198 71.936 72.5252 71.4359 73.5891 71.4359C74.6531 71.4359 74.6584 71.5157 75.7223 71.5157C76.7863 71.5157 76.7916 71.7445 77.8556 71.7445C78.9195 71.7445 78.9248 71.7019 79.9888 71.7019C81.0528 71.7019 81.0581 71.1966 82.122 71.1966C83.186 71.1966 83.1913 71.8456 84.2553 71.8456C85.3192 71.8456 85.3245 71.6168 86.3885 71.6168C87.4524 71.6168 87.4524 71.7551 88.5217 71.7551C89.591 71.7551 89.5857 71.5955 90.655 71.5955C91.7242 71.5955 91.7189 71.2125 92.7882 71.2125C93.8575 71.2125 93.8521 71.2285 94.9214 71.2285C95.9907 71.2285 95.9854 71.7445 97.0546 71.7445C98.1239 71.7445 98.1239 71.67 99.1879 71.67C100.252 71.67 100.257 71.686 101.321 71.686C102.385 71.686 102.39 71.6168 103.454 71.6168C104.518 71.6168 104.518 71.803 105.588 71.803C106.657 71.803 106.652 71.4466 107.721 71.4466C108.79 71.4466 108.79 71.7179 109.854 71.7179C110.918 71.7179 110.923 71.8722 111.987 71.8722C113.051 71.8722 113.057 71.3615 114.12 71.3615C115.184 71.3615 115.19 71.2976 116.254 71.2976C117.318 71.2976 117.323 71.9254 118.387 71.9254C119.451 71.9254 119.456 71.4891 120.52 71.4891C121.584 71.4891 121.589 71.6168 122.659 71.6168C123.728 71.6168 123.728 71.8615 124.792 71.8615C125.856 71.8615 125.861 71.5477 126.925 71.5477C127.989 71.5477 127.994 71.7126 129.058 71.7126C130.122 71.7126 130.128 71.2232 131.192 71.2232C132.256 71.2232 132.261 71.2604 133.325 71.2604C134.389 71.2604 134.394 71.2285 135.458 71.2285C136.522 71.2285 136.527 71.6009 137.591 71.6009C138.655 71.6009 138.661 71.271 139.725 71.271C140.789 71.271 140.794 71.936 141.863 71.936C142.932 71.936 142.932 71.7871 143.996 71.7871C145.06 71.7871 145.066 71.803 146.13 71.803C147.194 71.803 147.199 71.2604 148.263 71.2604C149.327 71.2604 149.332 71.6115 150.401 71.6115C151.471 71.6115 151.471 71.8988 152.535 71.8988C153.599 71.8988 153.604 71.42 154.668 71.42C155.732 71.42 155.737 71.4147 156.801 71.4147C157.865 71.4147 157.87 71.4306 158.934 71.4306C159.998 71.4306 160.004 71.92 161.068 71.92C162.131 71.92 162.137 71.7551 163.206 71.7551C164.275 71.7551 164.275 71.6221 165.339 71.6221C166.403 71.6221 166.409 71.6966 167.478 71.6966C168.547 71.6966 168.547 71.5104 169.616 71.5104C170.686 71.5104 170.686 71.4359 171.755 71.4359C172.824 71.4359 172.824 71.2976 173.894 71.2976C174.963 71.2976 174.963 71.6009 176.032 71.6009C177.101 71.6009 177.101 71.6009 178.171 71.6009C179.24 71.6009 179.24 71.6062 180.309 71.6062C181.378 71.6062 181.378 71.6221 182.448 71.6221C183.517 71.6221 183.485 71.6647 184.485 71.2817C185.485 70.8986 184.522 70.7497 184.347 69.4251C184.267 68.8186 184.331 68.0738 184.182 67.2759C184.065 66.6269 183.948 65.9087 183.772 65.1639C183.618 64.499 183.485 63.7808 183.278 63.0679C183.086 62.403 182.895 61.6954 182.65 61.0039C182.405 60.3123 182.251 59.6154 181.969 58.9504C181.687 58.2855 180.825 57.9131 180.495 57.2694C180.166 56.6257 179.974 55.9447 179.596 55.333C179.219 54.7212 179.176 53.8807 178.745 53.3061C178.314 52.7316 177.288 52.6678 176.798 52.1411C176.309 51.6145 175.936 51.0346 175.388 50.5665C174.84 50.0983 174.489 49.4174 173.888 49.0131C173.287 48.6088 172.691 48.2204 172.042 47.8959C171.415 47.5821 170.68 47.4757 169.989 47.2363C169.329 47.0075 168.712 46.5341 167.994 46.3745C167.281 46.2202 166.605 46.0659 166.01 46.0234C165.286 45.9702 164.611 46.1883 164.004 46.2468C163.318 46.316 162.669 46.3958 162.036 46.5234C161.403 46.6511 160.775 46.7628 160.094 46.8639C159.488 46.9543 158.865 47.0873 158.147 47.0873C157.551 47.0873 156.945 46.7947 156.227 46.6883C155.631 46.5979 154.87 47.0714 154.168 46.8905C153.365 46.683 152.875 45.8638 152.274 45.5712C151.535 45.2094 151.003 44.8371 150.492 44.3742C149.912 43.8476 149.497 43.3369 149.109 42.7251C148.72 42.1133 148.066 41.6186 147.736 40.9536C147.406 40.2886 147.449 39.4056 147.055 38.7672C146.678 38.1501 146.039 37.6394 145.481 37.0968C144.991 36.618 144.475 35.9637 143.757 35.5753C143.166 35.2561 142.369 35.1178 141.571 34.8838C140.922 34.6922 140.113 34.9529 139.304 34.8306C138.629 34.7295 137.932 34.2401 137.123 34.1922C136.214 34.139 135.469 34.5326 134.836 34.5858C133.836 34.671 133.203 34.788 132.681 35.0699C131.926 35.4796 131.24 35.7456 130.761 36.3414C130.346 36.8574 130.037 37.4745 129.223 37.9479C128.686 38.2618 127.984 38.3416 127.069 38.5704C126.436 38.73 125.797 39.4854 124.914 39.5864C124.031 39.6875 123.292 39.5864 122.669 39.512C121.845 39.4109 121.111 39.1289 120.526 38.8151C119.882 38.4693 119.68 37.533 119.105 37.0595C118.578 36.6286 117.663 36.6659 116.998 36.2456C116.445 35.8945 116.073 35.0008 115.307 34.7242C114.7 34.506 113.833 34.9316 113.03 34.804C112.386 34.6976 111.721 34.123 110.918 34.0911C110.253 34.0645 109.508 34.1071 108.716 34.139C107.923 34.1709 107.168 34.0964 106.487 34.2028C105.737 34.3199 105.077 34.7774 104.38 34.9423C103.683 35.1072 103.018 35.4849 102.3 35.6604C101.619 35.8307 100.911 36.0009 100.156 36.1392C99.4805 36.2616 98.7144 35.969 97.9377 36.0435C97.1983 36.1126 96.5173 36.6606 95.8737 36.6233C95.1395 36.5808 94.5224 36.0062 93.8894 35.8573C93.1872 35.687 92.5062 35.6126 91.8945 35.3572C91.2401 35.0806 90.6124 34.7986 90.0219 34.4688C89.4314 34.139 88.9207 33.5804 88.3249 33.2506C87.7291 32.9208 87.112 32.5005 86.4736 32.2398C85.8352 31.9792 85.0851 31.9898 84.3776 31.8728C83.7392 31.7717 83.0636 32.1441 82.3189 32.2079C81.5954 32.2717 80.9038 32.1441 80.2654 32.2451C79.5419 32.3622 78.8291 32.2824 78.2014 32.4473C77.4938 32.6282 76.8235 32.825 76.2171 33.0591C75.5415 33.3251 75.0467 33.873 74.4775 34.1922C73.8604 34.5433 73.4295 35.0699 72.9082 35.4796C72.3868 35.8892 71.6367 36.0967 71.158 36.5808C70.6792 37.0649 69.9397 37.3362 69.4876 37.8575C69.0354 38.3788 68.7907 39.0545 68.3438 39.5918C67.8969 40.1291 67.5299 40.6717 67.0617 41.1983C66.6202 41.6931 66.434 42.4698 65.9286 42.9698C65.4605 43.4326 64.9657 43.9487 64.4231 44.4115C63.6677 45.0498 62.7474 44.9062 62.0718 44.736C61.4015 44.5657 60.6089 44.3104 59.9332 43.8316C59.3161 43.3954 58.8214 42.7145 58.1298 42.4166C57.4383 42.1186 56.7148 42.0548 55.8955 42.2516C55.1561 42.4272 54.4326 42.507 53.9006 42.8687C53.3261 43.2624 53.1665 44.0657 52.7303 44.603C52.294 45.1403 51.9429 45.6723 51.5493 46.2628C51.1556 46.8533 50.6928 47.3374 50.2619 47.8959C49.8576 48.4226 49.0543 48.5875 48.5223 49.0663C48.0382 49.4972 47.719 50.1675 47.0753 50.5186C46.3891 50.8963 45.8145 51.3059 45.2507 51.4602C44.5112 51.6623 43.8515 51.1569 43.2398 51.0931C42.5642 51.024 41.8194 51.4017 41.1757 51.1782C40.5692 50.9654 40.0213 50.5133 39.3351 50.3164C38.7392 50.1462 38.0902 49.9547 37.3561 49.8962C36.7496 49.8483 36.0528 49.7579 35.308 49.8483C34.5632 49.9387 33.9355 50.3643 33.2546 50.5239C32.5736 50.6835 31.9618 51.1144 31.2969 51.3538C30.6319 51.5932 29.9191 51.6996 29.286 52.0081C28.6529 52.3167 27.8656 52.3805 27.2592 52.7529C26.6527 53.1253 26.3122 53.886 25.743 54.3116C25.1738 54.7372 24.2322 54.7212 23.7002 55.1947C23.1683 55.6681 22.7533 56.3012 22.2639 56.8119C21.7745 57.3226 21.6734 58.195 21.2212 58.7376C20.769 59.2803 20.2317 59.7644 19.8221 60.3282C19.4125 60.8921 18.7901 61.3603 18.4124 61.9455C18.0134 62.5626 17.7634 63.2382 17.4176 63.8393C17.0452 64.4883 16.8005 65.1586 16.4919 65.7597C16.1461 66.4407 15.7099 67.0205 15.4386 67.6163C15.1035 68.3505 14.8322 69.0154 14.6141 69.5793C14.1246 70.8189 12.8 71.17 13.7895 71.5689L13.848 71.5583Z" fill="#A79277"/>
<path d="M122.823 15.1899C123.563 16.4241 125.542 18.7914 123.68 19.967C121.818 21.1427 120.089 18.8818 119.493 17.3657C119.28 16.8337 118.503 15.4346 117.53 13.8546C116.838 12.7321 116.088 11.4979 115.498 10.3648C114.572 8.5827 114.163 7.2634 114.801 6.83782C115.439 6.41224 116.753 7.06657 118.115 8.54015C118.993 9.48707 119.849 10.6893 120.653 11.748C121.802 13.2641 122.562 14.743 122.828 15.1899H122.823Z" fill="#59B140"/>
<path d="M122.142 16.0729C121.658 17.4294 120.354 20.2862 122.408 21.0735C124.461 21.8608 126.594 19.0732 126.882 17.472C126.967 16.9932 127.345 15.3494 128.015 13.3013C128.43 12.0299 129.063 10.6467 129.499 9.21038C129.935 7.77404 130.164 6.24194 130.467 4.9652C130.994 2.73089 131.185 1.08176 130.595 0.84237C130.004 0.60298 129.121 2.04464 127.972 4.10871C127.318 5.27906 126.461 6.57177 125.797 7.97619C125.132 9.38061 124.674 10.8436 124.131 12.0937C123.243 14.1525 122.28 15.6633 122.137 16.0782L122.142 16.0729Z" fill="#65A34E"/>
</svg>
