<svg width="161" height="195" viewBox="0 0 161 195" fill="none" xmlns="http://www.w3.org/2000/svg">
<path d="M66.3504 180.537C66.5713 181.491 66.6677 182.485 66.2982 183.257C65.9287 184.029 65.2579 184.737 64.4908 185.329C63.8482 185.828 62.8281 185.864 61.9686 186.274C61.2135 186.632 60.3901 186.894 59.5146 187.187C58.7033 187.461 58.0486 188.39 57.1731 188.619C56.3297 188.841 55.3818 188.764 54.5143 188.945C53.6427 189.126 52.723 189.038 51.8595 189.187C50.996 189.336 50.1566 189.919 49.3091 190.048C48.3854 190.184 47.4536 189.947 46.6343 190.056C45.8471 190.16 44.9916 190.297 44.0759 190.41C43.2565 190.51 42.4051 190.671 41.5175 190.764C40.6781 190.852 39.8065 190.78 38.935 190.844C38.0795 190.909 37.216 190.772 36.3565 190.8C35.497 190.828 34.6295 191.218 33.7821 191.198C32.8985 191.178 32.0751 190.651 31.2478 190.559C30.3481 190.462 29.5408 190.345 28.7496 190.152C27.854 189.931 26.7535 190.369 26.0466 189.995C25.2313 189.561 24.9903 188.491 24.5204 187.815C24.0545 187.143 23.7493 186.495 23.7011 185.542C23.6529 184.568 23.428 183.651 23.7252 182.875C24.0425 182.042 24.7213 181.394 25.3679 180.759C25.9663 180.171 26.8218 179.91 27.6491 179.463C28.3881 179.061 29.1593 178.719 30.0348 178.409C30.8381 178.128 31.5851 177.552 32.4727 177.335C33.3122 177.126 34.1355 176.671 35.0271 176.51C35.8866 176.35 36.8304 176.559 37.714 176.43C38.5976 176.301 39.4451 175.955 40.3206 175.847C41.2082 175.734 42.1641 176.213 43.0316 176.108C43.8469 176.012 44.6703 175.782 45.5378 175.698C46.3692 175.617 47.1885 175.207 48.044 175.147C48.8995 175.086 49.7389 175.022 50.5903 174.994C51.4418 174.966 52.2973 175.32 53.1367 175.328C53.9761 175.336 54.8637 174.962 55.6911 175.018C56.5626 175.074 57.3418 175.702 58.1571 175.823C59.0326 175.951 59.9042 175.814 60.6833 176.028C61.5549 176.265 62.4867 176.257 63.1935 176.619C64.0008 177.029 64.3342 177.967 64.8764 178.558C65.4467 179.186 66.1495 179.685 66.3504 180.545V180.537Z" fill="#222222"/>
<path d="M133.08 188.511C133.253 187.614 133.61 186.821 133.417 186.057C133.213 185.253 132.429 184.782 131.887 184.114C131.389 183.503 131.297 182.368 130.574 181.857C129.927 181.399 128.819 181.608 128.036 181.226C127.313 180.868 126.803 179.93 125.999 179.632C125.196 179.335 124.325 179.387 123.513 179.146C122.718 178.908 121.939 178.554 121.128 178.357C120.308 178.16 119.509 177.854 118.702 177.689C117.862 177.516 116.934 177.903 116.139 177.766C115.276 177.613 114.505 177.122 113.733 177.001C112.926 176.873 112.079 176.47 111.139 176.334C110.3 176.209 109.348 176.535 108.44 176.422C107.576 176.318 106.713 175.956 105.817 175.883C104.934 175.807 104.034 175.787 103.15 175.754C102.251 175.726 101.343 175.577 100.472 175.614C99.5559 175.65 98.6562 175.859 97.8088 175.988C96.8891 176.128 95.9412 176.189 95.146 176.462C94.2584 176.768 93.7443 177.701 93.0695 178.208C92.3506 178.751 91.7 179.226 91.3024 180.043C90.9409 180.775 90.9208 181.588 90.8847 182.577C90.8485 183.486 90.7561 184.279 90.9329 185.043C91.1297 185.904 91.1457 186.813 91.5755 187.505C92.0052 188.197 92.9973 188.443 93.6439 189.006C94.2905 189.569 94.668 190.362 95.4311 190.78C96.142 191.17 97.0939 191.062 97.9052 191.367C98.6683 191.657 99.3832 192.092 100.211 192.321C101.006 192.542 101.741 193.073 102.576 193.25C103.391 193.423 104.311 193.069 105.143 193.214C105.974 193.359 106.773 193.644 107.601 193.769C108.44 193.894 109.267 194.059 110.087 194.179C110.922 194.3 111.778 194.465 112.669 194.57C113.521 194.67 114.376 194.92 115.256 194.992C116.119 195.06 117.011 194.727 117.882 194.759C118.754 194.791 119.613 194.811 120.477 194.799C121.34 194.787 122.224 194.847 123.071 194.771C123.967 194.69 124.847 194.779 125.674 194.618C126.566 194.445 127.509 194.505 128.293 194.22C129.152 193.906 129.678 193.025 130.365 192.554C131.108 192.047 132.04 191.786 132.526 191.07C133.012 190.354 132.903 189.428 133.08 188.511Z" fill="#222222"/>
<path d="M155.42 127.809C155.476 128.139 155.709 128.436 155.761 128.762C155.813 129.088 155.901 129.414 155.946 129.744C155.99 130.074 155.926 130.42 155.966 130.746C156.006 131.071 156.171 131.393 156.207 131.719C156.243 132.045 156.729 132.339 156.761 132.669C156.793 132.998 156.395 133.373 156.424 133.702C156.452 134.032 156.873 134.342 156.894 134.676C156.914 135.01 156.777 135.356 156.793 135.686C156.809 136.016 156.6 136.362 156.612 136.695C156.624 137.029 156.624 137.363 156.628 137.693C156.632 138.023 156.737 138.361 156.733 138.695C156.729 139.029 156.351 139.355 156.343 139.685C156.335 140.014 156.432 140.352 156.416 140.682C156.4 141.012 156.661 141.366 156.636 141.696C156.612 142.026 156.074 142.316 156.042 142.645C156.01 142.975 156.476 143.361 156.436 143.687C156.395 144.013 156.275 144.343 156.231 144.669C156.187 144.995 155.91 145.292 155.857 145.622C155.805 145.952 155.789 146.286 155.729 146.612C155.669 146.938 156.098 147.368 156.03 147.694C155.962 148.02 155.251 148.205 155.175 148.527C155.098 148.849 155.243 149.227 155.158 149.549C155.074 149.871 154.853 150.152 154.757 150.47C154.66 150.788 154.721 151.154 154.62 151.468C154.52 151.782 154.777 152.228 154.668 152.542C154.56 152.856 154.427 153.173 154.311 153.483C154.195 153.793 153.584 153.914 153.46 154.223C153.335 154.533 153.275 154.863 153.138 155.169C153.002 155.475 152.853 155.768 152.713 156.066C152.572 156.364 152.488 156.694 152.335 156.991C152.182 157.289 151.865 157.49 151.708 157.784C151.552 158.077 151.7 158.54 151.536 158.83C151.371 159.119 150.965 159.264 150.789 159.546C150.612 159.827 150.311 160.02 150.126 160.302C149.941 160.584 150.186 161.143 149.997 161.416C149.809 161.69 149.66 162.004 149.463 162.269C149.267 162.535 148.564 162.422 148.359 162.684C148.154 162.945 148.295 163.476 148.082 163.734C147.869 163.991 147.56 164.16 147.339 164.414C147.118 164.667 146.72 164.747 146.495 164.993C146.27 165.238 146.278 165.697 146.049 165.938C145.821 166.18 145.471 166.3 145.234 166.534C144.997 166.767 145.102 167.354 144.861 167.584C144.62 167.813 144.347 168.018 144.102 168.239C143.857 168.461 143.624 168.714 143.371 168.931C143.118 169.149 142.62 169.076 142.362 169.289C142.105 169.503 142.057 169.973 141.796 170.178C141.535 170.384 140.864 170.058 140.599 170.259C140.334 170.46 140.162 170.774 139.892 170.967C139.623 171.16 139.346 171.337 139.073 171.526C138.8 171.715 138.832 172.355 138.555 172.54C138.278 172.725 137.804 172.608 137.523 172.785C137.242 172.962 136.812 172.89 136.527 173.063C136.242 173.236 136.205 173.819 135.92 173.984C135.635 174.149 135.346 174.322 135.057 174.487C134.768 174.648 134.466 174.797 134.173 174.958C133.88 175.119 133.362 174.833 133.065 174.986C132.768 175.139 132.555 175.436 132.253 175.585C131.952 175.734 131.719 175.996 131.418 176.14C131.117 176.285 130.787 176.358 130.486 176.494C130.185 176.631 129.96 176.941 129.655 177.078C129.35 177.215 129.077 177.416 128.771 177.544C128.466 177.673 128.213 177.935 127.904 178.059C127.594 178.184 127.177 178.027 126.864 178.148C126.55 178.269 126.245 178.385 125.932 178.502C125.618 178.619 125.309 178.727 124.996 178.84C124.683 178.952 124.365 179.049 124.052 179.158C123.739 179.266 123.538 179.717 123.225 179.821C122.911 179.926 122.51 179.781 122.193 179.882C121.875 179.982 121.51 179.918 121.188 180.015C120.871 180.111 120.546 180.179 120.225 180.272C119.903 180.364 119.574 180.405 119.253 180.493C118.931 180.582 118.606 180.638 118.285 180.727C117.963 180.815 117.618 180.791 117.297 180.875C116.975 180.96 116.807 181.648 116.485 181.728C116.164 181.809 115.799 181.724 115.473 181.801C115.148 181.877 114.726 181.519 114.401 181.596C114.076 181.672 113.915 182.477 113.59 182.549C113.264 182.621 112.907 182.537 112.577 182.605C112.248 182.674 111.863 182.416 111.533 182.481C111.204 182.545 110.875 182.569 110.549 182.629C110.224 182.69 109.931 182.939 109.601 183C109.272 183.06 108.899 182.831 108.569 182.887C108.24 182.943 107.907 182.943 107.577 182.995C107.248 183.048 106.955 183.297 106.625 183.345C106.296 183.394 105.963 183.406 105.633 183.454C105.304 183.502 104.975 183.527 104.645 183.571C104.316 183.615 103.999 183.74 103.669 183.78C103.34 183.82 102.983 183.619 102.649 183.659C102.316 183.7 102.063 184.351 101.729 184.391C101.396 184.432 101.002 183.86 100.673 183.897C100.344 183.933 100.014 183.961 99.6811 183.997C99.3477 184.033 99.0224 184.074 98.6931 184.106C98.3637 184.138 98.0625 184.528 97.7332 184.556C97.4038 184.585 97.0384 184.182 96.705 184.21C96.3717 184.239 96.0584 184.476 95.729 184.5C95.3997 184.524 95.0543 184.331 94.721 184.351C94.3876 184.371 94.0703 184.568 93.737 184.585C93.4036 184.601 93.0943 185.051 92.765 185.067C92.4357 185.083 92.0822 184.681 91.7489 184.697C91.4155 184.713 91.1022 185.12 90.7689 185.132C90.4355 185.144 90.1022 185.091 89.7688 185.099C89.4355 185.108 89.0901 184.689 88.7607 184.697C88.4274 184.705 88.1021 184.882 87.7687 184.89C87.4354 184.898 87.102 184.705 86.7686 184.709C86.4353 184.713 86.11 185.361 85.7766 185.361C85.4433 185.361 85.1099 185.277 84.7766 185.277C84.4432 185.277 84.1098 185.252 83.7765 185.252C83.4431 185.252 83.1138 184.637 82.7845 184.637C82.4551 184.637 82.1137 185.252 81.7804 185.248C81.451 185.244 81.1297 184.609 80.7964 184.601C80.463 184.593 80.1216 185.228 79.7923 185.224C79.463 185.22 79.1417 184.701 78.8123 184.693C78.483 184.685 78.1496 184.717 77.8203 184.705C77.491 184.693 77.1656 184.524 76.8323 184.512C76.4989 184.5 76.1616 184.802 75.8282 184.79C75.4949 184.778 75.1575 184.959 74.8281 184.943C74.4988 184.927 74.1655 184.922 73.8321 184.906C73.5028 184.89 73.1895 184.472 72.8561 184.46C72.5228 184.448 72.1653 184.971 71.836 184.955C71.5067 184.939 71.2014 184.444 70.8681 184.424C70.5347 184.404 70.1973 184.54 69.868 184.52C69.5387 184.5 69.2053 184.512 68.8719 184.492C68.5386 184.472 68.2253 184.222 67.896 184.198C67.5666 184.174 67.2413 184.062 66.912 184.037C66.5826 184.013 66.2332 184.218 65.9039 184.19C65.5746 184.166 65.2091 184.548 64.8797 184.52C64.5504 184.492 64.2371 184.251 63.9038 184.222C63.5744 184.194 63.2612 183.945 62.9318 183.913C62.6025 183.881 62.2731 183.832 61.9438 183.8C61.6145 183.768 61.257 184.017 60.9237 183.981C60.5903 183.945 60.2409 184.11 59.9115 184.074C59.5822 184.037 59.289 183.651 58.9597 183.615C58.6303 183.579 58.3412 183.173 58.0118 183.136C57.6825 183.1 57.325 183.301 56.9957 183.261C56.6664 183.221 56.329 183.249 55.9997 183.209C55.6703 183.168 55.2888 183.514 54.9594 183.47C54.6301 183.426 54.2927 183.426 53.9634 183.382C53.634 183.337 53.3529 182.951 53.0236 182.903C52.6942 182.855 52.3328 183.036 52.0034 182.987C51.6741 182.939 51.3849 182.625 51.0596 182.573C50.7303 182.521 50.3889 182.553 50.0635 182.501C49.7382 182.448 49.449 182.155 49.1197 182.102C48.7904 182.05 48.3847 182.444 48.0594 182.384C47.7341 182.324 47.4047 182.259 47.0794 182.199C46.7541 182.139 46.4489 181.954 46.1195 181.893C45.7902 181.833 45.5613 181.278 45.2359 181.213C44.9106 181.149 44.513 181.435 44.1877 181.366C43.8624 181.298 43.5009 181.398 43.1756 181.326C42.8502 181.254 42.6454 180.646 42.3201 180.574C41.9948 180.501 41.5409 181.008 41.2196 180.932C40.8983 180.855 40.6252 180.558 40.2999 180.481C39.9746 180.405 39.6653 180.272 39.344 180.192C39.0227 180.111 38.7255 179.926 38.4042 179.846C38.0829 179.765 37.6853 179.974 37.364 179.886C37.0426 179.797 36.6571 179.946 36.3358 179.858C36.0145 179.769 35.7414 179.512 35.4201 179.419C35.0988 179.327 34.8698 178.928 34.5525 178.832C34.2352 178.735 33.7854 179.061 33.4721 178.965C33.1589 178.868 33.0223 178.176 32.705 178.075C32.3877 177.975 32.0223 178.031 31.709 177.927C31.3957 177.822 30.9138 178.196 30.6005 178.088C30.2872 177.979 30.0101 177.75 29.6968 177.637C29.3835 177.524 29.1546 177.178 28.8453 177.062C28.5321 176.945 28.1746 176.957 27.8654 176.84C27.5561 176.724 27.2067 176.696 26.8974 176.571C26.5882 176.446 26.3352 176.185 26.0259 176.06C25.7166 175.935 25.4114 175.807 25.1062 175.674C24.8009 175.541 24.4154 175.585 24.1141 175.448C23.8129 175.312 23.5157 175.151 23.2145 175.01C22.9132 174.869 22.6602 174.62 22.359 174.475C22.0578 174.33 21.9694 173.763 21.6762 173.614C21.383 173.465 20.9493 173.578 20.6561 173.421C20.3629 173.264 20.1139 173.023 19.8247 172.866C19.5355 172.709 19.3628 172.335 19.0777 172.17C18.7925 172.005 18.2744 172.23 17.9892 172.061C17.7041 171.892 17.5274 171.542 17.2462 171.365C16.9651 171.188 16.7201 170.959 16.4389 170.778C16.1578 170.597 15.8927 170.404 15.6196 170.219C15.3465 170.034 14.8445 170.162 14.5754 169.973C14.3063 169.784 13.9689 169.667 13.7038 169.466C13.4388 169.265 13.5271 168.601 13.2661 168.396C13.005 168.191 12.6395 168.119 12.3865 167.909C12.1335 167.7 11.8322 167.535 11.5832 167.318C11.3342 167.101 11.0691 166.896 10.8241 166.67C10.5791 166.445 10.294 166.26 10.057 166.031C9.82006 165.801 9.89637 165.254 9.66343 165.017C9.43048 164.78 8.70353 165.017 8.47861 164.776C8.2537 164.534 8.00469 164.293 7.78781 164.043C7.57093 163.794 7.78781 163.166 7.57896 162.909C7.37011 162.651 7.03676 162.499 6.83192 162.237C6.62709 161.976 6.52267 161.642 6.32988 161.372C6.1371 161.103 6.08087 160.745 5.89211 160.471C5.70334 160.197 5.24146 160.113 5.06073 159.831C4.87999 159.55 4.84385 159.188 4.67516 158.902C4.50648 158.616 3.88796 158.58 3.72731 158.291C3.56666 158.001 3.41806 157.687 3.26945 157.389C3.12085 157.092 2.94815 156.794 2.80758 156.492C2.667 156.191 2.73127 155.792 2.60274 155.483C2.47422 155.173 2.1489 154.94 2.02841 154.63C1.90792 154.32 2.1971 153.857 2.08865 153.544C1.98021 153.23 2.06857 152.86 1.96817 152.538C1.86776 152.216 1.69104 151.934 1.6067 151.613C1.52235 151.291 1.51834 150.957 1.43801 150.631C1.35769 150.305 1.02835 150.044 0.960071 149.718C0.891793 149.392 0.899826 149.054 0.843597 148.724C0.787369 148.394 0.727124 148.072 0.682945 147.742C0.638765 147.413 0.345574 147.115 0.309428 146.781C0.273281 146.447 0.301395 146.109 0.273281 145.775C0.245167 145.441 0.650814 145.087 0.634749 144.753C0.618684 144.42 0.124677 144.114 0.112628 143.776C0.100579 143.438 0.269264 143.108 0.269264 142.774C0.269264 142.44 -0.00786132 142.114 0.000171308 141.78C0.00820394 141.447 0.674912 141.141 0.690978 140.807C0.707043 140.473 0.060416 140.107 0.0845139 139.773C0.108612 139.439 0.502211 139.141 0.534341 138.808C0.566472 138.474 0.727124 138.164 0.763271 137.83C0.799418 137.496 0.875728 137.178 0.923924 136.848C0.97212 136.518 1.14884 136.217 1.20105 135.887C1.25326 135.557 1.01228 135.187 1.06851 134.857C1.12474 134.527 0.944005 134.157 1.00827 133.827C1.07253 133.497 1.06851 133.159 1.13679 132.829C1.20507 132.5 1.69506 132.274 1.77538 131.948C1.85571 131.623 1.48219 131.192 1.56252 130.866C1.64284 130.54 2.1248 130.327 2.21316 130.001C2.30152 129.675 2.01636 129.257 2.10874 128.935C2.20111 128.613 2.74733 128.424 2.84372 128.102C2.94011 127.781 3.16503 127.503 3.26142 127.181C3.35781 126.859 3.42207 126.534 3.51846 126.216C3.61486 125.898 3.34175 125.459 3.44215 125.142C3.54256 124.824 3.55059 124.474 3.651 124.156C3.75141 123.838 3.80362 123.5 3.90805 123.182C4.01247 122.865 4.11288 122.543 4.2173 122.229C4.32173 121.915 4.81573 121.726 4.92417 121.408C5.03261 121.09 5.05671 120.749 5.16515 120.431C5.27359 120.113 5.26154 119.755 5.374 119.441C5.48646 119.127 5.63908 118.826 5.75153 118.512C5.86399 118.198 6.05276 117.908 6.16923 117.599C6.2857 117.289 6.53472 117.023 6.65521 116.709C6.7757 116.396 6.73553 116.022 6.85201 115.712C6.96848 115.402 6.94036 115.028 7.06085 114.718C7.18134 114.408 7.6633 114.239 7.78781 113.93C7.91231 113.62 7.61511 113.133 7.73961 112.827C7.86412 112.522 8.37821 112.369 8.51074 112.063C8.64328 111.757 8.33804 111.262 8.47058 110.957C8.60312 110.651 9.32606 110.603 9.45859 110.297C9.59113 109.991 9.09713 109.404 9.23368 109.098C9.37024 108.792 9.72769 108.587 9.86826 108.285C10.0088 107.984 10.2257 107.714 10.3663 107.412C10.5069 107.111 10.9888 106.97 11.1334 106.668C11.278 106.367 11.0852 105.9 11.2298 105.598C11.3744 105.296 11.7399 105.103 11.8925 104.806C12.0451 104.508 11.6997 103.953 11.8523 103.655C12.0049 103.357 12.4066 103.188 12.5632 102.891C12.7198 102.593 13.0773 102.408 13.2379 102.114C13.3986 101.821 13.3946 101.438 13.5593 101.145C13.7239 100.851 14.1416 100.706 14.3063 100.417C14.471 100.127 14.0934 99.5235 14.2621 99.2338C14.4308 98.9442 15.1618 98.9844 15.3304 98.6988C15.4991 98.4132 15.1296 97.7976 15.3023 97.512C15.475 97.2264 15.8325 97.0494 16.0092 96.7678C16.1859 96.4862 16.6478 96.3816 16.8285 96.1C17.0093 95.8184 16.8807 95.3356 17.0615 95.058C17.2422 94.7804 17.7844 94.7362 17.9692 94.4586C18.1539 94.181 18.3065 93.8833 18.4953 93.6098C18.6841 93.3362 18.7805 92.9943 18.9692 92.7207C19.158 92.4471 19.3668 92.1856 19.5636 91.9161C19.7604 91.6466 19.6359 91.1397 19.8327 90.8701C20.0295 90.6006 20.2585 90.3472 20.4593 90.0816C20.6601 89.8161 21.2344 89.8322 21.4393 89.5707C21.6441 89.3092 21.4111 88.6978 21.62 88.4363C21.8288 88.1748 22.3188 88.1386 22.5277 87.8811C22.7365 87.6236 23.1703 87.5472 23.3832 87.2897C23.596 87.0323 23.7928 86.7627 24.0057 86.5093C24.2186 86.2558 24.0539 85.6645 24.2748 85.415C24.4957 85.1656 24.9656 85.1375 25.1905 84.888C25.4154 84.6386 25.6725 84.4254 25.8974 84.18C26.1223 83.9346 26.1384 83.4921 26.3673 83.2467C26.5962 83.0013 26.8492 82.784 27.0822 82.5427C27.3151 82.3013 27.5119 82.0237 27.7489 81.7904C27.9859 81.557 28.1786 81.2714 28.4196 81.0381C28.6606 80.8047 29.0582 80.7364 29.2992 80.507C29.5402 80.2777 29.9498 80.2295 30.1948 80.0042C30.4398 79.7789 30.3715 79.2076 30.6206 78.9824C30.8696 78.7571 31.3234 78.7651 31.5724 78.5479C31.8214 78.3306 31.8255 77.8157 32.0825 77.5985C32.3395 77.3812 32.7532 77.3571 33.0103 77.1479C33.2673 76.9387 33.7573 77.0151 34.0184 76.8059C34.2794 76.5967 34.5525 76.4117 34.8176 76.2065C35.0827 76.0014 35.2474 75.6795 35.5164 75.4784C35.7855 75.2772 36.0145 75.0358 36.2836 74.8387C36.5527 74.6416 36.8218 74.4485 37.0949 74.2554C37.368 74.0623 37.7013 73.9617 37.9744 73.7726C38.2475 73.5836 38.3921 73.2014 38.6693 73.0163C38.9464 72.8313 39.4083 72.9318 39.6894 72.7508C39.9705 72.5698 40.075 72.1232 40.3561 71.9422C40.6373 71.7612 40.8421 71.4595 41.1272 71.2865C41.4124 71.1135 41.8863 71.2583 42.1755 71.0893C42.4647 70.9204 42.6575 70.5945 42.9466 70.4256C43.2358 70.2606 43.4969 70.0474 43.7901 69.8865C44.0832 69.7256 44.1837 69.2066 44.4768 69.0497C44.77 68.8928 45.1074 68.8083 45.4046 68.6514C45.7018 68.4945 46.1637 68.6675 46.4609 68.5187C46.7581 68.3698 46.8866 67.875 47.1879 67.7262C47.4891 67.5773 47.9068 67.6819 48.212 67.5411C48.5173 67.4003 48.8868 67.4164 49.192 67.2796C49.4972 67.1428 49.8306 67.0825 50.1358 66.9457C50.4411 66.8089 50.7503 66.6963 51.0596 66.5635C51.3688 66.4308 51.7062 66.3946 52.0155 66.2699C52.3247 66.1451 52.4573 65.5819 52.7705 65.4572C53.0838 65.3325 53.3489 65.0952 53.6622 64.9785C53.9754 64.8618 54.2847 64.7331 54.598 64.6164C54.9112 64.4998 55.3169 64.6446 55.6342 64.536C55.9515 64.4274 56.1965 64.1176 56.5137 64.013C56.831 63.9084 57.3451 64.4153 57.6624 64.3107C57.9797 64.2061 58.1444 63.6348 58.4657 63.5343C58.787 63.4337 59.1243 63.4136 59.4457 63.317C59.767 63.2205 60.0963 63.1682 60.4176 63.0756C60.7389 62.9831 60.9518 62.5004 61.2731 62.4119C61.5944 62.3234 62.1045 62.9429 62.4258 62.8584C62.7471 62.7739 62.9479 62.2147 63.2732 62.1343C63.5985 62.0538 64.0202 62.3998 64.3456 62.3193C64.6709 62.2389 64.9319 61.909 65.2573 61.8326C65.5826 61.7561 65.9441 61.8607 66.2694 61.7923C66.5947 61.7239 66.8276 61.1969 67.153 61.1326C67.4783 61.0642 67.888 61.4142 68.2173 61.3538C68.5466 61.2935 68.9121 61.4705 69.2414 61.4101C69.5708 61.3498 69.7997 60.7584 70.1291 60.7021C70.4584 60.6458 70.8681 61.0843 71.1974 61.032C71.5267 60.9797 71.8039 60.6136 72.1332 60.5613C72.4625 60.509 72.82 60.6619 73.1493 60.6136C73.4787 60.5653 73.812 60.5734 74.1454 60.5291C74.4787 60.4849 74.796 60.3843 75.1294 60.34C75.4627 60.2958 75.7278 59.7245 76.0612 59.6883C76.3945 59.6521 76.752 59.8492 77.0853 59.813C77.4187 59.7768 77.744 59.7165 78.0773 59.6843C78.4107 59.6521 78.736 59.5757 79.0694 59.5475C79.4027 59.5194 79.7682 59.9136 80.1016 59.8855C80.4349 59.8573 80.7161 59.1613 81.0494 59.1372C81.3828 59.113 81.7483 59.5355 82.0816 59.5153C82.415 59.4952 82.7363 59.2659 83.0696 59.2498C83.403 59.2337 83.7524 59.4832 84.0857 59.4671C84.4191 59.451 84.7525 59.5596 85.0858 59.5435C85.4192 59.5274 85.7284 58.8797 86.0578 58.8717C86.3871 58.8636 86.7365 59.4268 87.0699 59.4188C87.4032 59.4107 87.7326 59.5475 88.0659 59.5475C88.3993 59.5475 88.7286 59.4992 89.058 59.4992C89.3873 59.4992 89.7247 59.2659 90.054 59.274C90.3833 59.282 90.7127 59.4992 91.042 59.5073C91.3713 59.5153 91.7127 59.2699 92.0461 59.282C92.3794 59.2941 92.6967 59.5717 93.0261 59.5878C93.3554 59.6038 93.7048 59.3263 94.0342 59.3464C94.3635 59.3665 94.7009 59.3504 95.0302 59.3745C95.3596 59.3987 95.709 59.2659 96.0383 59.2981C96.3676 59.3303 96.6769 59.6401 97.0062 59.6722C97.3356 59.7044 97.697 59.4751 98.0264 59.5153C98.3557 59.5556 98.6288 60.0584 98.9582 60.1027C99.2875 60.1469 99.5968 60.3079 99.9261 60.3521C100.255 60.3964 100.629 60.1268 100.954 60.1791C101.284 60.2314 101.609 60.2998 101.934 60.3561C102.26 60.4125 102.581 60.5171 102.906 60.5774C103.232 60.6377 103.605 60.4688 103.93 60.5372C104.256 60.6056 104.549 60.8268 104.874 60.8992C105.2 60.9716 105.525 61.036 105.846 61.1124C106.167 61.1889 106.404 61.6153 106.726 61.6958C107.047 61.7762 107.557 61.1446 107.874 61.2331C108.192 61.3216 108.485 61.5308 108.806 61.6234C109.127 61.7159 109.477 61.7239 109.79 61.8205C110.103 61.917 110.429 62.0216 110.746 62.1222C111.063 62.2228 111.288 62.609 111.602 62.7136C111.915 62.8182 112.312 62.7055 112.622 62.8182C112.935 62.9308 113.136 63.3452 113.449 63.4618C113.762 63.5785 114.152 63.49 114.461 63.6107C114.77 63.7314 115.156 63.6831 115.461 63.8118C115.766 63.9406 116.015 64.2182 116.321 64.3509C116.626 64.4837 116.767 64.9745 117.068 65.1153C117.369 65.2561 117.658 65.417 117.955 65.5618C118.253 65.7066 118.522 65.9078 118.815 66.0607C119.108 66.2135 119.67 65.8595 119.963 66.0164C120.257 66.1733 120.542 66.3584 120.831 66.5193C121.12 66.6802 121.285 67.0744 121.57 67.2394C121.855 67.4043 122.028 67.7664 122.309 67.9394C122.59 68.1124 122.891 68.2532 123.173 68.4302C123.454 68.6072 123.598 68.9894 123.875 69.1704C124.153 69.3514 124.486 69.4399 124.759 69.629C125.032 69.8181 125.253 70.0715 125.522 70.2646C125.791 70.4577 126.088 70.6066 126.353 70.8037C126.619 71.0008 127.241 70.7313 127.502 70.9324C127.763 71.1336 127.671 71.7934 127.932 71.9985C128.193 72.2037 128.458 72.3968 128.715 72.61C128.972 72.8232 129.566 72.6342 129.816 72.8514C130.065 73.0686 130.257 73.3623 130.502 73.5836C130.751 73.8048 130.779 74.2675 131.02 74.4928C131.261 74.718 131.334 75.1203 131.575 75.3496C131.816 75.5789 132.057 75.7962 132.294 76.0295C132.531 76.2628 132.812 76.4439 133.041 76.6812C133.27 76.9186 133.615 77.0473 133.84 77.2887C134.065 77.5301 134.125 77.9203 134.35 78.1697C134.575 78.4191 134.8 78.6484 135.021 78.8979C135.242 79.1473 135.76 79.1312 135.973 79.3846C136.185 79.6381 136.43 79.8674 136.643 80.1249C136.856 80.3823 136.884 80.7846 137.093 81.0421C137.302 81.2996 137.836 81.3036 138.037 81.5691C138.238 81.8346 138.435 82.1042 138.635 82.3737C138.836 82.6432 138.752 83.1139 138.945 83.3835C139.137 83.653 139.25 83.9788 139.443 84.2484C139.635 84.5179 139.949 84.703 140.137 84.9765C140.326 85.2501 140.644 85.4352 140.828 85.7127C141.013 85.9903 141.27 86.2196 141.451 86.5012C141.632 86.7828 141.784 87.0805 141.957 87.3621C142.13 87.6437 142.302 87.9334 142.475 88.219C142.648 88.5047 142.728 88.8426 142.897 89.1282C143.065 89.4138 143.005 89.8322 143.17 90.1219C143.334 90.4115 143.612 90.6328 143.772 90.9265C143.933 91.2201 144.005 91.554 144.162 91.8477C144.318 92.1414 144.692 92.3184 144.845 92.6121C144.997 92.9058 145.242 93.1592 145.391 93.4529C145.539 93.7465 145.636 94.0724 145.784 94.3741C145.933 94.6758 146.074 94.9735 146.218 95.2753C146.363 95.577 146.459 95.8988 146.6 96.2005C146.74 96.5023 146.491 96.977 146.628 97.2827C146.764 97.5885 147.246 97.7333 147.379 98.039C147.511 98.3448 147.495 98.7109 147.628 99.0166C147.76 99.3223 147.744 99.6844 147.869 99.9942C147.993 100.304 148.431 100.481 148.556 100.791C148.68 101.1 148.752 101.426 148.873 101.736C148.993 102.046 148.672 102.521 148.789 102.83C148.905 103.14 149.66 103.213 149.777 103.522C149.893 103.832 149.724 104.246 149.837 104.56C149.949 104.874 150.078 105.18 150.186 105.494C150.295 105.807 150.142 106.21 150.251 106.523C150.359 106.837 150.347 107.187 150.447 107.505C150.548 107.823 150.745 108.104 150.845 108.422C150.945 108.74 151.05 109.05 151.146 109.372C151.243 109.693 151.423 109.979 151.52 110.297C151.616 110.615 151.688 110.937 151.781 111.258C151.873 111.58 152.022 111.878 152.11 112.2C152.198 112.522 152.267 112.843 152.355 113.165C152.443 113.487 152.937 113.696 153.022 114.018C153.106 114.34 152.966 114.718 153.046 115.04C153.126 115.362 153.584 115.587 153.664 115.913C153.745 116.239 153.207 116.71 153.283 117.035C153.359 117.361 153.516 117.659 153.592 117.985C153.668 118.311 153.837 118.608 153.909 118.934C153.982 119.26 154.09 119.574 154.162 119.9C154.235 120.226 154.717 120.459 154.789 120.785C154.861 121.111 154.761 121.473 154.829 121.799C154.897 122.124 154.399 122.563 154.464 122.889C154.528 123.215 155.078 123.444 155.142 123.77C155.207 124.096 154.893 124.494 154.958 124.824C155.022 125.154 155.267 125.439 155.327 125.769C155.387 126.099 155.267 126.457 155.327 126.783C155.387 127.109 155.359 127.451 155.416 127.781L155.42 127.809Z" fill="#A6764E"/>
<path d="M80.3113 67.5653C80.3474 66.8291 80.2952 66.1492 80.3313 65.409C80.3675 64.6688 80.4358 63.9366 80.4719 63.2004C80.5081 62.4642 80.8254 61.7401 80.8615 61.0039C80.8976 60.2677 80.6567 59.5154 80.6928 58.7792C80.729 58.043 81.0262 57.3189 81.0583 56.5827C81.0904 55.8465 81.2471 55.1143 81.2792 54.3781C81.3113 53.6419 80.9017 52.8816 80.9378 52.1454C80.974 51.4092 81.4117 50.6931 81.4479 49.9569C81.484 49.2207 81.2712 48.4724 81.3073 47.7362C81.3435 47 81.3675 46.2638 81.4037 45.5276C81.4398 44.7914 81.2671 44.0432 81.3033 43.307C81.3394 42.5708 81.4961 41.8386 81.5322 41.1024C81.5684 40.3662 81.8977 39.6421 81.9339 38.9059C81.97 38.1697 81.8294 37.4294 81.8656 36.6932C81.5603 36.0777 81.0864 35.4904 80.7089 34.7823C80.3755 34.1628 79.9056 33.5795 79.508 32.8996C79.1505 32.2801 79.2188 31.3669 78.8092 30.7071C78.4276 30.0956 77.5882 29.7496 77.1585 29.11C76.7528 28.5066 76.4476 27.8186 75.9977 27.1991C75.572 26.6077 75.3391 25.8514 74.8692 25.244C74.3992 24.6365 73.849 24.1658 73.363 23.5785C72.8971 23.0152 72.5638 22.3112 72.0617 21.74C71.5758 21.1929 70.7042 20.9796 70.1821 20.4285C69.66 19.8774 69.4431 19.0848 68.9009 18.5498C68.3788 18.0348 67.8567 17.4917 67.2984 16.9768C66.7401 16.4619 66.2983 15.8625 65.724 15.3676C65.1657 14.8889 64.4107 14.6194 63.8203 14.1447C63.2299 13.67 62.6355 13.2194 62.041 12.7769C61.4466 12.3343 60.9245 11.747 60.3221 11.3246C59.7196 10.9022 59.0248 10.5482 58.4063 10.1499C57.7878 9.75161 57.0568 9.46598 56.4262 9.08782C55.7957 8.70967 55.2896 8.03784 54.647 7.67979C53.9843 7.30968 53.2373 7.10854 52.5826 6.77463C51.9079 6.42866 51.3054 5.93786 50.6427 5.62407C49.98 5.31028 49.0924 5.39074 48.4177 5.10109C47.743 4.81144 47.1084 4.32466 46.4256 4.05512C45.7428 3.78559 44.9556 3.67697 44.2648 3.43157C43.5419 3.1741 42.827 2.96893 42.1322 2.74767C41.3972 2.51434 40.7385 2.10802 40.0437 1.9109C39.2966 1.7017 38.5416 1.64136 37.8427 1.46837C37.0837 1.2793 36.3165 1.29539 35.6257 1.14654C34.8466 0.981598 34.1839 0.486776 33.4971 0.366088C32.6898 0.221262 31.8584 0.0925276 31.1998 0C31.1596 0.764359 31.0592 1.59711 31.0311 2.33733C31.003 3.07755 31.1877 3.86605 31.1716 4.60627C31.1556 5.34649 31.3042 6.13096 31.2961 6.87118C31.2881 7.6114 31.2399 8.39588 31.2399 9.13208C31.2399 9.86827 31.0993 10.6608 31.1074 11.397C31.1154 12.1734 30.8423 12.9338 30.8624 13.67C30.8825 14.4464 31.26 15.1906 31.2881 15.9188C31.3162 16.6992 31.0672 17.4676 31.1074 18.1917C31.1475 18.9722 31.5813 19.7124 31.6255 20.4526C31.6777 21.2371 31.6255 22.0015 31.6857 22.7377C31.75 23.5221 31.5773 24.3026 31.6496 25.0388C31.7259 25.8273 31.9388 26.5715 32.0191 27.2997C32.1074 28.0882 31.995 28.8726 32.0914 29.5968C32.1958 30.3893 32.2761 31.1537 32.3846 31.8697C32.5051 32.6703 32.6175 33.4266 32.742 34.1306C32.8826 34.9433 33.3324 35.6352 33.469 36.3231C33.6336 37.1559 33.5573 37.9524 33.7059 38.6082C33.9108 39.4972 34.0835 40.2415 34.2361 40.8329C34.2441 40.865 34.4851 40.9817 34.5172 41.1064C34.698 41.7823 35.1157 42.4219 35.3647 43.1662C35.5896 43.834 35.5976 44.6144 35.8868 45.3385C36.1479 45.9983 36.2804 46.7546 36.5977 47.4586C36.8909 48.1063 37.6098 48.581 37.9592 49.269C38.2805 49.9046 38.3448 50.7092 38.7143 51.381C39.0637 52.0086 39.4372 52.6482 39.8348 53.304C40.2043 53.9195 40.4815 54.6235 40.8951 55.2672C41.2847 55.8746 41.9193 56.3453 42.349 56.9769C42.7547 57.5723 42.9354 58.3568 43.3772 58.9763C43.7989 59.5637 44.3572 60.0746 44.8151 60.6861C45.2729 61.2976 45.7469 61.8205 46.2168 62.4159C46.6626 62.9872 47.2851 63.4378 47.763 64.0291C48.2209 64.5923 48.6587 65.1877 49.1487 65.767C49.6186 66.3222 49.7792 67.163 50.2732 67.7343C50.7672 68.3055 51.5906 68.5308 52.0966 69.094C52.5826 69.6371 52.7633 70.4739 53.2774 71.0331C53.7915 71.5923 54.4542 71.9584 54.9763 72.5095C55.6832 72.3727 56.3901 72.2078 57.097 72.071C57.8038 71.9342 58.4826 71.6607 59.1895 71.5279C59.8963 71.3911 60.5992 71.2382 61.302 71.1055C62.0049 70.9727 62.768 71.1256 63.4749 70.9928C64.1817 70.8601 64.8484 70.5342 65.5553 70.3974C66.2622 70.2607 67.0293 70.4578 67.7362 70.321C68.443 70.1842 69.0656 69.617 69.7724 69.4802C70.4793 69.3434 71.1782 69.1704 71.881 69.0337C72.5839 68.8969 73.2867 68.7279 73.9936 68.5911C74.7005 68.4544 75.4997 68.8124 76.2066 68.6796C76.9135 68.5469 77.536 67.9716 78.2388 67.8348C78.9457 67.6981 79.6124 67.6981 80.3193 67.5613L80.3113 67.5653Z" fill="#6ABC83"/>
<path d="M112.822 79.9358C113.296 79.3485 113.927 79.1071 114.385 78.5238C114.842 77.9404 115.288 77.3209 115.742 76.7336C116.196 76.1462 116.32 75.2853 116.762 74.6899C117.204 74.0945 117.975 73.7163 118.409 73.1209C118.843 72.5256 119.084 71.7532 119.513 71.1497C119.943 70.5463 120.425 69.9549 120.847 69.3474C121.269 68.74 121.65 68.0762 122.06 67.4607C122.469 66.8452 122.807 66.1572 123.208 65.5337C123.61 64.9101 123.968 64.2383 124.357 63.6107C124.747 62.9831 125.458 62.5245 125.839 61.8929C126.221 61.2613 126.723 60.6659 127.096 60.0263C127.47 59.3866 127.646 58.6022 128.004 57.9585C128.361 57.3148 128.578 56.5585 128.928 55.9108C129.277 55.2631 129.851 54.6959 130.185 54.0401C130.518 53.3844 130.972 52.7488 131.297 52.085C131.623 51.4212 131.51 50.5201 131.819 49.8523C132.129 49.1845 132.791 48.6414 133.085 47.9655C133.378 47.2896 133.807 46.6339 134.089 45.954C134.37 45.2742 134.611 44.5339 134.876 43.85C135.141 43.1661 135.197 42.3615 135.442 41.6656C135.687 40.9696 136.008 40.2656 136.233 39.5656C136.458 38.8656 136.591 38.0972 136.8 37.3932C137.009 36.6892 137.318 35.9731 137.507 35.2651C137.695 34.557 137.699 33.7605 137.864 33.0444C138.029 32.3283 138.37 31.6122 138.515 30.8921C138.659 30.172 138.599 29.3755 138.719 28.6514C138.84 27.9272 139.213 27.1991 139.306 26.4709C139.398 25.7428 139.298 24.9503 139.362 24.2221C139.43 23.4577 139.699 22.7256 139.736 22.0014C139.772 21.2331 139.547 20.4808 139.555 19.7526C139.559 18.9842 139.752 18.236 139.724 17.5078C139.695 16.7354 139.563 15.9952 139.499 15.2751C139.434 14.5027 139.213 13.7785 139.117 13.0665C139.013 12.2941 138.908 11.5619 138.772 10.8579C138.623 10.0855 138.796 9.2809 138.619 8.59298C138.422 7.82057 138.129 7.11656 137.916 6.45277C137.667 5.67635 137.041 5.11313 136.788 4.48556C136.462 3.68901 136.406 2.89649 136.113 2.3373C135.559 1.27927 135.065 0.840771 134.868 0.651693C133.763 0.522958 134.109 0.663761 132.707 0.881C132.089 0.977551 131.321 0.909161 130.486 1.06203C129.823 1.18674 129.116 1.44421 128.333 1.60915C127.65 1.75398 126.871 1.67754 126.112 1.85857C125.425 2.02352 124.779 2.50225 124.036 2.70339C123.345 2.88845 122.542 2.77178 121.811 2.98902C121.12 3.19419 120.389 3.35913 119.666 3.59246C118.943 3.82579 118.389 4.39705 117.678 4.6505C116.967 4.90394 116.264 5.04877 115.557 5.3183C114.85 5.58784 114.192 5.8614 113.497 6.15105C112.802 6.4407 112.272 7.02001 111.589 7.32575C110.906 7.63149 110.147 7.70391 109.473 8.02977C108.798 8.35562 108.167 8.70964 107.505 9.05562C106.842 9.40159 106.043 9.45791 105.392 9.82802C104.741 10.1981 104.179 10.693 103.545 11.0832C102.91 11.4734 102.516 12.2136 101.894 12.624C101.271 13.0343 100.653 13.4084 100.046 13.8429C99.4399 14.2774 98.6848 14.4826 98.0944 14.9372C97.504 15.3917 97.1305 16.0917 96.5602 16.5705C95.9899 17.0492 95.0862 17.1297 94.536 17.6325C93.9857 18.1354 93.5399 18.7429 93.0138 19.2699C92.4876 19.7969 92.2828 20.6256 91.7848 21.1687C91.2868 21.7118 90.4313 21.9572 89.9574 22.5164C89.4834 23.0756 89.2505 23.86 88.8007 24.4434C88.3508 25.0267 87.6279 25.429 87.2022 26.0284C86.7764 26.6278 86.5555 27.3922 86.1539 28.0117C85.7523 28.6312 85.3547 29.2669 84.9771 29.8985C84.5996 30.5301 84.2381 31.1898 83.8847 31.8335C83.5313 32.4772 82.9489 33.0283 82.6196 33.6841C82.2902 34.3398 82.1617 35.1203 81.8565 35.7881C81.5512 36.4559 81.0411 37.0633 80.76 37.7392C80.4789 38.415 80.4548 39.2237 80.1977 39.9116C79.9407 40.5995 79.6274 41.2914 79.3904 41.9834C79.1535 42.6753 78.8924 43.3914 78.6795 44.0914C78.4667 44.7914 78.3743 45.5598 78.1815 46.2638C77.9887 46.9678 77.6674 47.6758 77.4988 48.3839C77.3301 49.0919 77.4666 49.9126 77.318 50.6206C77.1694 51.3287 76.7035 52.0246 76.571 52.7367C76.4304 53.489 76.4103 54.2373 76.2979 54.9453C76.1774 55.7056 75.8119 56.4056 75.7195 57.1096C75.6191 57.878 75.9685 58.6705 75.8922 59.3705C75.8079 60.159 75.7758 60.8952 75.7155 61.5832C75.6432 62.3998 75.6231 63.14 75.579 63.7958C75.5147 64.713 75.1653 65.4854 75.1211 66.0366C76.0569 66.648 76.1252 66.5756 77.1694 66.9659C78.2137 67.3561 78.286 67.163 79.3342 67.5572C80.3825 67.9515 80.278 68.221 81.3223 68.6153C82.3665 69.0095 82.4308 68.8365 83.475 69.2308C84.5193 69.625 84.5715 69.4842 85.6197 69.8785C86.668 70.2727 86.5475 70.5905 87.5918 70.9808C88.636 71.371 88.6601 71.3066 89.7043 71.7009C90.7486 72.0951 90.7887 71.9905 91.833 72.3807C92.8772 72.771 92.8451 72.8554 93.8934 73.2457C94.9416 73.6359 95.034 73.3865 96.0782 73.7807C97.1225 74.175 97.1225 74.179 98.1667 74.5692C99.211 74.9594 99.1628 75.0962 100.207 75.4864C101.251 75.8767 101.295 75.764 102.344 76.1543C103.392 76.5445 103.416 76.4761 104.464 76.8663C105.513 77.2565 105.517 77.2404 106.561 77.6307C107.605 78.0209 107.653 77.9002 108.702 78.2944C109.75 78.6887 109.714 78.7893 110.75 79.2197C111.786 79.6502 111.702 79.8272 112.814 79.9117L112.822 79.9358Z" fill="#6ABC83"/>
<path d="M3.73181 119.513L4.88048 120.274L6.08939 120.954L7.37059 121.517L8.76426 121.666L10.1539 121.766L11.5355 121.485L12.6239 120.6L13.4955 119.53L13.8248 118.21L13.7083 116.846L13.2746 115.486L12.391 114.368L11.2825 113.479L10.3306 112.469L9.0695 111.898L7.90878 111.178L6.7079 110.478L5.36244 110.148L3.98484 110.112L2.61929 110.265L1.57505 111.138L0.739658 112.22L0.546875 113.58L0.755723 114.935L1.08104 116.299L1.91242 117.438L2.77593 118.52L3.73181 119.513Z" fill="#222222"/>
<path d="M59.1566 111.906L58.4898 113.113L57.6143 114.171L56.6745 115.169L55.5419 115.949L54.2807 116.492L52.9313 116.734L51.5617 116.677L50.3287 116.303L49.2885 115.587L48.5936 114.529L48.3125 113.25L48.5254 111.942L49.0917 110.763L49.6901 109.42L50.3608 108.12L51.144 106.861L52.3931 106.081L53.7506 105.558L55.2165 105.417L56.6664 105.739L57.9235 106.495L58.9397 107.565L59.3493 108.993L59.5662 110.47L59.1566 111.906Z" fill="#222222"/>
<path d="M99.405 111.142L98.6339 112.292L97.7945 113.378L96.8346 114.36L95.7622 115.241L94.4208 115.603L93.0914 115.865L91.7138 115.965L90.4527 115.595L89.4084 114.823L88.7457 113.728L88.5449 112.445L88.7457 111.154L89.2076 109.935L89.7257 108.555L90.4406 107.263L91.3925 106.141L92.5371 105.24L93.9268 104.818L95.3807 104.645L96.8145 104.986L98.1238 105.646L99.0757 106.781L99.4653 108.197L99.5858 109.653L99.405 111.142Z" fill="#222222"/>
<path d="M157.3 125.556L156.191 126.401L154.974 127.085L153.661 127.592L152.255 127.656L150.882 127.672L149.552 127.366L148.352 126.686L147.476 125.592L147.139 124.248L147.159 122.832L147.809 121.561L148.713 120.471L149.617 119.377L150.777 118.628L151.942 117.916L153.131 117.249L154.38 116.705L155.677 116.279L157.035 116.17L158.4 116.299L159.589 117.027L160.216 118.278L160.501 119.614L160.324 120.986L159.866 122.297L159.284 123.585L158.396 124.683L157.3 125.556Z" fill="#222222"/>
<path d="M84.3396 120.857C85.1067 121.026 85.5083 121.44 85.6208 121.666C85.7694 121.959 85.428 122.438 84.7131 122.776C84.3476 122.945 83.8938 123.186 83.3596 123.355C82.9379 123.488 82.4439 123.581 81.9378 123.713C81.492 123.826 81.006 123.907 80.508 124.011C80.0502 124.108 79.4999 123.814 79.0059 123.902C78.5119 123.991 78.0822 124.16 77.5962 124.236C77.1102 124.313 76.6765 124.59 76.1905 124.655C75.7045 124.719 75.2185 124.691 74.7366 124.743C74.2546 124.796 73.7807 124.969 73.2987 125.009C72.8168 125.049 72.3147 124.924 71.8368 124.948C71.3589 124.973 70.8648 125.238 70.3909 125.246C69.8929 125.254 69.4069 124.896 68.941 124.884C68.4028 124.868 67.9048 124.864 67.4269 124.828C66.8847 124.784 66.3626 124.944 65.8926 124.876C65.3464 124.796 64.8564 124.639 64.4066 124.53C63.8524 124.397 63.274 124.486 62.8563 124.321C62.298 124.1 61.9085 123.669 61.5711 123.416C61.0209 123.001 60.9767 122.519 60.9807 122.132C60.9847 121.69 61.2498 121.589 61.8844 121.372C62.1695 121.276 62.5189 120.656 63.1415 120.584C63.5511 120.535 64.0652 120.917 64.5873 120.881C65.0251 120.849 65.479 120.576 65.981 120.551C66.4268 120.531 66.8967 120.362 67.3827 120.346C67.8365 120.33 68.3185 120.712 68.8045 120.7C69.2904 120.688 69.7363 120.724 70.2142 120.72C70.6921 120.716 71.146 120.419 71.6199 120.415C72.0938 120.411 72.5597 120.527 73.0296 120.531C73.4995 120.535 73.9735 120.648 74.4394 120.656C74.9053 120.664 75.3872 120.58 75.8531 120.588C76.3311 120.596 76.809 120.423 77.2669 120.435C77.7247 120.447 78.2187 120.58 78.6766 120.596C79.1626 120.616 79.6325 120.672 80.0823 120.696C80.5803 120.724 81.0623 120.592 81.5 120.624C82.0182 120.66 82.4881 120.74 82.9058 120.785C83.4841 120.845 84.0022 120.785 84.3396 120.861V120.857Z" fill="#222222"/>
<path d="M39.0781 11.1638C39.7448 12.1011 40.3071 13.1149 40.9778 14.008C41.3915 14.5431 42.1868 15.5367 42.5482 16.0798C43.1788 17.0534 43.3796 18.1999 44.0905 19.0488C44.5082 19.6079 44.9982 20.1671 45.4119 20.7464C45.7613 21.3056 46.1388 21.6275 46.7372 22.1665C47.2272 22.605 47.7493 23.1884 48.0104 23.8361C48.5044 24.9504 48.3679 25.7671 49.2033 26.5153C49.5446 26.8452 50.0346 27.1872 50.5327 27.7463C51.4082 28.563 51.4564 30.2687 51.8339 31.1256C51.9424 31.3429 52.2677 31.6486 52.7175 32.0227C53.1352 32.3727 53.6574 32.8555 53.9586 33.3825C54.0228 33.5032 54.81 34.9836 54.8944 35.1445C55.4085 36.1664 55.9868 37.1077 56.5652 38.1175C57.1515 39.1232 57.5692 40.2859 58.0191 41.3157C58.5332 42.1968 58.6536 43.7214 58.999 44.5904C59.3565 45.4191 60.0513 46.3162 60.4369 47.2053C60.9269 48.4001 61.6418 49.5628 62.0153 50.8179C62.18 51.4133 62.2804 51.9685 62.425 52.4754C62.678 53.5656 63.4612 54.3742 63.9672 55.392C64.5295 56.5064 64.5657 57.6569 65.0034 58.719C64.3327 57.7776 64.0435 56.5828 63.3969 55.738C63.0716 55.3035 62.69 54.9012 62.3085 54.4466C61.2763 53.3765 61.0353 51.8116 60.3566 50.5806C59.8666 49.7197 59.3083 48.8869 58.8344 47.9898C58.3243 47.1007 57.7018 46.445 57.1837 45.4714C56.5732 44.2645 56.6455 43.3594 56.023 42.2571C55.5089 41.2192 55.1193 40.2336 54.5409 39.2721C54.2156 38.729 53.4927 37.5945 53.2075 37.0514C52.8742 36.4359 52.1994 35.1727 51.8621 34.5491C51.2194 33.6762 50.3841 33.4227 49.7374 32.2199C49.2153 31.1417 49.3237 30.4618 49.0346 29.621C48.645 28.732 47.5044 28.1969 46.9622 27.1912C46.3316 26.1694 46.4521 24.9263 45.8818 24.0533C45.3034 23.2849 44.4801 22.6654 43.9861 21.6596L43.7772 21.3137C43.4157 20.7384 42.9539 20.0545 42.6285 19.451C42.259 18.7873 42.0743 17.9344 41.8895 17.2988C41.5883 16.2086 40.9096 15.3476 40.4156 14.3339C39.8774 13.2839 39.5159 12.2017 39.0821 11.1396L39.0781 11.1638Z" fill="#9BCB7C"/>
<path d="M98.4316 63.2045C98.8252 62.3154 98.8172 61.3218 99.2349 60.4287C99.6365 59.5718 100.187 58.7471 100.6 57.9264C101.046 57.0253 101.709 56.3695 102.155 55.5489C102.601 54.6276 102.633 53.469 103.203 52.4512C103.577 51.538 103.741 50.5121 104.332 49.6552C104.761 49.0156 105.609 48.3397 105.878 47.8892C106.392 46.98 106.541 45.222 107.388 44.3409C107.854 43.7536 108.308 43.3272 108.565 42.9369C108.962 42.3657 109.163 41.2875 109.521 40.5031C109.85 39.5979 110.951 38.6243 111.408 38.041C111.746 37.514 112.115 36.9347 112.497 36.4721C113.469 35.3577 113.473 34.7985 113.995 33.3824C114.264 32.7348 114.714 32.1192 115.095 31.552C115.36 31.1658 115.814 30.5141 116.027 30.0997C116.485 29.0417 117.071 27.4406 118.019 26.5676C118.457 26.1049 118.778 25.6946 119.1 25.1797C119.931 24.0653 120.606 23.3693 121.228 22.1464C121.421 21.7843 121.975 20.855 122.156 20.5613C122.365 20.155 122.457 19.5234 122.674 18.8355C122.835 18.1556 123.477 17.3711 124.088 17.0493C124.654 16.6913 125.176 16.4298 125.433 16.0476C125.747 15.5809 125.959 14.9896 126.245 14.4022C126.859 13.2919 127.522 12.1815 128.213 11.1074C127.956 11.6907 127.767 12.2902 127.55 12.8936C127.345 13.485 127.028 14.0281 126.867 14.6436C126.622 15.5286 126.345 16.7798 125.534 17.3953C125.104 17.7815 124.542 18.1315 124.245 18.5619C123.811 19.3545 123.995 20.1309 123.618 21.1728C123.441 21.6153 123.313 21.8165 123.18 22.1021C122.742 22.9912 122.401 23.8561 121.835 24.7331C121.353 25.4653 120.935 26.0044 120.57 26.6802C120.156 27.3842 119.541 27.9837 119.112 28.6193C118.622 29.3877 118.533 30.1038 118.092 31.0773C117.634 32.079 116.858 33.0325 116.332 33.9859C116.011 34.6175 115.947 35.2008 115.581 36.0979C115.091 37.2284 114.457 37.8077 113.854 38.6565C113.417 39.4692 112.461 40.3944 111.995 40.9134C111.244 41.895 111.232 43.2668 110.408 44.2685C109.742 45.1536 109.127 45.4915 108.701 46.276C108.268 47.1731 108.248 48.0461 107.513 49.0558C106.99 49.7277 106.432 50.0978 106.059 50.4759C105.428 51.0593 105.251 51.884 104.894 52.6724C104.777 52.9581 104.553 53.3564 104.408 53.5816C104.002 54.2494 103.789 55.4483 103.251 56.2086C102.717 57.0213 101.902 57.6368 101.404 58.3931C100.857 59.2097 100.227 59.8896 99.6847 60.6781C99.1666 61.4505 98.9899 62.4361 98.4316 63.2045Z" fill="#9BCB7C"/>
<path d="M24.0098 118.005L24.6805 118.753L25.4677 119.417L25.8774 120.363L26.6445 121.038L27.2108 121.867L27.7289 122.881L28.6004 122.052L29.5001 121.413L30.0945 120.423L30.958 119.739L31.8617 118.995L32.693 119.795L33.7694 119.976L34.5205 120.769L35.6009 120.942L36.4885 121.686L37.1913 120.717L37.9062 119.868L38.4083 118.862L38.9665 117.896" stroke="#9BCB7C" stroke-width="4.5" stroke-linecap="round" stroke-linejoin="round"/>
<path d="M110.004 119.308L110.538 120.149L111.189 120.933L111.438 121.919L112.076 122.712L112.49 123.613L112.831 124.679L113.799 123.995L114.763 123.496L115.486 122.619L116.418 122.072L117.402 121.472L118.081 122.37L119.089 122.724L119.687 123.609L120.699 123.951L121.438 124.811L122.262 123.959L123.081 123.222L123.72 122.313L124.402 121.444" stroke="#9BCB7C" stroke-width="4.5" stroke-linecap="round" stroke-linejoin="round"/>
</svg>
