<svg width="39" height="46" viewBox="0 0 39 46" fill="none" xmlns="http://www.w3.org/2000/svg">
<path d="M1.37912 19.8665C1.37912 10.0429 9.34272 2.07935 19.1663 2.07935C28.9899 2.07935 36.9535 10.0429 36.9535 19.8665V39.4729C36.9535 42.5986 34.4196 45.1325 31.294 45.1325H7.03869C3.913 45.1325 1.37912 42.5986 1.37912 39.4729V19.8665Z" fill="#323232"/>
<path d="M10.475 27.042C10.475 29.4046 8.34258 31.3877 5.62399 31.3877C2.90541 31.3877 0.772937 29.4046 0.772937 27.042C0.772937 24.6794 2.90541 22.6962 5.62399 22.6962C8.34258 22.6962 10.475 24.6794 10.475 27.042Z" fill="white" stroke="#323232" stroke-width="0.808509"/>
<path d="M28.0602 27.0417C28.0602 29.4043 30.1927 31.3875 32.9113 31.3875C35.6299 31.3875 37.7623 29.4043 37.7623 27.0417C37.7623 24.6791 35.6299 22.696 32.9113 22.696C30.1927 22.696 28.0602 24.6791 28.0602 27.0417Z" fill="white" stroke="#323232" stroke-width="0.808509"/>
<path d="M10.2729 27.042C10.2729 29.4046 8.1404 31.3877 5.42181 31.3877C2.70323 31.3877 0.570758 29.4046 0.570758 27.042C0.570758 24.6794 2.70323 22.6962 5.42181 22.6962C8.1404 22.6962 10.2729 24.6794 10.2729 27.042Z" fill="white" stroke="#323232" stroke-width="0.808509"/>
<path d="M27.8581 27.0417C27.8581 29.4043 29.9906 31.3875 32.7091 31.3875C35.4277 31.3875 37.5602 29.4043 37.5602 27.0417C37.5602 24.6791 35.4277 22.696 32.7091 22.696C29.9906 22.696 27.8581 24.6791 27.8581 27.0417Z" fill="white" stroke="#323232" stroke-width="0.808509"/>
<path d="M32.5067 24.9725C32.5067 29.5105 31.3025 32.9711 29.0677 35.2962C26.8352 37.6189 23.5186 38.8664 19.1724 38.8664C14.8259 38.8664 11.4536 37.6186 9.16682 35.2929C6.87915 32.9663 5.6238 29.506 5.6238 24.9725C5.6238 20.4331 6.8834 15.6984 9.21742 12.1106C11.5483 8.52765 14.9235 6.12178 19.1724 6.12178C23.4196 6.12178 26.7405 8.52577 29.018 12.1071C31.2991 15.6942 32.5067 20.4298 32.5067 24.9725Z" fill="white" stroke="#323232" stroke-width="0.808509" stroke-linecap="round"/>
<path d="M19.1663 24.7175C18.768 26.0943 18.56 26.8138 18.56 28.2462C19.0935 28.5014 19.6036 28.5652 20.4802 28.5579" stroke="#323232" stroke-width="0.808509" stroke-linecap="round" stroke-linejoin="round"/>
<path d="M12.0453 26.9862C12.462 26.9862 12.8315 26.7608 13.0934 26.4116C13.3553 26.0624 13.5143 25.5846 13.5143 25.0612C13.5143 24.5378 13.3553 24.0601 13.0934 23.7109C12.8315 23.3617 12.462 23.1362 12.0453 23.1362C11.6286 23.1362 11.2591 23.3617 10.9971 23.7109C10.7353 24.0601 10.5763 24.5378 10.5763 25.0612C10.5763 25.5846 10.7353 26.0624 10.9971 26.4116C11.2591 26.7608 11.6286 26.9862 12.0453 26.9862Z" fill="#323232" stroke="#323232" stroke-width="0.202127" stroke-linecap="round"/>
<path d="M12.6208 25.1188C12.8999 25.1188 13.1261 24.8926 13.1261 24.6135C13.1261 24.3344 12.8999 24.1082 12.6208 24.1082C12.3417 24.1082 12.1155 24.3344 12.1155 24.6135C12.1155 24.8926 12.3417 25.1188 12.6208 25.1188Z" fill="white" stroke="#323232" stroke-width="0.202127"/>
<path d="M26.5982 26.9862C27.0149 26.9862 27.3845 26.7608 27.6464 26.4116C27.9083 26.0624 28.0672 25.5846 28.0672 25.0612C28.0672 24.5378 27.9083 24.0601 27.6464 23.7109C27.3845 23.3617 27.0149 23.1362 26.5982 23.1362C26.1816 23.1362 25.812 23.3617 25.5501 23.7109C25.2882 24.0601 25.1293 24.5378 25.1293 25.0612C25.1293 25.5846 25.2882 26.0624 25.5501 26.4116C25.812 26.7608 26.1816 26.9862 26.5982 26.9862Z" fill="#323232" stroke="#323232" stroke-width="0.202127" stroke-linecap="round"/>
<ellipse cx="27.174" cy="24.6135" rx="0.404255" ry="0.404255" fill="white"/>
<path d="M17.5495 31.6909C18.1559 32.4321 19.7325 33.4696 21.1878 31.6909" stroke="#323232" stroke-width="0.808509" stroke-linecap="round" stroke-linejoin="round"/>
<g filter="url(#filter0_f_545_2485)">
<ellipse cx="11.1824" cy="30.6805" rx="1.92021" ry="1.1117" fill="#FC9D80"/>
</g>
<g filter="url(#filter1_f_545_2485)">
<ellipse cx="27.1504" cy="30.6803" rx="1.92021" ry="1.1117" fill="#FC9D80"/>
</g>
<path d="M32.1942 15.3188C33.0468 14.4268 33.0888 13.4191 33.0888 12.365C33.0888 8.58219 26.9426 5.51562 19.3608 5.51562C11.779 5.51562 5.63275 8.58219 5.63275 12.365C5.63275 13.5323 6.21803 14.6314 7.25014 15.5932C5.93085 16.1733 5.01807 17.423 5.01807 18.8711C5.01807 20.8721 6.76103 22.4943 8.91109 22.4943C9.99291 22.4943 10.9717 22.0836 11.6772 21.4206C12.3827 22.0836 13.3615 22.4943 14.4433 22.4943C15.5251 22.4943 16.5039 22.0836 17.2094 21.4206C17.9149 22.0836 18.8937 22.4943 19.9755 22.4943C21.0573 22.4943 22.0361 22.0836 22.7416 21.4206C23.4471 22.0836 24.4259 22.4943 25.5077 22.4943C26.5895 22.4943 27.5683 22.0836 28.2738 21.4206C28.9793 22.0836 29.9581 22.4943 31.0399 22.4943C33.1899 22.4943 34.9329 20.8721 34.9329 18.8711C34.9329 17.0987 34.0007 15.6328 32.1942 15.3188Z" fill="#323232"/>
<defs>
<filter id="filter0_f_545_2485" x="6.83662" y="27.1433" width="8.69148" height="7.07444" filterUnits="userSpaceOnUse" color-interpolation-filters="sRGB">
<feFlood flood-opacity="0" result="BackgroundImageFix"/>
<feBlend mode="normal" in="SourceGraphic" in2="BackgroundImageFix" result="shape"/>
<feGaussianBlur stdDeviation="1.21276" result="effect1_foregroundBlur_545_2485"/>
</filter>
<filter id="filter1_f_545_2485" x="22.8047" y="27.1431" width="8.69148" height="7.07444" filterUnits="userSpaceOnUse" color-interpolation-filters="sRGB">
<feFlood flood-opacity="0" result="BackgroundImageFix"/>
<feBlend mode="normal" in="SourceGraphic" in2="BackgroundImageFix" result="shape"/>
<feGaussianBlur stdDeviation="1.21276" result="effect1_foregroundBlur_545_2485"/>
</filter>
</defs>
</svg>
