<svg width="37" height="34" viewBox="0 0 37 34" fill="none" xmlns="http://www.w3.org/2000/svg">
<path d="M9.93108 21.3632C9.93108 23.6164 7.89466 25.5211 5.28132 25.5211C2.66798 25.5211 0.631566 23.6164 0.631566 21.3632C0.631566 19.11 2.66798 17.2053 5.28132 17.2053C7.89466 17.2053 9.93108 19.11 9.93108 21.3632Z" fill="white" stroke="#323232" stroke-width="0.930125"/>
<path d="M26.4019 21.3632C26.4019 23.6164 28.4383 25.5211 31.0517 25.5211C33.665 25.5211 35.7014 23.6164 35.7014 21.3632C35.7014 19.11 33.665 17.2053 31.0517 17.2053C28.4383 17.2053 26.4019 19.11 26.4019 21.3632Z" fill="white" stroke="#323232" stroke-width="0.930125"/>
<path d="M31.1782 20.0022C31.1782 24.4068 30.0095 27.7547 27.8511 30.0003C25.6954 32.2431 22.4884 33.453 18.272 33.453C14.0553 33.453 10.7936 32.2428 8.58492 29.9965C6.3752 27.7492 5.15717 24.4016 5.15717 20.0022C5.15717 15.5962 6.38009 11.002 8.64314 7.52341C10.9026 4.05026 14.1675 1.72727 18.272 1.72727C22.3745 1.72727 25.5864 4.04809 27.7939 7.51936C30.0056 10.9972 31.1782 15.5923 31.1782 20.0022Z" fill="white" stroke="#323232" stroke-width="0.930125" stroke-linecap="round"/>
<path d="M18.2647 20.1479C17.877 21.4879 17.6745 22.1881 17.6745 23.5822C18.1938 23.8306 18.6903 23.8927 19.5434 23.8857" stroke="#323232" stroke-width="0.930125" stroke-linecap="round" stroke-linejoin="round"/>
<path d="M11.3339 22.1768C11.7463 22.1768 12.1109 21.9536 12.3683 21.6104C12.6257 21.2671 12.7815 20.7983 12.7815 20.2854C12.7815 19.7725 12.6257 19.3036 12.3683 18.9604C12.1109 18.6172 11.7463 18.394 11.3339 18.394C10.9215 18.394 10.5569 18.6172 10.2995 18.9604C10.042 19.3036 9.88627 19.7725 9.88627 20.2854C9.88627 20.7983 10.042 21.2671 10.2995 21.6104C10.5569 21.9536 10.9215 22.1768 11.3339 22.1768Z" fill="#323232" stroke="#323232" stroke-width="0.232531" stroke-linecap="round"/>
<path d="M11.8941 20.3592C12.1756 20.3592 12.4038 20.131 12.4038 19.8495C12.4038 19.568 12.1756 19.3398 11.8941 19.3398C11.6126 19.3398 11.3844 19.568 11.3844 19.8495C11.3844 20.131 11.6126 20.3592 11.8941 20.3592Z" fill="white" stroke="#323232" stroke-width="0.232531"/>
<path d="M25.4982 22.1775C25.9106 22.1775 26.2752 21.9544 26.5326 21.6111C26.79 21.2679 26.9458 20.799 26.9458 20.2861C26.9458 19.7732 26.79 19.3044 26.5326 18.9612C26.2752 18.6179 25.9106 18.3947 25.4982 18.3947C25.0857 18.3947 24.7212 18.6179 24.4637 18.9612C24.2063 19.3044 24.0505 19.7732 24.0505 20.2861C24.0505 20.799 24.2063 21.2679 24.4637 21.6111C24.7212 21.9544 25.0857 22.1775 25.4982 22.1775Z" fill="#323232" stroke="#323232" stroke-width="0.232531" stroke-linecap="round"/>
<ellipse cx="26.0584" cy="19.8502" rx="0.393448" ry="0.393444" fill="white"/>
<path d="M16.4948 26.8369C17.085 27.5582 18.6195 28.5681 20.0359 26.8369" stroke="#323232" stroke-width="0.930125" stroke-linecap="round" stroke-linejoin="round"/>
<path d="M12.362 29.2938C12.362 27.1759 14.0789 25.459 16.1969 25.459H20.3306C22.4485 25.459 24.1655 27.1759 24.1655 29.2938C24.1655 29.5973 23.9982 29.8761 23.7304 30.0189L23.3843 30.2035C22.9504 30.4349 22.4297 30.4349 21.9957 30.2035L21.9523 30.1803C21.4912 29.9344 20.938 29.9344 20.4769 30.1803C20.0158 30.4262 19.4625 30.4262 19.0015 30.1803C18.5404 29.9344 17.9871 29.9344 17.526 30.1803C17.065 30.4262 16.5117 30.4262 16.0506 30.1803C15.5895 29.9344 15.0362 29.9344 14.5752 30.1803L14.5318 30.2035C14.0978 30.4349 13.5771 30.4349 13.1431 30.2035L12.7971 30.0189C12.5293 29.8761 12.362 29.5973 12.362 29.2938Z" fill="#323232"/>
<path d="M4.88742 17.9837V11.2435C4.88742 5.07921 9.8846 0.0820312 16.0489 0.0820312H20.2096C26.3258 0.0820312 31.3028 5.00432 31.3705 11.1201L31.4451 17.8746C30.8042 15.6479 30.1509 14.141 28.9188 12.814C27.3541 11.1288 24.7571 11.4793 22.7579 12.6158C19.4189 14.5138 16.7409 14.6503 13.449 12.8793C11.2308 11.6859 8.32697 11.3945 6.92706 13.4885C6.10233 14.7222 5.5563 16.1196 4.88742 17.9837Z" fill="#323232"/>
<g filter="url(#filter0_f_545_2439)">
<ellipse cx="10.2954" cy="26.7382" rx="1.86888" ry="1.08197" fill="#FC9D80"/>
</g>
<g filter="url(#filter1_f_545_2439)">
<ellipse cx="25.8385" cy="26.7385" rx="1.86888" ry="1.08197" fill="#FC9D80"/>
</g>
<defs>
<filter id="filter0_f_545_2439" x="5.63611" y="22.8659" width="9.31851" height="7.74481" filterUnits="userSpaceOnUse" color-interpolation-filters="sRGB">
<feFlood flood-opacity="0" result="BackgroundImageFix"/>
<feBlend mode="normal" in="SourceGraphic" in2="BackgroundImageFix" result="shape"/>
<feGaussianBlur stdDeviation="1.39519" result="effect1_foregroundBlur_545_2439"/>
</filter>
<filter id="filter1_f_545_2439" x="21.1793" y="22.8661" width="9.31851" height="7.74481" filterUnits="userSpaceOnUse" color-interpolation-filters="sRGB">
<feFlood flood-opacity="0" result="BackgroundImageFix"/>
<feBlend mode="normal" in="SourceGraphic" in2="BackgroundImageFix" result="shape"/>
<feGaussianBlur stdDeviation="1.39519" result="effect1_foregroundBlur_545_2439"/>
</filter>
</defs>
</svg>
