<svg width="49" height="44" viewBox="0 0 49 44" fill="none" xmlns="http://www.w3.org/2000/svg">
<path d="M18.377 43.3479C18.4483 43.3346 18.5179 43.3113 18.5834 43.28L24.2026 40.5889C24.4648 40.4634 24.7724 40.4776 25.0218 40.6268L28.5381 42.73C28.6509 42.7974 28.7794 42.8387 28.9103 42.8491C32.5391 43.137 34.0893 42.5334 35.6758 40.6215C35.9278 40.3177 36.3472 40.1974 36.7315 40.2878C37.5811 40.4874 39.1242 40.6507 40.4184 39.6991C41.2773 39.0676 41.6166 38.1847 41.7308 37.4078C41.8346 36.7014 42.6829 35.9454 43.3847 35.8139C44.1105 35.6778 44.9736 35.2689 45.7781 34.2569C46.9123 32.8303 47.0085 31.5121 46.9043 30.6866C46.8422 30.1943 47.0582 29.6205 47.4064 29.267C47.9535 28.7116 48.6162 27.6531 48.6641 25.7638C48.7154 23.7391 47.9328 22.4985 47.3346 21.8505C47.0087 21.4974 46.8496 20.9211 46.8799 20.4415C46.9158 19.8716 46.8168 19.0095 46.2728 17.848C46.0154 17.2982 45.72 16.905 45.4194 16.625C44.8481 16.0927 44.0135 14.736 44.1516 13.9675C44.3971 12.6006 44.3174 10.6879 42.8921 8.69521C41.1325 6.2352 38.7945 5.58442 37.3685 5.43083C36.7586 5.36515 36.1728 4.72756 35.9592 4.15256C35.742 3.56804 35.2613 2.8546 34.2341 2.18109C32.6518 1.14366 31.21 1.38829 30.4592 1.64497C30.1202 1.76091 29.7273 1.73964 29.4177 1.55915C28.588 1.07541 26.7969 0.257596 24.6224 0.614399C22.6312 0.941113 21.218 2.54331 20.4878 3.5939C20.1684 4.05336 19.4826 4.20843 18.971 3.98179C17.9767 3.54127 16.2388 3.10411 13.9496 3.83023C11.3851 4.64368 10.7214 6.77634 10.5559 8.01336C10.4894 8.5106 10.0813 8.94979 9.58735 9.03771C8.47464 9.23579 6.55282 9.82551 4.96182 11.5812C3.22258 13.5005 3.21113 16.0395 3.33588 17.2887C3.37955 17.726 3.13896 18.1738 2.78884 18.4394C2.11701 18.9491 1.12431 20.0456 0.756493 22.2182C0.471933 23.899 0.908132 25.0525 1.42358 25.79C1.81595 26.3515 1.84897 27.4267 1.48732 28.0084C1.09971 28.6318 0.75649 29.5383 0.75649 30.7937C0.75649 32.1182 1.32463 32.9478 1.93902 33.4578C2.48446 33.9105 2.85999 35.073 2.90867 35.7802C2.9503 36.3848 3.2384 37.15 4.05478 38.0499C5.2969 39.4193 6.65179 39.4101 7.58412 39.1514C8.17463 38.9875 8.95436 39.2624 9.29292 39.7732C9.63453 40.2886 10.1683 40.8838 10.9812 41.3482C11.8269 41.8315 12.7084 41.8642 13.4086 41.7613C14.0531 41.6667 14.7693 42.1815 15.1617 42.7014C15.7485 43.479 16.9471 43.6136 18.377 43.3479Z" fill="#323232"/>
<path d="M15.3989 30.598C15.3989 32.6239 13.5703 34.3244 11.2391 34.3244C8.90795 34.3244 7.07937 32.6239 7.07937 30.598C7.07937 28.5721 8.90795 26.8715 11.2391 26.8715C13.5703 26.8715 15.3989 28.5721 15.3989 30.598Z" fill="white" stroke="#323232" stroke-width="0.693292"/>
<path d="M30.478 30.598C30.478 32.6239 32.3065 34.3244 34.6377 34.3244C36.9689 34.3244 38.7975 32.6239 38.7975 30.598C38.7975 28.5721 36.9689 26.8715 34.6377 26.8715C32.3065 26.8715 30.478 28.5721 30.478 30.598Z" fill="white" stroke="#323232" stroke-width="0.693292"/>
<path d="M34.4643 28.8235C34.4643 32.7148 33.4317 35.6823 31.5153 37.676C29.601 39.6677 26.7571 40.7375 23.0302 40.7375C19.3031 40.7375 16.4114 39.6675 14.4505 37.6732C12.4888 35.6782 11.4124 32.711 11.4124 28.8235C11.4124 24.931 12.4925 20.871 14.4939 17.7945C16.4926 14.7222 19.3868 12.6591 23.0302 12.6591C26.6722 12.6591 29.5198 14.7205 31.4728 17.7915C33.4288 20.8674 34.4643 24.9282 34.4643 28.8235Z" fill="white" stroke="#323232" stroke-width="0.693292" stroke-linecap="round"/>
<path d="M23.0252 28.6052C22.6836 29.7858 22.5052 30.4027 22.5052 31.631C22.9627 31.8499 23.4001 31.9046 24.1518 31.8984" stroke="#323232" stroke-width="0.693292" stroke-linecap="round" stroke-linejoin="round"/>
<path d="M16.9186 30.5508C17.2759 30.5508 17.5928 30.3575 17.8174 30.0581C18.0419 29.7587 18.1783 29.349 18.1783 28.9002C18.1783 28.4514 18.0419 28.0417 17.8174 27.7423C17.5928 27.4428 17.2759 27.2495 16.9186 27.2495C16.5613 27.2495 16.2444 27.4428 16.0198 27.7423C15.7953 28.0417 15.6589 28.4514 15.6589 28.9002C15.6589 29.349 15.7953 29.7587 16.0198 30.0581C16.2444 30.3575 16.5613 30.5508 16.9186 30.5508Z" fill="#323232" stroke="#323232" stroke-width="0.173323" stroke-linecap="round"/>
<circle cx="17.4124" cy="28.5158" r="0.433307" fill="white" stroke="#323232" stroke-width="0.173323"/>
<path d="M29.3978 30.5508C29.7552 30.5508 30.072 30.3575 30.2966 30.0581C30.5212 29.7587 30.6575 29.349 30.6575 28.9002C30.6575 28.4514 30.5212 28.0417 30.2966 27.7423C30.072 27.4428 29.7552 27.2495 29.3978 27.2495C29.0405 27.2495 28.7237 27.4428 28.4991 27.7423C28.2745 28.0417 28.1382 28.4514 28.1382 28.9002C28.1382 29.349 28.2745 29.7587 28.4991 30.0581C28.7237 30.3575 29.0405 30.5508 29.3978 30.5508Z" fill="#323232" stroke="#323232" stroke-width="0.173323" stroke-linecap="round"/>
<circle cx="29.8917" cy="28.5158" r="0.346646" fill="white"/>
<path d="M21.6384 34.5845C22.1584 35.22 23.5103 36.1097 24.7582 34.5845" stroke="#323232" stroke-width="0.693292" stroke-linecap="round" stroke-linejoin="round"/>
<g filter="url(#filter0_f_545_2461)">
<ellipse cx="16.1793" cy="33.7187" rx="1.64657" ry="0.953276" fill="#FC9D80"/>
</g>
<g filter="url(#filter1_f_545_2461)">
<ellipse cx="29.8718" cy="33.7187" rx="1.64657" ry="0.953276" fill="#FC9D80"/>
</g>
<path d="M26.3174 17.6857C22.5301 25.0348 19.3213 26.5706 11.1516 27.3051C10.805 15.5192 12.2195 13.8386 24.4975 11.9661C34.4885 15.2975 34.4842 18.3986 34.7236 27.3051C28.7322 25.5977 28.4569 23.1978 26.3174 17.6857Z" fill="#323232"/>
<defs>
<filter id="filter0_f_545_2461" x="12.4529" y="30.6855" width="7.45287" height="6.06624" filterUnits="userSpaceOnUse" color-interpolation-filters="sRGB">
<feFlood flood-opacity="0" result="BackgroundImageFix"/>
<feBlend mode="normal" in="SourceGraphic" in2="BackgroundImageFix" result="shape"/>
<feGaussianBlur stdDeviation="1.03994" result="effect1_foregroundBlur_545_2461"/>
</filter>
<filter id="filter1_f_545_2461" x="26.1454" y="30.6855" width="7.45287" height="6.06624" filterUnits="userSpaceOnUse" color-interpolation-filters="sRGB">
<feFlood flood-opacity="0" result="BackgroundImageFix"/>
<feBlend mode="normal" in="SourceGraphic" in2="BackgroundImageFix" result="shape"/>
<feGaussianBlur stdDeviation="1.03994" result="effect1_foregroundBlur_545_2461"/>
</filter>
</defs>
</svg>
