<svg width="45" height="40" viewBox="0 0 45 40" fill="none" xmlns="http://www.w3.org/2000/svg">
<path d="M14.029 24.5862C14.029 27.2789 11.5986 29.5391 8.50024 29.5391C5.40184 29.5391 2.97144 27.2789 2.97144 24.5862C2.97144 21.8935 5.40184 19.6333 8.50024 19.6333C11.5986 19.6333 14.029 21.8935 14.029 24.5862Z" fill="white" stroke="#323232" stroke-width="0.921466"/>
<path d="M33.1485 24.5855C33.1485 27.2782 35.5789 29.5384 38.6772 29.5384C41.7756 29.5384 44.206 27.2782 44.206 24.5855C44.206 21.8928 41.7756 19.6326 38.6772 19.6326C35.5789 19.6326 33.1485 21.8928 33.1485 24.5855Z" fill="white" stroke="#323232" stroke-width="0.921466"/>
<path d="M38.9088 22.9924C38.9088 28.1644 37.5363 32.1085 34.9893 34.7585C32.445 37.4057 28.665 38.8275 23.7116 38.8275C18.7578 38.8275 14.9143 37.4053 12.3081 34.7547C9.70083 32.1031 8.27009 28.1593 8.27009 22.9924C8.27009 17.8189 9.70568 12.4226 12.3658 8.33365C15.0224 4.25009 18.8691 1.5081 23.7116 1.5081C28.5522 1.5081 32.337 4.24794 34.9327 8.32964C37.5325 12.4178 38.9088 17.8151 38.9088 22.9924Z" fill="white" stroke="#323232" stroke-width="0.921466" stroke-linecap="round"/>
<path d="M23.7036 26.6182C23.2496 28.1873 23.0125 29.0073 23.0125 30.6398C23.6205 30.9307 24.2019 31.0034 25.201 30.9951" stroke="#323232" stroke-width="0.921466" stroke-linecap="round" stroke-linejoin="round"/>
<path d="M15.5891 29.6652C16.064 29.6652 16.4852 29.4083 16.7837 29.0103C17.0821 28.6123 17.2633 28.0678 17.2633 27.4713C17.2633 26.8748 17.0821 26.3303 16.7837 25.9323C16.4852 25.5343 16.064 25.2774 15.5891 25.2774C15.1142 25.2774 14.693 25.5343 14.3945 25.9323C14.0961 26.3303 13.9149 26.8748 13.9149 27.4713C13.9149 28.0678 14.0961 28.6123 14.3945 29.0103C14.693 29.4083 15.1142 29.6652 15.5891 29.6652Z" fill="#323232" stroke="#323232" stroke-width="0.230366" stroke-linecap="round"/>
<circle cx="16.2467" cy="26.9607" r="0.575916" fill="white" stroke="#323232" stroke-width="0.230366"/>
<path d="M32.175 29.6652C32.6499 29.6652 33.0711 29.4083 33.3696 29.0103C33.6681 28.6123 33.8493 28.0678 33.8493 27.4713C33.8493 26.8748 33.6681 26.3303 33.3696 25.9323C33.0711 25.5343 32.6499 25.2774 32.175 25.2774C31.7001 25.2774 31.279 25.5343 30.9805 25.9323C30.682 26.3303 30.5008 26.8748 30.5008 27.4713C30.5008 28.0678 30.682 28.6123 30.9805 29.0103C31.279 29.4083 31.7001 29.6652 32.175 29.6652Z" fill="#323232" stroke="#323232" stroke-width="0.230366" stroke-linecap="round"/>
<circle cx="32.8326" cy="26.9607" r="0.460733" fill="white"/>
<path d="M22.0906 33.6855C22.7817 34.5302 24.5786 35.7128 26.2372 33.6855" stroke="#323232" stroke-width="0.921466" stroke-linecap="round" stroke-linejoin="round"/>
<g filter="url(#filter0_f_545_2511)">
<ellipse cx="14.3748" cy="32.2621" rx="2.18848" ry="1.26702" fill="#FC9D80"/>
</g>
<g filter="url(#filter1_f_545_2511)">
<ellipse cx="32.5742" cy="32.2616" rx="2.18848" ry="1.26702" fill="#FC9D80"/>
</g>
<path d="M8.0408 19.6327C7.66293 14.5477 12.533 3.81151 16.7947 2.77486C16.7947 2.77486 29.4649 -4.24563 35.8585 7.61258C42.2521 19.4708 38.2188 30.7644 38.2188 30.7644C34.8785 27.3089 36.2607 26.1981 35.8585 21.7744C28.7738 25.7374 22.3235 24.8159 17.9466 20.6693C16.334 24.0096 13.4544 24.7007 12.5915 24.7007C13.0861 27.5372 10.3445 29.9581 9.07745 30.6492C7.75188 27.4241 8.32255 24.3562 8.0408 19.6327Z" fill="#323232"/>
<g filter="url(#filter2_d_545_2511)">
<path d="M8.29308 11.8946C8.40746 5.87052 13.3236 1.04688 19.3487 1.04688H28.1262C34.1242 1.04688 39.0285 5.82861 39.1803 11.8246L39.3682 19.2458H8.1535L8.29308 11.8946Z" fill="white"/>
<path d="M8.75373 11.9033C8.86335 6.13027 13.5746 1.50761 19.3487 1.50761H28.1262C33.8742 1.50761 38.5742 6.09011 38.7197 11.8363L38.8956 18.7851H8.62307L8.75373 11.9033Z" stroke="#323232" stroke-width="0.921466"/>
</g>
<path d="M17.0226 8.64907C17.0226 4.83223 20.1168 1.73808 23.9336 1.73808C27.7505 1.73808 30.8446 4.83224 30.8446 8.64908V18.7852H17.0226V8.64907Z" fill="#323232" fill-opacity="0.38" stroke="#323232" stroke-width="0.921466"/>
<path d="M0.666595 19.3199C0.666595 18.811 1.07915 18.3984 1.58806 18.3984H39.1378V19.3199H0.666595Z" fill="#323232"/>
<defs>
<filter id="filter0_f_545_2511" x="9.42191" y="28.2307" width="9.90575" height="8.06273" filterUnits="userSpaceOnUse" color-interpolation-filters="sRGB">
<feFlood flood-opacity="0" result="BackgroundImageFix"/>
<feBlend mode="normal" in="SourceGraphic" in2="BackgroundImageFix" result="shape"/>
<feGaussianBlur stdDeviation="1.3822" result="effect1_foregroundBlur_545_2511"/>
</filter>
<filter id="filter1_f_545_2511" x="27.6213" y="28.2302" width="9.90575" height="8.06273" filterUnits="userSpaceOnUse" color-interpolation-filters="sRGB">
<feFlood flood-opacity="0" result="BackgroundImageFix"/>
<feBlend mode="normal" in="SourceGraphic" in2="BackgroundImageFix" result="shape"/>
<feGaussianBlur stdDeviation="1.3822" result="effect1_foregroundBlur_545_2511"/>
</filter>
<filter id="filter2_d_545_2511" x="7.23204" y="1.04688" width="33.0576" height="20.0419" filterUnits="userSpaceOnUse" color-interpolation-filters="sRGB">
<feFlood flood-opacity="0" result="BackgroundImageFix"/>
<feColorMatrix in="SourceAlpha" type="matrix" values="0 0 0 0 0 0 0 0 0 0 0 0 0 0 0 0 0 0 127 0" result="hardAlpha"/>
<feOffset dy="0.921466"/>
<feGaussianBlur stdDeviation="0.460733"/>
<feColorMatrix type="matrix" values="0 0 0 0 0.0916667 0 0 0 0 0.0916667 0 0 0 0 0.0916667 0 0 0 0.35 0"/>
<feBlend mode="normal" in2="BackgroundImageFix" result="effect1_dropShadow_545_2511"/>
<feBlend mode="normal" in="SourceGraphic" in2="effect1_dropShadow_545_2511" result="shape"/>
</filter>
</defs>
</svg>
