<svg width="69" height="68" viewBox="0 0 69 68" fill="none" xmlns="http://www.w3.org/2000/svg">
<circle cx="34.5" cy="34" r="34" fill="#FAEDCD"/>
<path d="M49.6089 51V47.2222C49.6089 45.2184 48.8129 43.2966 47.396 41.8796C45.979 40.4627 44.0572 39.6667 42.0534 39.6667H26.9423C24.9384 39.6667 23.0166 40.4627 21.5997 41.8796C20.1827 43.2966 19.3867 45.2184 19.3867 47.2222V51H49.6089Z" fill="#D4A373"/>
<path d="M42.0534 24.5556C42.0534 28.7284 38.6706 32.1111 34.4978 32.1111C30.325 32.1111 26.9423 28.7284 26.9423 24.5556C26.9423 20.3827 30.325 17 34.4978 17C38.6706 17 42.0534 20.3827 42.0534 24.5556Z" fill="#D4A373"/>
<path d="M49.6089 51V47.2222C49.6089 45.2184 48.8129 43.2966 47.396 41.8796C45.979 40.4627 44.0572 39.6667 42.0534 39.6667H26.9423C24.9384 39.6667 23.0166 40.4627 21.5997 41.8796C20.1827 43.2966 19.3867 45.2184 19.3867 47.2222V51H49.6089Z" stroke="#D4A373" stroke-width="3.77778" stroke-linecap="round" stroke-linejoin="round"/>
<path d="M42.0534 24.5556C42.0534 28.7284 38.6706 32.1111 34.4978 32.1111C30.325 32.1111 26.9423 28.7284 26.9423 24.5556C26.9423 20.3827 30.325 17 34.4978 17C38.6706 17 42.0534 20.3827 42.0534 24.5556Z" stroke="#D4A373" stroke-width="3.77778" stroke-linecap="round" stroke-linejoin="round"/>
</svg>
